%TF.GenerationSoftware,KiCad,Pcbnew,6.0.4+dfsg-1+b1*%
%TF.CreationDate,2022-05-05T15:10:20-03:00*%
%TF.ProjectId,painel1,7061696e-656c-4312-9e6b-696361645f70,rev?*%
%TF.SameCoordinates,Original*%
%TF.FileFunction,Profile,NP*%
%FSLAX46Y46*%
G04 Gerber Fmt 4.6, Leading zero omitted, Abs format (unit mm)*
G04 Created by KiCad (PCBNEW 6.0.4+dfsg-1+b1) date 2022-05-05 15:10:20*
%MOMM*%
%LPD*%
G01*
G04 APERTURE LIST*
%TA.AperFunction,Profile*%
%ADD10C,0.500000*%
%TD*%
%TA.AperFunction,Profile*%
%ADD11C,0.100000*%
%TD*%
G04 APERTURE END LIST*
D10*
X29500000Y-32000000D02*
X194500000Y-32000000D01*
X194500000Y-32000000D02*
X194500000Y-178000000D01*
X194500000Y-178000000D02*
X29500000Y-178000000D01*
X29500000Y-178000000D02*
X29500000Y-32000000D01*
X193500000Y-34500000D02*
X98000000Y-34500000D01*
X98000000Y-34500000D02*
X98000000Y-129000000D01*
X98000000Y-129000000D02*
X193500000Y-129000000D01*
X193500000Y-129000000D02*
X193500000Y-34500000D01*
D11*
X112000000Y-173500000D02*
G75*
G03*
X112000000Y-173500000I-2000000J0D01*
G01*
D10*
X30000000Y-176500000D02*
X127000000Y-176500000D01*
X129510000Y-177500000D02*
X178510000Y-177500000D01*
X178510000Y-177500000D02*
X178510000Y-131500000D01*
X178510000Y-131500000D02*
X129510000Y-131500000D01*
X129510000Y-131500000D02*
X129510000Y-177500000D01*
D11*
X50000000Y-138500000D02*
G75*
G03*
X50000000Y-138500000I-2000000J0D01*
G01*
X50000000Y-173500000D02*
G75*
G03*
X50000000Y-173500000I-2000000J0D01*
G01*
D10*
X30000000Y-34500000D02*
X97000000Y-34500000D01*
X97000000Y-34500000D02*
X97000000Y-134500000D01*
X97000000Y-134500000D02*
X30000000Y-134500000D01*
X30000000Y-134500000D02*
X30000000Y-34500000D01*
X127000000Y-176500000D02*
X127000000Y-135500000D01*
X30000000Y-135500000D02*
X30000000Y-176500000D01*
D11*
X112000000Y-138500000D02*
G75*
G03*
X112000000Y-138500000I-2000000J0D01*
G01*
D10*
X127000000Y-135500000D02*
X30000000Y-135500000D01*
M02*
