%TF.GenerationSoftware,KiCad,Pcbnew,(6.0.2)*%
%TF.CreationDate,2022-03-14T17:04:01-03:00*%
%TF.ProjectId,EL-A0001-00500 - Telemetria Frontal,454c2d41-3030-4303-912d-303035303020,rev?*%
%TF.SameCoordinates,Original*%
%TF.FileFunction,Legend,Top*%
%TF.FilePolarity,Positive*%
%FSLAX46Y46*%
G04 Gerber Fmt 4.6, Leading zero omitted, Abs format (unit mm)*
G04 Created by KiCad (PCBNEW (6.0.2)) date 2022-03-14 17:04:01*
%MOMM*%
%LPD*%
G01*
G04 APERTURE LIST*
%ADD10C,0.150000*%
%ADD11C,0.120000*%
%ADD12C,0.127000*%
%ADD13C,0.500000*%
%ADD14C,0.200000*%
%ADD15C,0.100000*%
G04 APERTURE END LIST*
D10*
%TO.C,C1*%
X149008333Y-95452142D02*
X148960714Y-95499761D01*
X148817857Y-95547380D01*
X148722619Y-95547380D01*
X148579761Y-95499761D01*
X148484523Y-95404523D01*
X148436904Y-95309285D01*
X148389285Y-95118809D01*
X148389285Y-94975952D01*
X148436904Y-94785476D01*
X148484523Y-94690238D01*
X148579761Y-94595000D01*
X148722619Y-94547380D01*
X148817857Y-94547380D01*
X148960714Y-94595000D01*
X149008333Y-94642619D01*
X149960714Y-95547380D02*
X149389285Y-95547380D01*
X149675000Y-95547380D02*
X149675000Y-94547380D01*
X149579761Y-94690238D01*
X149484523Y-94785476D01*
X149389285Y-94833095D01*
%TO.C,R11*%
X64277142Y-57452380D02*
X63943809Y-56976190D01*
X63705714Y-57452380D02*
X63705714Y-56452380D01*
X64086666Y-56452380D01*
X64181904Y-56500000D01*
X64229523Y-56547619D01*
X64277142Y-56642857D01*
X64277142Y-56785714D01*
X64229523Y-56880952D01*
X64181904Y-56928571D01*
X64086666Y-56976190D01*
X63705714Y-56976190D01*
X65229523Y-57452380D02*
X64658095Y-57452380D01*
X64943809Y-57452380D02*
X64943809Y-56452380D01*
X64848571Y-56595238D01*
X64753333Y-56690476D01*
X64658095Y-56738095D01*
X66181904Y-57452380D02*
X65610476Y-57452380D01*
X65896190Y-57452380D02*
X65896190Y-56452380D01*
X65800952Y-56595238D01*
X65705714Y-56690476D01*
X65610476Y-56738095D01*
%TO.C,R2*%
X64833333Y-48452380D02*
X64500000Y-47976190D01*
X64261904Y-48452380D02*
X64261904Y-47452380D01*
X64642857Y-47452380D01*
X64738095Y-47500000D01*
X64785714Y-47547619D01*
X64833333Y-47642857D01*
X64833333Y-47785714D01*
X64785714Y-47880952D01*
X64738095Y-47928571D01*
X64642857Y-47976190D01*
X64261904Y-47976190D01*
X65214285Y-47547619D02*
X65261904Y-47500000D01*
X65357142Y-47452380D01*
X65595238Y-47452380D01*
X65690476Y-47500000D01*
X65738095Y-47547619D01*
X65785714Y-47642857D01*
X65785714Y-47738095D01*
X65738095Y-47880952D01*
X65166666Y-48452380D01*
X65785714Y-48452380D01*
%TO.C,R13*%
X135032142Y-82779880D02*
X134698809Y-82303690D01*
X134460714Y-82779880D02*
X134460714Y-81779880D01*
X134841666Y-81779880D01*
X134936904Y-81827500D01*
X134984523Y-81875119D01*
X135032142Y-81970357D01*
X135032142Y-82113214D01*
X134984523Y-82208452D01*
X134936904Y-82256071D01*
X134841666Y-82303690D01*
X134460714Y-82303690D01*
X135984523Y-82779880D02*
X135413095Y-82779880D01*
X135698809Y-82779880D02*
X135698809Y-81779880D01*
X135603571Y-81922738D01*
X135508333Y-82017976D01*
X135413095Y-82065595D01*
X136317857Y-81779880D02*
X136936904Y-81779880D01*
X136603571Y-82160833D01*
X136746428Y-82160833D01*
X136841666Y-82208452D01*
X136889285Y-82256071D01*
X136936904Y-82351309D01*
X136936904Y-82589404D01*
X136889285Y-82684642D01*
X136841666Y-82732261D01*
X136746428Y-82779880D01*
X136460714Y-82779880D01*
X136365476Y-82732261D01*
X136317857Y-82684642D01*
%TO.C,R23*%
X162032142Y-84279880D02*
X161698809Y-83803690D01*
X161460714Y-84279880D02*
X161460714Y-83279880D01*
X161841666Y-83279880D01*
X161936904Y-83327500D01*
X161984523Y-83375119D01*
X162032142Y-83470357D01*
X162032142Y-83613214D01*
X161984523Y-83708452D01*
X161936904Y-83756071D01*
X161841666Y-83803690D01*
X161460714Y-83803690D01*
X162413095Y-83375119D02*
X162460714Y-83327500D01*
X162555952Y-83279880D01*
X162794047Y-83279880D01*
X162889285Y-83327500D01*
X162936904Y-83375119D01*
X162984523Y-83470357D01*
X162984523Y-83565595D01*
X162936904Y-83708452D01*
X162365476Y-84279880D01*
X162984523Y-84279880D01*
X163317857Y-83279880D02*
X163936904Y-83279880D01*
X163603571Y-83660833D01*
X163746428Y-83660833D01*
X163841666Y-83708452D01*
X163889285Y-83756071D01*
X163936904Y-83851309D01*
X163936904Y-84089404D01*
X163889285Y-84184642D01*
X163841666Y-84232261D01*
X163746428Y-84279880D01*
X163460714Y-84279880D01*
X163365476Y-84232261D01*
X163317857Y-84184642D01*
%TO.C,R10*%
X64437142Y-60452380D02*
X64103809Y-59976190D01*
X63865714Y-60452380D02*
X63865714Y-59452380D01*
X64246666Y-59452380D01*
X64341904Y-59500000D01*
X64389523Y-59547619D01*
X64437142Y-59642857D01*
X64437142Y-59785714D01*
X64389523Y-59880952D01*
X64341904Y-59928571D01*
X64246666Y-59976190D01*
X63865714Y-59976190D01*
X65389523Y-60452380D02*
X64818095Y-60452380D01*
X65103809Y-60452380D02*
X65103809Y-59452380D01*
X65008571Y-59595238D01*
X64913333Y-59690476D01*
X64818095Y-59738095D01*
X66008571Y-59452380D02*
X66103809Y-59452380D01*
X66199047Y-59500000D01*
X66246666Y-59547619D01*
X66294285Y-59642857D01*
X66341904Y-59833333D01*
X66341904Y-60071428D01*
X66294285Y-60261904D01*
X66246666Y-60357142D01*
X66199047Y-60404761D01*
X66103809Y-60452380D01*
X66008571Y-60452380D01*
X65913333Y-60404761D01*
X65865714Y-60357142D01*
X65818095Y-60261904D01*
X65770476Y-60071428D01*
X65770476Y-59833333D01*
X65818095Y-59642857D01*
X65865714Y-59547619D01*
X65913333Y-59500000D01*
X66008571Y-59452380D01*
%TO.C,R3*%
X64753333Y-45452380D02*
X64420000Y-44976190D01*
X64181904Y-45452380D02*
X64181904Y-44452380D01*
X64562857Y-44452380D01*
X64658095Y-44500000D01*
X64705714Y-44547619D01*
X64753333Y-44642857D01*
X64753333Y-44785714D01*
X64705714Y-44880952D01*
X64658095Y-44928571D01*
X64562857Y-44976190D01*
X64181904Y-44976190D01*
X65086666Y-44452380D02*
X65705714Y-44452380D01*
X65372380Y-44833333D01*
X65515238Y-44833333D01*
X65610476Y-44880952D01*
X65658095Y-44928571D01*
X65705714Y-45023809D01*
X65705714Y-45261904D01*
X65658095Y-45357142D01*
X65610476Y-45404761D01*
X65515238Y-45452380D01*
X65229523Y-45452380D01*
X65134285Y-45404761D01*
X65086666Y-45357142D01*
%TO.C,R9*%
X147195833Y-55502380D02*
X146862500Y-55026190D01*
X146624404Y-55502380D02*
X146624404Y-54502380D01*
X147005357Y-54502380D01*
X147100595Y-54550000D01*
X147148214Y-54597619D01*
X147195833Y-54692857D01*
X147195833Y-54835714D01*
X147148214Y-54930952D01*
X147100595Y-54978571D01*
X147005357Y-55026190D01*
X146624404Y-55026190D01*
X147672023Y-55502380D02*
X147862500Y-55502380D01*
X147957738Y-55454761D01*
X148005357Y-55407142D01*
X148100595Y-55264285D01*
X148148214Y-55073809D01*
X148148214Y-54692857D01*
X148100595Y-54597619D01*
X148052976Y-54550000D01*
X147957738Y-54502380D01*
X147767261Y-54502380D01*
X147672023Y-54550000D01*
X147624404Y-54597619D01*
X147576785Y-54692857D01*
X147576785Y-54930952D01*
X147624404Y-55026190D01*
X147672023Y-55073809D01*
X147767261Y-55121428D01*
X147957738Y-55121428D01*
X148052976Y-55073809D01*
X148100595Y-55026190D01*
X148148214Y-54930952D01*
%TO.C,R6*%
X135920833Y-86779880D02*
X135587500Y-86303690D01*
X135349404Y-86779880D02*
X135349404Y-85779880D01*
X135730357Y-85779880D01*
X135825595Y-85827500D01*
X135873214Y-85875119D01*
X135920833Y-85970357D01*
X135920833Y-86113214D01*
X135873214Y-86208452D01*
X135825595Y-86256071D01*
X135730357Y-86303690D01*
X135349404Y-86303690D01*
X136777976Y-85779880D02*
X136587500Y-85779880D01*
X136492261Y-85827500D01*
X136444642Y-85875119D01*
X136349404Y-86017976D01*
X136301785Y-86208452D01*
X136301785Y-86589404D01*
X136349404Y-86684642D01*
X136397023Y-86732261D01*
X136492261Y-86779880D01*
X136682738Y-86779880D01*
X136777976Y-86732261D01*
X136825595Y-86684642D01*
X136873214Y-86589404D01*
X136873214Y-86351309D01*
X136825595Y-86256071D01*
X136777976Y-86208452D01*
X136682738Y-86160833D01*
X136492261Y-86160833D01*
X136397023Y-86208452D01*
X136349404Y-86256071D01*
X136301785Y-86351309D01*
%TO.C,C2*%
X162783333Y-68587142D02*
X162735714Y-68634761D01*
X162592857Y-68682380D01*
X162497619Y-68682380D01*
X162354761Y-68634761D01*
X162259523Y-68539523D01*
X162211904Y-68444285D01*
X162164285Y-68253809D01*
X162164285Y-68110952D01*
X162211904Y-67920476D01*
X162259523Y-67825238D01*
X162354761Y-67730000D01*
X162497619Y-67682380D01*
X162592857Y-67682380D01*
X162735714Y-67730000D01*
X162783333Y-67777619D01*
X163164285Y-67777619D02*
X163211904Y-67730000D01*
X163307142Y-67682380D01*
X163545238Y-67682380D01*
X163640476Y-67730000D01*
X163688095Y-67777619D01*
X163735714Y-67872857D01*
X163735714Y-67968095D01*
X163688095Y-68110952D01*
X163116666Y-68682380D01*
X163735714Y-68682380D01*
%TO.C,J3*%
X46042380Y-50333333D02*
X46756666Y-50333333D01*
X46899523Y-50380952D01*
X46994761Y-50476190D01*
X47042380Y-50619047D01*
X47042380Y-50714285D01*
X46042380Y-49952380D02*
X46042380Y-49333333D01*
X46423333Y-49666666D01*
X46423333Y-49523809D01*
X46470952Y-49428571D01*
X46518571Y-49380952D01*
X46613809Y-49333333D01*
X46851904Y-49333333D01*
X46947142Y-49380952D01*
X46994761Y-49428571D01*
X47042380Y-49523809D01*
X47042380Y-49809523D01*
X46994761Y-49904761D01*
X46947142Y-49952380D01*
%TO.C,R7*%
X135833333Y-84779880D02*
X135500000Y-84303690D01*
X135261904Y-84779880D02*
X135261904Y-83779880D01*
X135642857Y-83779880D01*
X135738095Y-83827500D01*
X135785714Y-83875119D01*
X135833333Y-83970357D01*
X135833333Y-84113214D01*
X135785714Y-84208452D01*
X135738095Y-84256071D01*
X135642857Y-84303690D01*
X135261904Y-84303690D01*
X136166666Y-83779880D02*
X136833333Y-83779880D01*
X136404761Y-84779880D01*
%TO.C,R21*%
X177807142Y-53502380D02*
X177473809Y-53026190D01*
X177235714Y-53502380D02*
X177235714Y-52502380D01*
X177616666Y-52502380D01*
X177711904Y-52550000D01*
X177759523Y-52597619D01*
X177807142Y-52692857D01*
X177807142Y-52835714D01*
X177759523Y-52930952D01*
X177711904Y-52978571D01*
X177616666Y-53026190D01*
X177235714Y-53026190D01*
X178188095Y-52597619D02*
X178235714Y-52550000D01*
X178330952Y-52502380D01*
X178569047Y-52502380D01*
X178664285Y-52550000D01*
X178711904Y-52597619D01*
X178759523Y-52692857D01*
X178759523Y-52788095D01*
X178711904Y-52930952D01*
X178140476Y-53502380D01*
X178759523Y-53502380D01*
X179711904Y-53502380D02*
X179140476Y-53502380D01*
X179426190Y-53502380D02*
X179426190Y-52502380D01*
X179330952Y-52645238D01*
X179235714Y-52740476D01*
X179140476Y-52788095D01*
%TO.C,R15*%
X145719642Y-53502380D02*
X145386309Y-53026190D01*
X145148214Y-53502380D02*
X145148214Y-52502380D01*
X145529166Y-52502380D01*
X145624404Y-52550000D01*
X145672023Y-52597619D01*
X145719642Y-52692857D01*
X145719642Y-52835714D01*
X145672023Y-52930952D01*
X145624404Y-52978571D01*
X145529166Y-53026190D01*
X145148214Y-53026190D01*
X146672023Y-53502380D02*
X146100595Y-53502380D01*
X146386309Y-53502380D02*
X146386309Y-52502380D01*
X146291071Y-52645238D01*
X146195833Y-52740476D01*
X146100595Y-52788095D01*
X147576785Y-52502380D02*
X147100595Y-52502380D01*
X147052976Y-52978571D01*
X147100595Y-52930952D01*
X147195833Y-52883333D01*
X147433928Y-52883333D01*
X147529166Y-52930952D01*
X147576785Y-52978571D01*
X147624404Y-53073809D01*
X147624404Y-53311904D01*
X147576785Y-53407142D01*
X147529166Y-53454761D01*
X147433928Y-53502380D01*
X147195833Y-53502380D01*
X147100595Y-53454761D01*
X147052976Y-53407142D01*
%TO.C,D2*%
X90412380Y-92008095D02*
X89412380Y-92008095D01*
X89412380Y-91770000D01*
X89460000Y-91627142D01*
X89555238Y-91531904D01*
X89650476Y-91484285D01*
X89840952Y-91436666D01*
X89983809Y-91436666D01*
X90174285Y-91484285D01*
X90269523Y-91531904D01*
X90364761Y-91627142D01*
X90412380Y-91770000D01*
X90412380Y-92008095D01*
X89507619Y-91055714D02*
X89460000Y-91008095D01*
X89412380Y-90912857D01*
X89412380Y-90674761D01*
X89460000Y-90579523D01*
X89507619Y-90531904D01*
X89602857Y-90484285D01*
X89698095Y-90484285D01*
X89840952Y-90531904D01*
X90412380Y-91103333D01*
X90412380Y-90484285D01*
%TO.C,J5*%
X98597380Y-72333333D02*
X99311666Y-72333333D01*
X99454523Y-72380952D01*
X99549761Y-72476190D01*
X99597380Y-72619047D01*
X99597380Y-72714285D01*
X98597380Y-71380952D02*
X98597380Y-71857142D01*
X99073571Y-71904761D01*
X99025952Y-71857142D01*
X98978333Y-71761904D01*
X98978333Y-71523809D01*
X99025952Y-71428571D01*
X99073571Y-71380952D01*
X99168809Y-71333333D01*
X99406904Y-71333333D01*
X99502142Y-71380952D01*
X99549761Y-71428571D01*
X99597380Y-71523809D01*
X99597380Y-71761904D01*
X99549761Y-71857142D01*
X99502142Y-71904761D01*
%TO.C,U4*%
X162203095Y-63957380D02*
X162203095Y-64766904D01*
X162250714Y-64862142D01*
X162298333Y-64909761D01*
X162393571Y-64957380D01*
X162584047Y-64957380D01*
X162679285Y-64909761D01*
X162726904Y-64862142D01*
X162774523Y-64766904D01*
X162774523Y-63957380D01*
X163679285Y-64290714D02*
X163679285Y-64957380D01*
X163441190Y-63909761D02*
X163203095Y-64624047D01*
X163822142Y-64624047D01*
%TO.C,R12*%
X134857142Y-80779880D02*
X134523809Y-80303690D01*
X134285714Y-80779880D02*
X134285714Y-79779880D01*
X134666666Y-79779880D01*
X134761904Y-79827500D01*
X134809523Y-79875119D01*
X134857142Y-79970357D01*
X134857142Y-80113214D01*
X134809523Y-80208452D01*
X134761904Y-80256071D01*
X134666666Y-80303690D01*
X134285714Y-80303690D01*
X135809523Y-80779880D02*
X135238095Y-80779880D01*
X135523809Y-80779880D02*
X135523809Y-79779880D01*
X135428571Y-79922738D01*
X135333333Y-80017976D01*
X135238095Y-80065595D01*
X136190476Y-79875119D02*
X136238095Y-79827500D01*
X136333333Y-79779880D01*
X136571428Y-79779880D01*
X136666666Y-79827500D01*
X136714285Y-79875119D01*
X136761904Y-79970357D01*
X136761904Y-80065595D01*
X136714285Y-80208452D01*
X136142857Y-80779880D01*
X136761904Y-80779880D01*
%TO.C,D1*%
X51982380Y-87738095D02*
X50982380Y-87738095D01*
X50982380Y-87500000D01*
X51030000Y-87357142D01*
X51125238Y-87261904D01*
X51220476Y-87214285D01*
X51410952Y-87166666D01*
X51553809Y-87166666D01*
X51744285Y-87214285D01*
X51839523Y-87261904D01*
X51934761Y-87357142D01*
X51982380Y-87500000D01*
X51982380Y-87738095D01*
X51982380Y-86214285D02*
X51982380Y-86785714D01*
X51982380Y-86500000D02*
X50982380Y-86500000D01*
X51125238Y-86595238D01*
X51220476Y-86690476D01*
X51268095Y-86785714D01*
X52352380Y-92341904D02*
X51352380Y-92341904D01*
X52352380Y-91770476D02*
X51780952Y-92199047D01*
X51352380Y-91770476D02*
X51923809Y-92341904D01*
%TO.C,U3*%
X148428095Y-92322380D02*
X148428095Y-93131904D01*
X148475714Y-93227142D01*
X148523333Y-93274761D01*
X148618571Y-93322380D01*
X148809047Y-93322380D01*
X148904285Y-93274761D01*
X148951904Y-93227142D01*
X148999523Y-93131904D01*
X148999523Y-92322380D01*
X149380476Y-92322380D02*
X149999523Y-92322380D01*
X149666190Y-92703333D01*
X149809047Y-92703333D01*
X149904285Y-92750952D01*
X149951904Y-92798571D01*
X149999523Y-92893809D01*
X149999523Y-93131904D01*
X149951904Y-93227142D01*
X149904285Y-93274761D01*
X149809047Y-93322380D01*
X149523333Y-93322380D01*
X149428095Y-93274761D01*
X149380476Y-93227142D01*
%TO.C,R19*%
X162032142Y-82279880D02*
X161698809Y-81803690D01*
X161460714Y-82279880D02*
X161460714Y-81279880D01*
X161841666Y-81279880D01*
X161936904Y-81327500D01*
X161984523Y-81375119D01*
X162032142Y-81470357D01*
X162032142Y-81613214D01*
X161984523Y-81708452D01*
X161936904Y-81756071D01*
X161841666Y-81803690D01*
X161460714Y-81803690D01*
X162984523Y-82279880D02*
X162413095Y-82279880D01*
X162698809Y-82279880D02*
X162698809Y-81279880D01*
X162603571Y-81422738D01*
X162508333Y-81517976D01*
X162413095Y-81565595D01*
X163460714Y-82279880D02*
X163651190Y-82279880D01*
X163746428Y-82232261D01*
X163794047Y-82184642D01*
X163889285Y-82041785D01*
X163936904Y-81851309D01*
X163936904Y-81470357D01*
X163889285Y-81375119D01*
X163841666Y-81327500D01*
X163746428Y-81279880D01*
X163555952Y-81279880D01*
X163460714Y-81327500D01*
X163413095Y-81375119D01*
X163365476Y-81470357D01*
X163365476Y-81708452D01*
X163413095Y-81803690D01*
X163460714Y-81851309D01*
X163555952Y-81898928D01*
X163746428Y-81898928D01*
X163841666Y-81851309D01*
X163889285Y-81803690D01*
X163936904Y-81708452D01*
%TO.C,R25*%
X177719642Y-55502380D02*
X177386309Y-55026190D01*
X177148214Y-55502380D02*
X177148214Y-54502380D01*
X177529166Y-54502380D01*
X177624404Y-54550000D01*
X177672023Y-54597619D01*
X177719642Y-54692857D01*
X177719642Y-54835714D01*
X177672023Y-54930952D01*
X177624404Y-54978571D01*
X177529166Y-55026190D01*
X177148214Y-55026190D01*
X178100595Y-54597619D02*
X178148214Y-54550000D01*
X178243452Y-54502380D01*
X178481547Y-54502380D01*
X178576785Y-54550000D01*
X178624404Y-54597619D01*
X178672023Y-54692857D01*
X178672023Y-54788095D01*
X178624404Y-54930952D01*
X178052976Y-55502380D01*
X178672023Y-55502380D01*
X179576785Y-54502380D02*
X179100595Y-54502380D01*
X179052976Y-54978571D01*
X179100595Y-54930952D01*
X179195833Y-54883333D01*
X179433928Y-54883333D01*
X179529166Y-54930952D01*
X179576785Y-54978571D01*
X179624404Y-55073809D01*
X179624404Y-55311904D01*
X179576785Y-55407142D01*
X179529166Y-55454761D01*
X179433928Y-55502380D01*
X179195833Y-55502380D01*
X179100595Y-55454761D01*
X179052976Y-55407142D01*
%TO.C,J6*%
X86072380Y-72333333D02*
X86786666Y-72333333D01*
X86929523Y-72380952D01*
X87024761Y-72476190D01*
X87072380Y-72619047D01*
X87072380Y-72714285D01*
X86072380Y-71428571D02*
X86072380Y-71619047D01*
X86120000Y-71714285D01*
X86167619Y-71761904D01*
X86310476Y-71857142D01*
X86500952Y-71904761D01*
X86881904Y-71904761D01*
X86977142Y-71857142D01*
X87024761Y-71809523D01*
X87072380Y-71714285D01*
X87072380Y-71523809D01*
X87024761Y-71428571D01*
X86977142Y-71380952D01*
X86881904Y-71333333D01*
X86643809Y-71333333D01*
X86548571Y-71380952D01*
X86500952Y-71428571D01*
X86453333Y-71523809D01*
X86453333Y-71714285D01*
X86500952Y-71809523D01*
X86548571Y-71857142D01*
X86643809Y-71904761D01*
%TO.C,R20*%
X177719642Y-51502380D02*
X177386309Y-51026190D01*
X177148214Y-51502380D02*
X177148214Y-50502380D01*
X177529166Y-50502380D01*
X177624404Y-50550000D01*
X177672023Y-50597619D01*
X177719642Y-50692857D01*
X177719642Y-50835714D01*
X177672023Y-50930952D01*
X177624404Y-50978571D01*
X177529166Y-51026190D01*
X177148214Y-51026190D01*
X178100595Y-50597619D02*
X178148214Y-50550000D01*
X178243452Y-50502380D01*
X178481547Y-50502380D01*
X178576785Y-50550000D01*
X178624404Y-50597619D01*
X178672023Y-50692857D01*
X178672023Y-50788095D01*
X178624404Y-50930952D01*
X178052976Y-51502380D01*
X178672023Y-51502380D01*
X179291071Y-50502380D02*
X179386309Y-50502380D01*
X179481547Y-50550000D01*
X179529166Y-50597619D01*
X179576785Y-50692857D01*
X179624404Y-50883333D01*
X179624404Y-51121428D01*
X179576785Y-51311904D01*
X179529166Y-51407142D01*
X179481547Y-51454761D01*
X179386309Y-51502380D01*
X179291071Y-51502380D01*
X179195833Y-51454761D01*
X179148214Y-51407142D01*
X179100595Y-51311904D01*
X179052976Y-51121428D01*
X179052976Y-50883333D01*
X179100595Y-50692857D01*
X179148214Y-50597619D01*
X179195833Y-50550000D01*
X179291071Y-50502380D01*
%TO.C,R1*%
X84802380Y-83254166D02*
X84326190Y-83587500D01*
X84802380Y-83825595D02*
X83802380Y-83825595D01*
X83802380Y-83444642D01*
X83850000Y-83349404D01*
X83897619Y-83301785D01*
X83992857Y-83254166D01*
X84135714Y-83254166D01*
X84230952Y-83301785D01*
X84278571Y-83349404D01*
X84326190Y-83444642D01*
X84326190Y-83825595D01*
X84802380Y-82301785D02*
X84802380Y-82873214D01*
X84802380Y-82587500D02*
X83802380Y-82587500D01*
X83945238Y-82682738D01*
X84040476Y-82777976D01*
X84088095Y-82873214D01*
%TO.C,U2*%
X57400074Y-93568803D02*
X57400074Y-94206224D01*
X57437570Y-94281215D01*
X57475065Y-94318710D01*
X57550056Y-94356205D01*
X57700037Y-94356205D01*
X57775028Y-94318710D01*
X57812523Y-94281215D01*
X57850018Y-94206224D01*
X57850018Y-93568803D01*
X58187476Y-93643794D02*
X58224972Y-93606299D01*
X58299962Y-93568803D01*
X58487439Y-93568803D01*
X58562430Y-93606299D01*
X58599925Y-93643794D01*
X58637420Y-93718785D01*
X58637420Y-93793775D01*
X58599925Y-93906261D01*
X58149981Y-94356205D01*
X58637420Y-94356205D01*
X60667142Y-90642380D02*
X60667142Y-89642380D01*
X61143333Y-90642380D02*
X61143333Y-89642380D01*
X61714761Y-90642380D01*
X61714761Y-89642380D01*
X62190952Y-90261428D02*
X62952857Y-90261428D01*
X62571904Y-90642380D02*
X62571904Y-89880476D01*
X70350952Y-89642380D02*
X70541428Y-89642380D01*
X70636666Y-89690000D01*
X70731904Y-89785238D01*
X70779523Y-89975714D01*
X70779523Y-90309047D01*
X70731904Y-90499523D01*
X70636666Y-90594761D01*
X70541428Y-90642380D01*
X70350952Y-90642380D01*
X70255714Y-90594761D01*
X70160476Y-90499523D01*
X70112857Y-90309047D01*
X70112857Y-89975714D01*
X70160476Y-89785238D01*
X70255714Y-89690000D01*
X70350952Y-89642380D01*
X71208095Y-89642380D02*
X71208095Y-90451904D01*
X71255714Y-90547142D01*
X71303333Y-90594761D01*
X71398571Y-90642380D01*
X71589047Y-90642380D01*
X71684285Y-90594761D01*
X71731904Y-90547142D01*
X71779523Y-90451904D01*
X71779523Y-89642380D01*
X72112857Y-89642380D02*
X72684285Y-89642380D01*
X72398571Y-90642380D02*
X72398571Y-89642380D01*
X73017619Y-90261428D02*
X73779523Y-90261428D01*
X73398571Y-90642380D02*
X73398571Y-89880476D01*
X60667142Y-81752380D02*
X60667142Y-80752380D01*
X61143333Y-81752380D02*
X61143333Y-80752380D01*
X61714761Y-81752380D01*
X61714761Y-80752380D01*
X62190952Y-81371428D02*
X62952857Y-81371428D01*
X70350952Y-80752380D02*
X70541428Y-80752380D01*
X70636666Y-80800000D01*
X70731904Y-80895238D01*
X70779523Y-81085714D01*
X70779523Y-81419047D01*
X70731904Y-81609523D01*
X70636666Y-81704761D01*
X70541428Y-81752380D01*
X70350952Y-81752380D01*
X70255714Y-81704761D01*
X70160476Y-81609523D01*
X70112857Y-81419047D01*
X70112857Y-81085714D01*
X70160476Y-80895238D01*
X70255714Y-80800000D01*
X70350952Y-80752380D01*
X71208095Y-80752380D02*
X71208095Y-81561904D01*
X71255714Y-81657142D01*
X71303333Y-81704761D01*
X71398571Y-81752380D01*
X71589047Y-81752380D01*
X71684285Y-81704761D01*
X71731904Y-81657142D01*
X71779523Y-81561904D01*
X71779523Y-80752380D01*
X72112857Y-80752380D02*
X72684285Y-80752380D01*
X72398571Y-81752380D02*
X72398571Y-80752380D01*
X73017619Y-81371428D02*
X73779523Y-81371428D01*
%TO.C,R22*%
X161944642Y-86279880D02*
X161611309Y-85803690D01*
X161373214Y-86279880D02*
X161373214Y-85279880D01*
X161754166Y-85279880D01*
X161849404Y-85327500D01*
X161897023Y-85375119D01*
X161944642Y-85470357D01*
X161944642Y-85613214D01*
X161897023Y-85708452D01*
X161849404Y-85756071D01*
X161754166Y-85803690D01*
X161373214Y-85803690D01*
X162325595Y-85375119D02*
X162373214Y-85327500D01*
X162468452Y-85279880D01*
X162706547Y-85279880D01*
X162801785Y-85327500D01*
X162849404Y-85375119D01*
X162897023Y-85470357D01*
X162897023Y-85565595D01*
X162849404Y-85708452D01*
X162277976Y-86279880D01*
X162897023Y-86279880D01*
X163277976Y-85375119D02*
X163325595Y-85327500D01*
X163420833Y-85279880D01*
X163658928Y-85279880D01*
X163754166Y-85327500D01*
X163801785Y-85375119D01*
X163849404Y-85470357D01*
X163849404Y-85565595D01*
X163801785Y-85708452D01*
X163230357Y-86279880D01*
X163849404Y-86279880D01*
%TO.C,J4*%
X109042380Y-72333333D02*
X109756666Y-72333333D01*
X109899523Y-72380952D01*
X109994761Y-72476190D01*
X110042380Y-72619047D01*
X110042380Y-72714285D01*
X109375714Y-71428571D02*
X110042380Y-71428571D01*
X108994761Y-71666666D02*
X109709047Y-71904761D01*
X109709047Y-71285714D01*
%TO.C,R18*%
X162032142Y-80279880D02*
X161698809Y-79803690D01*
X161460714Y-80279880D02*
X161460714Y-79279880D01*
X161841666Y-79279880D01*
X161936904Y-79327500D01*
X161984523Y-79375119D01*
X162032142Y-79470357D01*
X162032142Y-79613214D01*
X161984523Y-79708452D01*
X161936904Y-79756071D01*
X161841666Y-79803690D01*
X161460714Y-79803690D01*
X162984523Y-80279880D02*
X162413095Y-80279880D01*
X162698809Y-80279880D02*
X162698809Y-79279880D01*
X162603571Y-79422738D01*
X162508333Y-79517976D01*
X162413095Y-79565595D01*
X163555952Y-79708452D02*
X163460714Y-79660833D01*
X163413095Y-79613214D01*
X163365476Y-79517976D01*
X163365476Y-79470357D01*
X163413095Y-79375119D01*
X163460714Y-79327500D01*
X163555952Y-79279880D01*
X163746428Y-79279880D01*
X163841666Y-79327500D01*
X163889285Y-79375119D01*
X163936904Y-79470357D01*
X163936904Y-79517976D01*
X163889285Y-79613214D01*
X163841666Y-79660833D01*
X163746428Y-79708452D01*
X163555952Y-79708452D01*
X163460714Y-79756071D01*
X163413095Y-79803690D01*
X163365476Y-79898928D01*
X163365476Y-80089404D01*
X163413095Y-80184642D01*
X163460714Y-80232261D01*
X163555952Y-80279880D01*
X163746428Y-80279880D01*
X163841666Y-80232261D01*
X163889285Y-80184642D01*
X163936904Y-80089404D01*
X163936904Y-79898928D01*
X163889285Y-79803690D01*
X163841666Y-79756071D01*
X163746428Y-79708452D01*
%TO.C,R4*%
X64913333Y-54452380D02*
X64580000Y-53976190D01*
X64341904Y-54452380D02*
X64341904Y-53452380D01*
X64722857Y-53452380D01*
X64818095Y-53500000D01*
X64865714Y-53547619D01*
X64913333Y-53642857D01*
X64913333Y-53785714D01*
X64865714Y-53880952D01*
X64818095Y-53928571D01*
X64722857Y-53976190D01*
X64341904Y-53976190D01*
X65770476Y-53785714D02*
X65770476Y-54452380D01*
X65532380Y-53404761D02*
X65294285Y-54119047D01*
X65913333Y-54119047D01*
%TO.C,R17*%
X64357142Y-66452380D02*
X64023809Y-65976190D01*
X63785714Y-66452380D02*
X63785714Y-65452380D01*
X64166666Y-65452380D01*
X64261904Y-65500000D01*
X64309523Y-65547619D01*
X64357142Y-65642857D01*
X64357142Y-65785714D01*
X64309523Y-65880952D01*
X64261904Y-65928571D01*
X64166666Y-65976190D01*
X63785714Y-65976190D01*
X65309523Y-66452380D02*
X64738095Y-66452380D01*
X65023809Y-66452380D02*
X65023809Y-65452380D01*
X64928571Y-65595238D01*
X64833333Y-65690476D01*
X64738095Y-65738095D01*
X65642857Y-65452380D02*
X66309523Y-65452380D01*
X65880952Y-66452380D01*
%TO.C,J1*%
X42726238Y-46495211D02*
X43727673Y-46495211D01*
X43927959Y-46561973D01*
X44061484Y-46695497D01*
X44128246Y-46895784D01*
X44128246Y-47029309D01*
X44128246Y-45093203D02*
X44128246Y-45894350D01*
X44128246Y-45493776D02*
X42726238Y-45493776D01*
X42926525Y-45627301D01*
X43060050Y-45760825D01*
X43126812Y-45894350D01*
%TO.C,R8*%
X147195833Y-57502380D02*
X146862500Y-57026190D01*
X146624404Y-57502380D02*
X146624404Y-56502380D01*
X147005357Y-56502380D01*
X147100595Y-56550000D01*
X147148214Y-56597619D01*
X147195833Y-56692857D01*
X147195833Y-56835714D01*
X147148214Y-56930952D01*
X147100595Y-56978571D01*
X147005357Y-57026190D01*
X146624404Y-57026190D01*
X147767261Y-56930952D02*
X147672023Y-56883333D01*
X147624404Y-56835714D01*
X147576785Y-56740476D01*
X147576785Y-56692857D01*
X147624404Y-56597619D01*
X147672023Y-56550000D01*
X147767261Y-56502380D01*
X147957738Y-56502380D01*
X148052976Y-56550000D01*
X148100595Y-56597619D01*
X148148214Y-56692857D01*
X148148214Y-56740476D01*
X148100595Y-56835714D01*
X148052976Y-56883333D01*
X147957738Y-56930952D01*
X147767261Y-56930952D01*
X147672023Y-56978571D01*
X147624404Y-57026190D01*
X147576785Y-57121428D01*
X147576785Y-57311904D01*
X147624404Y-57407142D01*
X147672023Y-57454761D01*
X147767261Y-57502380D01*
X147957738Y-57502380D01*
X148052976Y-57454761D01*
X148100595Y-57407142D01*
X148148214Y-57311904D01*
X148148214Y-57121428D01*
X148100595Y-57026190D01*
X148052976Y-56978571D01*
X147957738Y-56930952D01*
%TO.C,R14*%
X145719642Y-51502380D02*
X145386309Y-51026190D01*
X145148214Y-51502380D02*
X145148214Y-50502380D01*
X145529166Y-50502380D01*
X145624404Y-50550000D01*
X145672023Y-50597619D01*
X145719642Y-50692857D01*
X145719642Y-50835714D01*
X145672023Y-50930952D01*
X145624404Y-50978571D01*
X145529166Y-51026190D01*
X145148214Y-51026190D01*
X146672023Y-51502380D02*
X146100595Y-51502380D01*
X146386309Y-51502380D02*
X146386309Y-50502380D01*
X146291071Y-50645238D01*
X146195833Y-50740476D01*
X146100595Y-50788095D01*
X147529166Y-50835714D02*
X147529166Y-51502380D01*
X147291071Y-50454761D02*
X147052976Y-51169047D01*
X147672023Y-51169047D01*
%TO.C,U1*%
X85012380Y-56761904D02*
X85821904Y-56761904D01*
X85917142Y-56714285D01*
X85964761Y-56666666D01*
X86012380Y-56571428D01*
X86012380Y-56380952D01*
X85964761Y-56285714D01*
X85917142Y-56238095D01*
X85821904Y-56190476D01*
X85012380Y-56190476D01*
X86012380Y-55190476D02*
X86012380Y-55761904D01*
X86012380Y-55476190D02*
X85012380Y-55476190D01*
X85155238Y-55571428D01*
X85250476Y-55666666D01*
X85298095Y-55761904D01*
X135594285Y-55134761D02*
X135722857Y-55182380D01*
X135937142Y-55182380D01*
X136022857Y-55134761D01*
X136065714Y-55087142D01*
X136108571Y-54991904D01*
X136108571Y-54896666D01*
X136065714Y-54801428D01*
X136022857Y-54753809D01*
X135937142Y-54706190D01*
X135765714Y-54658571D01*
X135680000Y-54610952D01*
X135637142Y-54563333D01*
X135594285Y-54468095D01*
X135594285Y-54372857D01*
X135637142Y-54277619D01*
X135680000Y-54230000D01*
X135765714Y-54182380D01*
X135980000Y-54182380D01*
X136108571Y-54230000D01*
X136408571Y-54182380D02*
X136622857Y-55182380D01*
X136794285Y-54468095D01*
X136965714Y-55182380D01*
X137180000Y-54182380D01*
X138037142Y-55087142D02*
X137994285Y-55134761D01*
X137865714Y-55182380D01*
X137780000Y-55182380D01*
X137651428Y-55134761D01*
X137565714Y-55039523D01*
X137522857Y-54944285D01*
X137480000Y-54753809D01*
X137480000Y-54610952D01*
X137522857Y-54420476D01*
X137565714Y-54325238D01*
X137651428Y-54230000D01*
X137780000Y-54182380D01*
X137865714Y-54182380D01*
X137994285Y-54230000D01*
X138037142Y-54277619D01*
X138851428Y-55182380D02*
X138422857Y-55182380D01*
X138422857Y-54182380D01*
X139151428Y-55182380D02*
X139151428Y-54182380D01*
X139665714Y-55182380D02*
X139280000Y-54610952D01*
X139665714Y-54182380D02*
X139151428Y-54753809D01*
X136182285Y-51690000D02*
X136096571Y-51642380D01*
X135968000Y-51642380D01*
X135839428Y-51690000D01*
X135753714Y-51785238D01*
X135710857Y-51880476D01*
X135668000Y-52070952D01*
X135668000Y-52213809D01*
X135710857Y-52404285D01*
X135753714Y-52499523D01*
X135839428Y-52594761D01*
X135968000Y-52642380D01*
X136053714Y-52642380D01*
X136182285Y-52594761D01*
X136225142Y-52547142D01*
X136225142Y-52213809D01*
X136053714Y-52213809D01*
X136610857Y-52642380D02*
X136610857Y-51642380D01*
X137125142Y-52642380D01*
X137125142Y-51642380D01*
X137553714Y-52642380D02*
X137553714Y-51642380D01*
X137768000Y-51642380D01*
X137896571Y-51690000D01*
X137982285Y-51785238D01*
X138025142Y-51880476D01*
X138068000Y-52070952D01*
X138068000Y-52213809D01*
X138025142Y-52404285D01*
X137982285Y-52499523D01*
X137896571Y-52594761D01*
X137768000Y-52642380D01*
X137553714Y-52642380D01*
X135753714Y-59262380D02*
X136310857Y-59262380D01*
X136010857Y-59643333D01*
X136139428Y-59643333D01*
X136225142Y-59690952D01*
X136268000Y-59738571D01*
X136310857Y-59833809D01*
X136310857Y-60071904D01*
X136268000Y-60167142D01*
X136225142Y-60214761D01*
X136139428Y-60262380D01*
X135882285Y-60262380D01*
X135796571Y-60214761D01*
X135753714Y-60167142D01*
X136568000Y-59262380D02*
X136868000Y-60262380D01*
X137168000Y-59262380D01*
X137382285Y-59262380D02*
X137939428Y-59262380D01*
X137639428Y-59643333D01*
X137768000Y-59643333D01*
X137853714Y-59690952D01*
X137896571Y-59738571D01*
X137939428Y-59833809D01*
X137939428Y-60071904D01*
X137896571Y-60167142D01*
X137853714Y-60214761D01*
X137768000Y-60262380D01*
X137510857Y-60262380D01*
X137425142Y-60214761D01*
X137382285Y-60167142D01*
X135625142Y-57674761D02*
X135753714Y-57722380D01*
X135968000Y-57722380D01*
X136053714Y-57674761D01*
X136096571Y-57627142D01*
X136139428Y-57531904D01*
X136139428Y-57436666D01*
X136096571Y-57341428D01*
X136053714Y-57293809D01*
X135968000Y-57246190D01*
X135796571Y-57198571D01*
X135710857Y-57150952D01*
X135668000Y-57103333D01*
X135625142Y-57008095D01*
X135625142Y-56912857D01*
X135668000Y-56817619D01*
X135710857Y-56770000D01*
X135796571Y-56722380D01*
X136010857Y-56722380D01*
X136139428Y-56770000D01*
X136439428Y-56722380D02*
X136653714Y-57722380D01*
X136825142Y-57008095D01*
X136996571Y-57722380D01*
X137210857Y-56722380D01*
X137725142Y-56722380D02*
X137896571Y-56722380D01*
X137982285Y-56770000D01*
X138068000Y-56865238D01*
X138110857Y-57055714D01*
X138110857Y-57389047D01*
X138068000Y-57579523D01*
X137982285Y-57674761D01*
X137896571Y-57722380D01*
X137725142Y-57722380D01*
X137639428Y-57674761D01*
X137553714Y-57579523D01*
X137510857Y-57389047D01*
X137510857Y-57055714D01*
X137553714Y-56865238D01*
X137639428Y-56770000D01*
X137725142Y-56722380D01*
%TO.C,R16*%
X64357142Y-63452380D02*
X64023809Y-62976190D01*
X63785714Y-63452380D02*
X63785714Y-62452380D01*
X64166666Y-62452380D01*
X64261904Y-62500000D01*
X64309523Y-62547619D01*
X64357142Y-62642857D01*
X64357142Y-62785714D01*
X64309523Y-62880952D01*
X64261904Y-62928571D01*
X64166666Y-62976190D01*
X63785714Y-62976190D01*
X65309523Y-63452380D02*
X64738095Y-63452380D01*
X65023809Y-63452380D02*
X65023809Y-62452380D01*
X64928571Y-62595238D01*
X64833333Y-62690476D01*
X64738095Y-62738095D01*
X66166666Y-62452380D02*
X65976190Y-62452380D01*
X65880952Y-62500000D01*
X65833333Y-62547619D01*
X65738095Y-62690476D01*
X65690476Y-62880952D01*
X65690476Y-63261904D01*
X65738095Y-63357142D01*
X65785714Y-63404761D01*
X65880952Y-63452380D01*
X66071428Y-63452380D01*
X66166666Y-63404761D01*
X66214285Y-63357142D01*
X66261904Y-63261904D01*
X66261904Y-63023809D01*
X66214285Y-62928571D01*
X66166666Y-62880952D01*
X66071428Y-62833333D01*
X65880952Y-62833333D01*
X65785714Y-62880952D01*
X65738095Y-62928571D01*
X65690476Y-63023809D01*
%TO.C,U5*%
X119731904Y-76110119D02*
X119731904Y-75300595D01*
X119684285Y-75205357D01*
X119636666Y-75157738D01*
X119541428Y-75110119D01*
X119350952Y-75110119D01*
X119255714Y-75157738D01*
X119208095Y-75205357D01*
X119160476Y-75300595D01*
X119160476Y-76110119D01*
X118208095Y-76110119D02*
X118684285Y-76110119D01*
X118731904Y-75633928D01*
X118684285Y-75681547D01*
X118589047Y-75729166D01*
X118350952Y-75729166D01*
X118255714Y-75681547D01*
X118208095Y-75633928D01*
X118160476Y-75538690D01*
X118160476Y-75300595D01*
X118208095Y-75205357D01*
X118255714Y-75157738D01*
X118350952Y-75110119D01*
X118589047Y-75110119D01*
X118684285Y-75157738D01*
X118731904Y-75205357D01*
%TO.C,R24*%
X177719642Y-57502380D02*
X177386309Y-57026190D01*
X177148214Y-57502380D02*
X177148214Y-56502380D01*
X177529166Y-56502380D01*
X177624404Y-56550000D01*
X177672023Y-56597619D01*
X177719642Y-56692857D01*
X177719642Y-56835714D01*
X177672023Y-56930952D01*
X177624404Y-56978571D01*
X177529166Y-57026190D01*
X177148214Y-57026190D01*
X178100595Y-56597619D02*
X178148214Y-56550000D01*
X178243452Y-56502380D01*
X178481547Y-56502380D01*
X178576785Y-56550000D01*
X178624404Y-56597619D01*
X178672023Y-56692857D01*
X178672023Y-56788095D01*
X178624404Y-56930952D01*
X178052976Y-57502380D01*
X178672023Y-57502380D01*
X179529166Y-56835714D02*
X179529166Y-57502380D01*
X179291071Y-56454761D02*
X179052976Y-57169047D01*
X179672023Y-57169047D01*
%TO.C,R5*%
X64753333Y-51452380D02*
X64420000Y-50976190D01*
X64181904Y-51452380D02*
X64181904Y-50452380D01*
X64562857Y-50452380D01*
X64658095Y-50500000D01*
X64705714Y-50547619D01*
X64753333Y-50642857D01*
X64753333Y-50785714D01*
X64705714Y-50880952D01*
X64658095Y-50928571D01*
X64562857Y-50976190D01*
X64181904Y-50976190D01*
X65658095Y-50452380D02*
X65181904Y-50452380D01*
X65134285Y-50928571D01*
X65181904Y-50880952D01*
X65277142Y-50833333D01*
X65515238Y-50833333D01*
X65610476Y-50880952D01*
X65658095Y-50928571D01*
X65705714Y-51023809D01*
X65705714Y-51261904D01*
X65658095Y-51357142D01*
X65610476Y-51404761D01*
X65515238Y-51452380D01*
X65277142Y-51452380D01*
X65181904Y-51404761D01*
X65134285Y-51357142D01*
%TO.C,J2*%
X50122380Y-78333333D02*
X50836666Y-78333333D01*
X50979523Y-78380952D01*
X51074761Y-78476190D01*
X51122380Y-78619047D01*
X51122380Y-78714285D01*
X50217619Y-77904761D02*
X50170000Y-77857142D01*
X50122380Y-77761904D01*
X50122380Y-77523809D01*
X50170000Y-77428571D01*
X50217619Y-77380952D01*
X50312857Y-77333333D01*
X50408095Y-77333333D01*
X50550952Y-77380952D01*
X51122380Y-77952380D01*
X51122380Y-77333333D01*
D11*
%TO.C,C1*%
X149436252Y-94150000D02*
X148913748Y-94150000D01*
X149436252Y-92680000D02*
X148913748Y-92680000D01*
%TO.C,R11*%
X76270000Y-58370000D02*
X76270000Y-55630000D01*
X69730000Y-55630000D02*
X69730000Y-58370000D01*
X69730000Y-58370000D02*
X76270000Y-58370000D01*
X68960000Y-57000000D02*
X69730000Y-57000000D01*
X77040000Y-57000000D02*
X76270000Y-57000000D01*
X76270000Y-55630000D02*
X69730000Y-55630000D01*
%TO.C,R2*%
X77040000Y-48000000D02*
X76270000Y-48000000D01*
X76270000Y-46630000D02*
X69730000Y-46630000D01*
X68960000Y-48000000D02*
X69730000Y-48000000D01*
X69730000Y-49370000D02*
X76270000Y-49370000D01*
X69730000Y-46630000D02*
X69730000Y-49370000D01*
X76270000Y-49370000D02*
X76270000Y-46630000D01*
%TO.C,R13*%
X138860436Y-81592500D02*
X139314564Y-81592500D01*
X138860436Y-83062500D02*
X139314564Y-83062500D01*
%TO.C,R23*%
X158902064Y-84562500D02*
X158447936Y-84562500D01*
X158902064Y-83092500D02*
X158447936Y-83092500D01*
%TO.C,R10*%
X76270000Y-58630000D02*
X69730000Y-58630000D01*
X69730000Y-61370000D02*
X76270000Y-61370000D01*
X76270000Y-61370000D02*
X76270000Y-58630000D01*
X69730000Y-58630000D02*
X69730000Y-61370000D01*
X68960000Y-60000000D02*
X69730000Y-60000000D01*
X77040000Y-60000000D02*
X76270000Y-60000000D01*
%TO.C,R3*%
X76270000Y-43630000D02*
X69730000Y-43630000D01*
X77040000Y-45000000D02*
X76270000Y-45000000D01*
X69730000Y-43630000D02*
X69730000Y-46370000D01*
X69730000Y-46370000D02*
X76270000Y-46370000D01*
X76270000Y-46370000D02*
X76270000Y-43630000D01*
X68960000Y-45000000D02*
X69730000Y-45000000D01*
%TO.C,R9*%
X150135436Y-54315000D02*
X150589564Y-54315000D01*
X150135436Y-55785000D02*
X150589564Y-55785000D01*
%TO.C,R6*%
X139314564Y-85592500D02*
X138860436Y-85592500D01*
X139314564Y-87062500D02*
X138860436Y-87062500D01*
%TO.C,C2*%
X163211252Y-67285000D02*
X162688748Y-67285000D01*
X163211252Y-65815000D02*
X162688748Y-65815000D01*
%TO.C,J3*%
X48920000Y-51330000D02*
X47590000Y-51330000D01*
X47590000Y-51330000D02*
X47590000Y-50000000D01*
X57870000Y-51330000D02*
X57870000Y-48670000D01*
X50190000Y-51330000D02*
X50190000Y-48670000D01*
X50190000Y-48670000D02*
X57870000Y-48670000D01*
X50190000Y-51330000D02*
X57870000Y-51330000D01*
%TO.C,R7*%
X138860436Y-85062500D02*
X139314564Y-85062500D01*
X138860436Y-83592500D02*
X139314564Y-83592500D01*
%TO.C,R21*%
X174589564Y-53785000D02*
X174135436Y-53785000D01*
X174589564Y-52315000D02*
X174135436Y-52315000D01*
%TO.C,R15*%
X150135436Y-52315000D02*
X150589564Y-52315000D01*
X150135436Y-53785000D02*
X150589564Y-53785000D01*
%TO.C,D2*%
X87545000Y-88710000D02*
X84455000Y-88710000D01*
X84455170Y-88710000D02*
G75*
G03*
X86000462Y-94260000I1544830J-2560000D01*
G01*
X85999538Y-94260000D02*
G75*
G03*
X87544830Y-88710000I462J2990000D01*
G01*
X88500000Y-91270000D02*
G75*
G03*
X88500000Y-91270000I-2500000J0D01*
G01*
%TO.C,J5*%
X107885000Y-73330000D02*
X107885000Y-70670000D01*
X102745000Y-70670000D02*
X107885000Y-70670000D01*
X102745000Y-73330000D02*
X107885000Y-73330000D01*
X102745000Y-73330000D02*
X102745000Y-70670000D01*
X100145000Y-73330000D02*
X100145000Y-72000000D01*
X101475000Y-73330000D02*
X100145000Y-73330000D01*
%TO.C,U4*%
X163965000Y-63505000D02*
X165215000Y-63505000D01*
X165215000Y-45605000D02*
X160715000Y-45605000D01*
X160715000Y-63505000D02*
X161965000Y-63505000D01*
X165215000Y-63505000D02*
X165215000Y-45605000D01*
X160715000Y-45605000D02*
X160715000Y-63505000D01*
X163965000Y-63505000D02*
G75*
G03*
X161965000Y-63505000I-1000000J0D01*
G01*
%TO.C,R12*%
X139314564Y-79592500D02*
X138860436Y-79592500D01*
X139314564Y-81062500D02*
X138860436Y-81062500D01*
%TO.C,D1*%
X52530000Y-88940000D02*
X55470000Y-88940000D01*
X52530000Y-89720000D02*
X55470000Y-89720000D01*
X55470000Y-84280000D02*
X52530000Y-84280000D01*
X54000000Y-83260000D02*
X54000000Y-84280000D01*
X52530000Y-88820000D02*
X55470000Y-88820000D01*
X54000000Y-90740000D02*
X54000000Y-89720000D01*
X52530000Y-84280000D02*
X52530000Y-89720000D01*
X55470000Y-89720000D02*
X55470000Y-84280000D01*
X52530000Y-88700000D02*
X55470000Y-88700000D01*
%TO.C,U3*%
X150190000Y-91870000D02*
X151440000Y-91870000D01*
X151440000Y-91870000D02*
X151440000Y-73970000D01*
X146940000Y-91870000D02*
X148190000Y-91870000D01*
X151440000Y-73970000D02*
X146940000Y-73970000D01*
X146940000Y-73970000D02*
X146940000Y-91870000D01*
X150190000Y-91870000D02*
G75*
G03*
X148190000Y-91870000I-1000000J0D01*
G01*
%TO.C,R19*%
X158902064Y-82562500D02*
X158447936Y-82562500D01*
X158902064Y-81092500D02*
X158447936Y-81092500D01*
%TO.C,R25*%
X174589564Y-55785000D02*
X174135436Y-55785000D01*
X174589564Y-54315000D02*
X174135436Y-54315000D01*
%TO.C,J6*%
X88950000Y-73330000D02*
X87620000Y-73330000D01*
X90220000Y-73330000D02*
X97900000Y-73330000D01*
X87620000Y-73330000D02*
X87620000Y-72000000D01*
X97900000Y-73330000D02*
X97900000Y-70670000D01*
X90220000Y-70670000D02*
X97900000Y-70670000D01*
X90220000Y-73330000D02*
X90220000Y-70670000D01*
%TO.C,R20*%
X174135436Y-51785000D02*
X174589564Y-51785000D01*
X174135436Y-50315000D02*
X174589564Y-50315000D01*
%TO.C,R1*%
X86735000Y-83314564D02*
X86735000Y-82860436D01*
X85265000Y-83314564D02*
X85265000Y-82860436D01*
D12*
%TO.C,U2*%
X58000000Y-94000000D02*
X80000000Y-94000000D01*
X80000000Y-77000000D02*
X80000000Y-94000000D01*
D13*
X71970000Y-85110000D02*
X70700000Y-86380000D01*
D12*
X58000000Y-94000000D02*
X58000000Y-77000000D01*
D13*
X71970000Y-85110000D02*
X70700000Y-83840000D01*
X65620000Y-85110000D02*
X71970000Y-85110000D01*
D12*
X58000000Y-77000000D02*
X80000000Y-77000000D01*
D11*
%TO.C,R22*%
X158447936Y-85092500D02*
X158902064Y-85092500D01*
X158447936Y-86562500D02*
X158902064Y-86562500D01*
%TO.C,J4*%
X113190000Y-73330000D02*
X113190000Y-70670000D01*
X110590000Y-73330000D02*
X110590000Y-72000000D01*
X120870000Y-73330000D02*
X120870000Y-70670000D01*
X113190000Y-73330000D02*
X120870000Y-73330000D01*
X113190000Y-70670000D02*
X120870000Y-70670000D01*
X111920000Y-73330000D02*
X110590000Y-73330000D01*
%TO.C,R18*%
X158447936Y-80562500D02*
X158902064Y-80562500D01*
X158447936Y-79092500D02*
X158902064Y-79092500D01*
%TO.C,R4*%
X69730000Y-55370000D02*
X76270000Y-55370000D01*
X76270000Y-52630000D02*
X69730000Y-52630000D01*
X69730000Y-52630000D02*
X69730000Y-55370000D01*
X77040000Y-54000000D02*
X76270000Y-54000000D01*
X68960000Y-54000000D02*
X69730000Y-54000000D01*
X76270000Y-55370000D02*
X76270000Y-52630000D01*
%TO.C,R17*%
X68960000Y-66000000D02*
X69730000Y-66000000D01*
X76270000Y-64630000D02*
X69730000Y-64630000D01*
X77040000Y-66000000D02*
X76270000Y-66000000D01*
X76270000Y-67370000D02*
X76270000Y-64630000D01*
X69730000Y-67370000D02*
X76270000Y-67370000D01*
X69730000Y-64630000D02*
X69730000Y-67370000D01*
D12*
%TO.C,J1*%
X42050000Y-102400000D02*
X42050000Y-41600000D01*
X24200000Y-102400000D02*
X24200000Y-41600000D01*
X42050000Y-41600000D02*
X24200000Y-41600000D01*
X24200000Y-102400000D02*
X42050000Y-102400000D01*
D14*
X42800000Y-58000000D02*
G75*
G03*
X42800000Y-58000000I-100000J0D01*
G01*
D11*
%TO.C,R8*%
X150589564Y-56315000D02*
X150135436Y-56315000D01*
X150589564Y-57785000D02*
X150135436Y-57785000D01*
%TO.C,R14*%
X150589564Y-51785000D02*
X150135436Y-51785000D01*
X150589564Y-50315000D02*
X150135436Y-50315000D01*
%TO.C,U1*%
X100860000Y-51290000D02*
X100460000Y-51290000D01*
X109558778Y-53461339D02*
X109346646Y-53673471D01*
X114811999Y-57826694D02*
X114907187Y-57731507D01*
X96431801Y-54781802D02*
X97068198Y-54781802D01*
X111820394Y-57201177D02*
X111908782Y-57112788D01*
X114631859Y-56759962D02*
X114610682Y-56727895D01*
X116629846Y-59118194D02*
X115922739Y-58411087D01*
X114080244Y-57012391D02*
X114094603Y-56947430D01*
X112881054Y-54835088D02*
X112976241Y-54930276D01*
X114243531Y-57095047D02*
X114277552Y-57117419D01*
X112170832Y-58288729D02*
X112107762Y-58301038D01*
X113493080Y-59337476D02*
X113488084Y-59265003D01*
X113105568Y-56077824D02*
X113088639Y-55919333D01*
X114006916Y-56359742D02*
X114011770Y-56420041D01*
X112716707Y-58981373D02*
X112617907Y-58882574D01*
X112375052Y-58639718D02*
X112277209Y-58541875D01*
X102148198Y-54781802D02*
X102148198Y-55418199D01*
X114357840Y-57255463D02*
X114233010Y-57247224D01*
X125522809Y-59792282D02*
X125522809Y-51992282D01*
X119867588Y-52812050D02*
X119867588Y-59112050D01*
X114016296Y-56330861D02*
X114006916Y-56359742D01*
X115043169Y-56997203D02*
X115138356Y-57092391D01*
X140075000Y-67375000D02*
X86925000Y-67375000D01*
X111680099Y-51340019D02*
X112387205Y-52047126D01*
X103100000Y-51590000D02*
X102800000Y-51290000D01*
X138900000Y-49650000D02*
X88100000Y-49650000D01*
X113215031Y-55637392D02*
X113115729Y-55640888D01*
X111729758Y-57754449D02*
X111799996Y-57711109D01*
X115357054Y-51340019D02*
X115569186Y-51552151D01*
X113119023Y-59193314D02*
X113214210Y-59288501D01*
X87650000Y-59450012D02*
X87645785Y-59450012D01*
X100460000Y-56370000D02*
X95580000Y-56370000D01*
X96072277Y-58512467D02*
X96172277Y-58612467D01*
X113841006Y-56559794D02*
X113821667Y-56573322D01*
X98971801Y-52241802D02*
X99608198Y-52241802D01*
X116276293Y-52259258D02*
X115569186Y-52966365D01*
X114034246Y-56306351D02*
X114016296Y-56330861D01*
X112019692Y-55061584D02*
X111978154Y-54934632D01*
X87650000Y-52800000D02*
X87649936Y-52803590D01*
X108639539Y-57350427D02*
X108851671Y-57562559D01*
X116417714Y-59330326D02*
X115710607Y-58623219D01*
X109205225Y-53814893D02*
X108993093Y-54027025D01*
X108285986Y-56996873D02*
X108993093Y-56289767D01*
X125622809Y-59892282D02*
X128922809Y-59892282D01*
X117831928Y-53814893D02*
X117124821Y-54522000D01*
X111114413Y-59825300D02*
X111326545Y-60037432D01*
X111631400Y-57732888D02*
X111677327Y-57757702D01*
X96684503Y-56371000D02*
X96729375Y-56371000D01*
X114649947Y-50632912D02*
X113942840Y-51340019D01*
X112033652Y-50986466D02*
X111821520Y-51198598D01*
X113073979Y-58277985D02*
X112848652Y-58722582D01*
X135150000Y-50860000D02*
X132490000Y-50860000D01*
X117831928Y-57916112D02*
X117124821Y-57209005D01*
X114772241Y-56743974D02*
X114777266Y-56809406D01*
X124392588Y-52812050D02*
X124392588Y-59112050D01*
X114242563Y-56948611D02*
X114217809Y-57022911D01*
X110760860Y-59471747D02*
X111467967Y-58764640D01*
X111799996Y-57711109D02*
X111895184Y-57806297D01*
X118397613Y-57350427D02*
X117690506Y-56643320D01*
X114481107Y-57199199D02*
X114357840Y-57255463D01*
X95479000Y-54288528D02*
X95479000Y-54477631D01*
X115922739Y-51905704D02*
X115215632Y-52612811D01*
X112122287Y-58019778D02*
X112075506Y-58014863D01*
X113492121Y-59494259D02*
X113496692Y-59477920D01*
X115070365Y-58085060D02*
X114811999Y-57826694D01*
X101072277Y-57762467D02*
X95272277Y-57762467D01*
X87143395Y-53150000D02*
X87143395Y-58850000D01*
X110053753Y-52966365D02*
X110760860Y-53673471D01*
X111680099Y-51340019D02*
X111467967Y-51552151D01*
X114746557Y-56683582D02*
X114772241Y-56743974D01*
X114763761Y-56873729D02*
X114700602Y-56988685D01*
X112387205Y-50632912D02*
X113094312Y-51340019D01*
X114638209Y-56797879D02*
X114631859Y-56759962D01*
X115104361Y-57534333D02*
X115267539Y-57697511D01*
X112218751Y-57821549D02*
X112223606Y-57881848D01*
X110972992Y-52047126D02*
X111680099Y-52754233D01*
X100922277Y-60512467D02*
X100272277Y-60512467D01*
X96672277Y-60412467D02*
X96672277Y-58612467D01*
X116983399Y-58764640D02*
X116276293Y-58057533D01*
X114659976Y-57674670D02*
X114512839Y-57527534D01*
X117336953Y-58411087D02*
X116629846Y-57703980D01*
X110265885Y-52754233D02*
X110053753Y-52966365D01*
X112848652Y-58722582D02*
X113240132Y-58444138D01*
X114222479Y-57061944D02*
X114243531Y-57095047D01*
X112976241Y-54930276D02*
X112541099Y-55365419D01*
X113492121Y-59494259D02*
X113496692Y-59477920D01*
X125522809Y-59792282D02*
X125522811Y-59792900D01*
X116771267Y-58976772D02*
X116064161Y-58269666D01*
X114150680Y-57192571D02*
X114109572Y-57140267D01*
X86925000Y-67375000D02*
X86925000Y-44625000D01*
X113493080Y-59337476D02*
X113488084Y-59265003D01*
X114277552Y-57117419D02*
X114317725Y-57123953D01*
X114649947Y-50632912D02*
X114862079Y-50845044D01*
X101172277Y-61162467D02*
X101172277Y-57862467D01*
X116771267Y-52754233D02*
X116983399Y-52966365D01*
X113554165Y-58758171D02*
X113119023Y-59193314D01*
X114705445Y-56632283D02*
X114746557Y-56683582D01*
X114393989Y-57096153D02*
X114519107Y-56990936D01*
X114243531Y-57095047D02*
X114277552Y-57117419D01*
X113093372Y-55733505D02*
X113050075Y-55794718D01*
X129022809Y-59792282D02*
X129022809Y-51992282D01*
X112007095Y-58280541D02*
X111941290Y-58233153D01*
X109912332Y-58623219D02*
X110619438Y-57916112D01*
X112289532Y-57983073D02*
X112201144Y-58071462D01*
X111889978Y-57524665D02*
X111738478Y-57539950D01*
X113441449Y-55570773D02*
X113639237Y-55604488D01*
X87000000Y-52147388D02*
X87162892Y-51962513D01*
X113115729Y-55640888D02*
X113093372Y-55733505D01*
X113246234Y-56064997D02*
X113308229Y-56159745D01*
X112387205Y-50632912D02*
X112175073Y-50845044D01*
X114763761Y-56873729D02*
X114700602Y-56988685D01*
X113244275Y-59367222D02*
X113380576Y-59373278D01*
X113910451Y-56557971D02*
X113863670Y-56553056D01*
X98971801Y-52878199D02*
X98971801Y-52241802D01*
X113989308Y-56609655D02*
X113910451Y-56557971D01*
X116417714Y-52400679D02*
X116629846Y-52612811D01*
X110619438Y-52400679D02*
X110407306Y-52612811D01*
X112497483Y-54902341D02*
X112419140Y-54931551D01*
X88100000Y-49650000D02*
X88100000Y-47110000D01*
X117124821Y-53107786D02*
X116417714Y-53814893D01*
X114109572Y-57140267D02*
X114084728Y-57078652D01*
X114592564Y-56565874D02*
X114653696Y-56590965D01*
X113496692Y-59477920D02*
X113496718Y-59399245D01*
X113568576Y-50965755D02*
X118418324Y-55815502D01*
X112201144Y-58071462D02*
X112122287Y-58019778D01*
X113783210Y-59286377D02*
X113793743Y-59195815D01*
X112241938Y-58248239D02*
X112170832Y-58288729D01*
X114705445Y-56632283D02*
X114746557Y-56683582D01*
X87650000Y-52549989D02*
X87645785Y-52549989D01*
X113841006Y-56559794D02*
X113821667Y-56573322D01*
X111908782Y-57112788D02*
X112262336Y-57466342D01*
X108851671Y-57562559D02*
X109558778Y-56855452D01*
X113488084Y-59265003D02*
X113485962Y-59207974D01*
X114777266Y-56809406D02*
X114763761Y-56873729D01*
X109346646Y-53673471D02*
X110053753Y-54380578D01*
X111467967Y-60178854D02*
X112175073Y-59471747D01*
X87204789Y-52900000D02*
X87550000Y-52900000D01*
X112617907Y-58882574D02*
X112866818Y-58391657D01*
X114217809Y-57022911D02*
X114222479Y-57061944D01*
X135150000Y-61140000D02*
X135150000Y-50860000D01*
X115215632Y-60532407D02*
X114508526Y-59825300D01*
X114011770Y-56420041D02*
X114077696Y-56521266D01*
X100560000Y-51390000D02*
X100560000Y-53730000D01*
X114746557Y-56683582D02*
X114772241Y-56743974D01*
X124817588Y-59112050D02*
X124817588Y-52812050D01*
X109558778Y-53461339D02*
X110265885Y-54168446D01*
X129022804Y-51991334D02*
X129022809Y-51992282D01*
X115505508Y-57459542D02*
X115600695Y-57554730D01*
X111467967Y-60178854D02*
X111680099Y-60390986D01*
X132490000Y-50860000D02*
X132490000Y-61140000D01*
X92660000Y-52549989D02*
X92660000Y-59450012D01*
X116983399Y-52966365D02*
X116276293Y-53673471D01*
X109558778Y-58269666D02*
X110265885Y-57562559D01*
X118044060Y-57703980D02*
X117831928Y-57916112D01*
X125622809Y-51892282D02*
X125622190Y-51892283D01*
X118185481Y-54168446D02*
X118397613Y-54380578D01*
X114247886Y-56731826D02*
X114347084Y-56643780D01*
X95580000Y-51290000D02*
X100460000Y-51290000D01*
X117831928Y-53814893D02*
X118044060Y-54027025D01*
X108618829Y-55815502D02*
X108618829Y-55915502D01*
X87315241Y-52425143D02*
X87000000Y-52147388D01*
X101511801Y-52878199D02*
X101511801Y-52241802D01*
X114242563Y-56948611D02*
X114217809Y-57022911D01*
X111680099Y-60390986D02*
X112387205Y-59683879D01*
X112228131Y-57792668D02*
X112218751Y-57821549D01*
X110760860Y-52259258D02*
X111467967Y-52966365D01*
X111326545Y-60037432D02*
X112033652Y-59330326D01*
X113895926Y-56839231D02*
X113795259Y-56818734D01*
X110407306Y-59118194D02*
X110619438Y-59330326D01*
X114526539Y-56563116D02*
X114592564Y-56565874D01*
X114217809Y-57022911D02*
X114222479Y-57061944D01*
X114247886Y-56731826D02*
X114347084Y-56643780D01*
X101511801Y-55418199D02*
X101511801Y-54781802D01*
X113488084Y-59265003D02*
X113485962Y-59207974D01*
X96431801Y-55418199D02*
X96431801Y-54781802D01*
X100272277Y-58512467D02*
X100922277Y-58512467D01*
X112107762Y-58301038D02*
X112007095Y-58280541D01*
X112214104Y-57514573D02*
X111889978Y-57524665D01*
X87204789Y-59100000D02*
X87550000Y-59100000D01*
X113568576Y-60765250D02*
X113468576Y-60765250D01*
X116276293Y-59471747D02*
X115569186Y-58764640D01*
X96150000Y-53160000D02*
X96150000Y-51960000D01*
X112262336Y-57466342D02*
X112214104Y-57514573D01*
X114317725Y-57123953D02*
X114393989Y-57096153D01*
X114462190Y-56578767D02*
X114526539Y-56563116D01*
X111114413Y-59825300D02*
X111821520Y-59118194D01*
X99608198Y-52241802D02*
X99608198Y-52878199D01*
X96150000Y-55700000D02*
X96150000Y-54500000D01*
X114006916Y-56359742D02*
X114011770Y-56420041D01*
X111821520Y-60532407D02*
X112033652Y-60744539D01*
X112387205Y-61098093D02*
X113094312Y-60390986D01*
X112241938Y-58248239D02*
X112170832Y-58288729D01*
X116276293Y-59471747D02*
X116064161Y-59683879D01*
X113496692Y-59477920D02*
X113496718Y-59399245D01*
X113989308Y-56609655D02*
X113910451Y-56557971D01*
X102800000Y-51290000D02*
X100860000Y-51290000D01*
X87650000Y-59200000D02*
X87649936Y-59196411D01*
X114109572Y-57140267D02*
X114084728Y-57078652D01*
X108851671Y-54168446D02*
X109558778Y-54875553D01*
X115009173Y-57629520D02*
X115104361Y-57534333D01*
X113246234Y-56064997D02*
X113308229Y-56159745D01*
X118397613Y-57350427D02*
X118185481Y-57562559D01*
X117124821Y-53107786D02*
X117336953Y-53319918D01*
X112107762Y-58301038D02*
X112007095Y-58280541D01*
X114030102Y-56786431D02*
X113958996Y-56826921D01*
X108639539Y-54380578D02*
X109346646Y-55087685D01*
X112075506Y-58014863D02*
X112052842Y-58021601D01*
X114222479Y-57061944D02*
X114243531Y-57095047D01*
X115003500Y-50986466D02*
X115215632Y-51198598D01*
X126431767Y-59599226D02*
X126431767Y-59785812D01*
X111677327Y-57757702D02*
X111729758Y-57754449D01*
X118044060Y-54027025D02*
X117336953Y-54734132D01*
X114233010Y-57247224D02*
X114150680Y-57192571D01*
X112246081Y-57768158D02*
X112228131Y-57792668D01*
X111677327Y-57757702D02*
X111729758Y-57754449D01*
X112033652Y-50986466D02*
X112740759Y-51693572D01*
X112586037Y-54844543D02*
X112497483Y-54902341D01*
X112052842Y-58021601D02*
X112033503Y-58035129D01*
X112535893Y-58409823D02*
X112981128Y-58185134D01*
X112218751Y-57821549D02*
X112223606Y-57881848D01*
X113863670Y-56553056D02*
X113841006Y-56559794D01*
X112146751Y-58153051D02*
X112241938Y-58248239D01*
X95172378Y-57857983D02*
X95172277Y-57862467D01*
X87315241Y-59574858D02*
X87000000Y-59852613D01*
X109346646Y-58057533D02*
X110053753Y-57350427D01*
X114077696Y-56521266D02*
X113989308Y-56609655D01*
X126831767Y-59199226D02*
X127713851Y-59199226D01*
X114700602Y-56988685D02*
X114613232Y-57087185D01*
X118751166Y-56996873D02*
X118539034Y-57209005D01*
X113468576Y-50965755D02*
X108618829Y-55815502D01*
X111326545Y-51693572D02*
X112033652Y-52400679D01*
X115357054Y-60390986D02*
X114649947Y-59683879D01*
X113568576Y-60765250D02*
X118418324Y-55915502D01*
X110972992Y-59683879D02*
X111680099Y-58976772D01*
X112636286Y-55460606D02*
X112541099Y-55555793D01*
X112507103Y-58037466D02*
X112411916Y-57942279D01*
X114631859Y-56759962D02*
X114610682Y-56727895D01*
X87000000Y-53150000D02*
X87000000Y-58850000D01*
X112052842Y-58021601D02*
X112033503Y-58035129D01*
X109912332Y-53107786D02*
X109700200Y-53319918D01*
X100860000Y-56370000D02*
X102800000Y-56370000D01*
X110265885Y-58976772D02*
X110972992Y-58269666D01*
X111729758Y-57754449D02*
X111799996Y-57711109D01*
X87143395Y-58850000D02*
X87000000Y-58850000D01*
X110619438Y-59330326D02*
X111326545Y-58623219D01*
X109205225Y-53814893D02*
X109912332Y-54522000D01*
X114150680Y-57192571D02*
X114109572Y-57140267D01*
X115267539Y-57697511D02*
X115505508Y-57459542D01*
X96072277Y-60512467D02*
X95422277Y-60512467D01*
X100560000Y-53930000D02*
X95491400Y-53930000D01*
X114613232Y-57087185D02*
X114481107Y-57199199D01*
X115070365Y-57894685D02*
X115172352Y-57792699D01*
X113225152Y-55922414D02*
X113246234Y-56064997D01*
X117690506Y-53673471D02*
X116983399Y-54380578D01*
X96150000Y-51960000D02*
X99890000Y-51960000D01*
X113639237Y-55604488D02*
X113768337Y-55695175D01*
X99890000Y-54500000D02*
X99890000Y-55700000D01*
X113336594Y-58540600D02*
X112716707Y-58981373D01*
X114277552Y-57117419D02*
X114317725Y-57123953D01*
X114696415Y-57534333D02*
X114805200Y-57643118D01*
X90640000Y-64950000D02*
X90640000Y-62290000D01*
X114094603Y-56947430D02*
X114159465Y-56831541D01*
X114317725Y-57123953D02*
X114393989Y-57096153D01*
X103100000Y-56070000D02*
X103100000Y-51590000D01*
X113958996Y-56826921D02*
X113895926Y-56839231D01*
X113105568Y-56077824D02*
X113088639Y-55919333D01*
X87162892Y-60037488D02*
X87479153Y-59758834D01*
X112717875Y-57921882D02*
X112814231Y-58018238D01*
X114862079Y-60885961D02*
X114649947Y-61098093D01*
X99608198Y-52878199D02*
X98971801Y-52878199D01*
X118397613Y-54380578D02*
X117690506Y-55087685D01*
X113215031Y-55637392D02*
X113115729Y-55640888D01*
X114084728Y-57078652D02*
X114080244Y-57012391D01*
X110265885Y-52754233D02*
X110972992Y-53461339D01*
X87650000Y-52310104D02*
X87650000Y-52800000D01*
X112175073Y-60885961D02*
X112387205Y-61098093D01*
X113485962Y-59207974D02*
X113504959Y-59101602D01*
X87641500Y-59696428D02*
X87649669Y-59691487D01*
X128113851Y-59785812D02*
X128113851Y-59599226D01*
X112246081Y-57768158D02*
X112228131Y-57792668D01*
X112277209Y-58541875D02*
X112717875Y-57921882D01*
X114592564Y-56565874D02*
X114653696Y-56590965D01*
X97068198Y-54781802D02*
X97068198Y-55418199D01*
X113784597Y-59161068D02*
X113764300Y-59131485D01*
X138900000Y-47110000D02*
X138900000Y-49650000D01*
X113240132Y-58444138D02*
X113336594Y-58540600D01*
X99608198Y-55418199D02*
X98971801Y-55418199D01*
X112175073Y-60885961D02*
X112882180Y-60178854D01*
X113793743Y-59195815D02*
X113784597Y-59161068D01*
X117336953Y-58411087D02*
X117124821Y-58623219D01*
X100560000Y-53930000D02*
X100560000Y-56270000D01*
X114347084Y-56643780D02*
X114462190Y-56578767D01*
X113480119Y-59512128D02*
X113492121Y-59494259D01*
X116417714Y-52400679D02*
X115710607Y-53107786D01*
X115710607Y-51693572D02*
X115922739Y-51905704D01*
X95480000Y-56270000D02*
X95480000Y-51390000D01*
X113639237Y-55604488D02*
X113768337Y-55695175D01*
X87143395Y-53150000D02*
X87000000Y-53150000D01*
X112928648Y-59002939D02*
X113023835Y-59098126D01*
X111738478Y-57539950D02*
X111632569Y-57592975D01*
X112833460Y-59098126D02*
X112928648Y-59002939D01*
X112981128Y-58185134D02*
X113073979Y-58277985D01*
X112586037Y-54844543D02*
X112497483Y-54902341D01*
X95172277Y-57862467D02*
X95172277Y-61162467D01*
X112825782Y-55437565D02*
X112899327Y-55424486D01*
X97068198Y-52878199D02*
X96431801Y-52878199D01*
X117690506Y-58057533D02*
X116983399Y-57350427D01*
X125512809Y-53392282D02*
X125512809Y-52892282D01*
X113324058Y-55575128D02*
X113215031Y-55637392D01*
X108618829Y-55915502D02*
X113468576Y-60765250D01*
X115138356Y-57092391D02*
X114696415Y-57534333D01*
X110619438Y-52400679D02*
X111326545Y-53107786D01*
X109700200Y-58411087D02*
X110407306Y-57703980D01*
X115215632Y-51198598D02*
X114508526Y-51905704D01*
X109205225Y-57916112D02*
X109912332Y-57209005D01*
X113504959Y-59101602D02*
X113552784Y-59031517D01*
X112497483Y-54902341D02*
X112419140Y-54931551D01*
X112541099Y-55365419D02*
X112636286Y-55460606D01*
X112825782Y-55437565D02*
X112899327Y-55424486D01*
X114805200Y-57643118D02*
X114659976Y-57674670D01*
X117336953Y-53319918D02*
X116629846Y-54027025D01*
X95322277Y-60412467D02*
X95322277Y-58612467D01*
X113119023Y-59383689D02*
X112833460Y-59098126D01*
X112541099Y-55555793D02*
X112255536Y-55270231D01*
X87644425Y-52303590D02*
X87641500Y-52303573D01*
X115600695Y-57554730D02*
X115070365Y-58085060D01*
X112223606Y-57881848D02*
X112289532Y-57983073D01*
X113324058Y-55575128D02*
X113215031Y-55637392D01*
X116629846Y-52612811D02*
X115922739Y-53319918D01*
X110053753Y-58764640D02*
X110760860Y-58057533D01*
X113795259Y-56818734D02*
X113729455Y-56771346D01*
X115569186Y-60178854D02*
X115357054Y-60390986D01*
X113784597Y-59161068D02*
X113764300Y-59131485D01*
X110407306Y-59118194D02*
X111114413Y-58411087D01*
X110760860Y-59471747D02*
X110972992Y-59683879D01*
X113496718Y-59399245D02*
X113493080Y-59337476D01*
X112814231Y-58018238D02*
X112535893Y-58409823D01*
X87644425Y-59696411D02*
X87641500Y-59696428D01*
X114862079Y-60885961D02*
X114154972Y-60178854D01*
X113225152Y-55922414D02*
X113246234Y-56064997D01*
X114159465Y-56831541D02*
X114247886Y-56731826D01*
X118418324Y-55915502D02*
X118418324Y-55815502D01*
X116983399Y-58764640D02*
X116771267Y-58976772D01*
X87550000Y-59459272D02*
X87550000Y-59714928D01*
X115003500Y-50986466D02*
X114296394Y-51693572D01*
X95491400Y-53730000D02*
X100560000Y-53730000D01*
X113115729Y-55640888D02*
X113093372Y-55733505D01*
X87350469Y-52127785D02*
X87187578Y-52312660D01*
X118539034Y-54522000D02*
X117831928Y-55229106D01*
X95872003Y-56371000D02*
X96061106Y-56371000D01*
X87550000Y-52540729D02*
X87550000Y-52285073D01*
X99890000Y-55700000D02*
X96150000Y-55700000D01*
X112745603Y-55487271D02*
X112825782Y-55437565D01*
X113209323Y-56251214D02*
X113105568Y-56077824D01*
X101511801Y-54781802D02*
X102148198Y-54781802D01*
X109700200Y-58411087D02*
X109912332Y-58623219D01*
X115569186Y-51552151D02*
X114862079Y-52259258D01*
X114233010Y-57247224D02*
X114150680Y-57192571D01*
X114862079Y-50845044D02*
X114154972Y-51552151D01*
X118185481Y-54168446D02*
X117478374Y-54875553D01*
X112170832Y-58288729D02*
X112107762Y-58301038D01*
X108851671Y-54168446D02*
X108639539Y-54380578D01*
X88040000Y-64950000D02*
X88040000Y-63620000D01*
X112255536Y-55270231D02*
X112350724Y-55175044D01*
X111114413Y-51905704D02*
X111821520Y-52612811D01*
X113441449Y-55570773D02*
X113639237Y-55604488D01*
X125512809Y-58392282D02*
X125512809Y-58892282D01*
X111978154Y-54934632D02*
X112252243Y-54845393D01*
X116064161Y-52047126D02*
X116276293Y-52259258D01*
X116771267Y-52754233D02*
X116064161Y-53461339D01*
X111998870Y-57379653D02*
X111820394Y-57201177D01*
X113895926Y-56839231D02*
X113795259Y-56818734D01*
X88100000Y-47110000D02*
X138900000Y-47110000D01*
X114907187Y-57731507D02*
X115070365Y-57894685D01*
X114034246Y-56306351D02*
X114016296Y-56330861D01*
X97068198Y-52241802D02*
X97068198Y-52878199D01*
X111326545Y-51693572D02*
X111114413Y-51905704D01*
X112445911Y-55270231D02*
X112881054Y-54835088D01*
X99890000Y-53160000D02*
X96150000Y-53160000D01*
X108498118Y-57209005D02*
X109205225Y-56501899D01*
X99572277Y-60512467D02*
X96772277Y-60512467D01*
X115710607Y-51693572D02*
X115003500Y-52400679D01*
X102800000Y-56370000D02*
X103100000Y-56070000D01*
X111467967Y-51552151D02*
X112175073Y-52259258D01*
X114159465Y-56831541D02*
X114247886Y-56731826D01*
X102148198Y-55418199D02*
X101511801Y-55418199D01*
X115569186Y-60178854D02*
X114862079Y-59471747D01*
X115922739Y-59825300D02*
X115215632Y-59118194D01*
X112228131Y-57792668D02*
X112218751Y-57821549D01*
X114011770Y-56420041D02*
X114077696Y-56521266D01*
X96431801Y-52878199D02*
X96431801Y-52241802D01*
X117124821Y-58623219D02*
X116417714Y-57916112D01*
X114638209Y-56797879D02*
X114631859Y-56759962D01*
X113917174Y-59319841D02*
X113783210Y-59286377D01*
X89370000Y-64950000D02*
X88040000Y-64950000D01*
X108285986Y-56996873D02*
X108498118Y-57209005D01*
X112745603Y-55487271D02*
X112825782Y-55437565D01*
X112175073Y-50845044D02*
X112882180Y-51552151D01*
X113480119Y-59512128D02*
X113492121Y-59494259D01*
X117478374Y-53461339D02*
X116771267Y-54168446D01*
X111631400Y-57732888D02*
X111677327Y-57757702D01*
X114613232Y-57087185D02*
X114481107Y-57199199D01*
X113958996Y-56826921D02*
X113895926Y-56839231D01*
X112007095Y-58280541D02*
X111941290Y-58233153D01*
X99890000Y-51960000D02*
X99890000Y-53160000D01*
X114512839Y-57527534D02*
X115043169Y-56997203D01*
X140075000Y-44625000D02*
X140075000Y-67375000D01*
X113504959Y-59101602D02*
X113552784Y-59031517D01*
X110407306Y-52612811D02*
X111114413Y-53319918D01*
X108639539Y-57350427D02*
X109346646Y-56643320D01*
X100460000Y-56370000D02*
X100860000Y-56370000D01*
X113088639Y-55919333D02*
X113225152Y-55922414D01*
X114357840Y-57255463D02*
X114233010Y-57247224D01*
X114649947Y-61098093D02*
X113942840Y-60390986D01*
X114700602Y-56988685D02*
X114613232Y-57087185D01*
X113795259Y-56818734D02*
X113729455Y-56771346D01*
X115357054Y-51340019D02*
X114649947Y-52047126D01*
X87650000Y-59689897D02*
X87650000Y-59200000D01*
X114516132Y-56706223D02*
X114412677Y-56764183D01*
X102148198Y-52241802D02*
X102148198Y-52878199D01*
X118044060Y-57703980D02*
X117336953Y-56996873D01*
X125622190Y-59892280D02*
X125622809Y-59892282D01*
X111738478Y-57539950D02*
X111632569Y-57592975D01*
X110972992Y-52047126D02*
X110760860Y-52259258D01*
X113023835Y-59098126D02*
X113458978Y-58662984D01*
X99672277Y-58612467D02*
X99672277Y-60412467D01*
X113863670Y-56553056D02*
X113841006Y-56559794D01*
X87644425Y-59696411D02*
X92650000Y-59696411D01*
X90640000Y-62290000D02*
X138960000Y-62290000D01*
X118539034Y-57209005D02*
X117831928Y-56501899D01*
X115172352Y-57792699D02*
X115009173Y-57629520D01*
X112122287Y-58019778D02*
X112075506Y-58014863D01*
X96150000Y-54500000D02*
X99890000Y-54500000D01*
X109346646Y-58057533D02*
X109558778Y-58269666D01*
X117478374Y-58269666D02*
X116771267Y-57562559D01*
X108285986Y-54734132D02*
X108993093Y-55441238D01*
X113910451Y-56557971D02*
X113863670Y-56553056D01*
X114347084Y-56643780D02*
X114462190Y-56578767D01*
X114526539Y-56563116D02*
X114592564Y-56565874D01*
X129022809Y-51992282D02*
X129022807Y-51991663D01*
X95272277Y-61262467D02*
X101072277Y-61262467D01*
X118185481Y-57562559D02*
X117478374Y-56855452D01*
X111821520Y-51198598D02*
X112528627Y-51905704D01*
X114084728Y-57078652D02*
X114080244Y-57012391D01*
X98971801Y-54781802D02*
X99608198Y-54781802D01*
X113783210Y-59286377D02*
X113793743Y-59195815D01*
X114777266Y-56809406D02*
X114763761Y-56873729D01*
X112033652Y-60744539D02*
X112740759Y-60037432D01*
X113468576Y-50965755D02*
X113568576Y-50965755D01*
X113438049Y-55709517D02*
X113441449Y-55570773D01*
X87649669Y-59691487D02*
X87650000Y-59689897D01*
X127913851Y-59808200D02*
X126631767Y-59808200D01*
X87000000Y-59852613D02*
X87162892Y-60037488D01*
X87485431Y-59100000D02*
X87485431Y-52900000D01*
X112866818Y-58391657D02*
X112375052Y-58639718D01*
X114080244Y-57012391D02*
X114094603Y-56947430D01*
X108498118Y-54522000D02*
X109205225Y-55229106D01*
X115922739Y-59825300D02*
X115710607Y-60037432D01*
X114094603Y-56947430D02*
X114159465Y-56831541D01*
X114462190Y-56578767D02*
X114526539Y-56563116D01*
X114016296Y-56330861D02*
X114006916Y-56359742D01*
X100172277Y-60412467D02*
X100172277Y-58612467D01*
X95422277Y-58512467D02*
X96072277Y-58512467D01*
X114653696Y-56590965D02*
X114705445Y-56632283D01*
X96172277Y-58612467D02*
X96172277Y-60412467D01*
X125622809Y-51892282D02*
X128922809Y-51892282D01*
X132490000Y-61140000D02*
X135150000Y-61140000D01*
X113214210Y-59288501D02*
X113119023Y-59383689D01*
X96431801Y-52241802D02*
X97068198Y-52241802D01*
X114519107Y-56990936D02*
X114616368Y-56871238D01*
X108993093Y-57703980D02*
X109700200Y-56996873D01*
X87644425Y-52303590D02*
X92650000Y-52303590D01*
X108498118Y-54522000D02*
X108285986Y-54734132D01*
X92650000Y-52303590D02*
X92650000Y-59696411D01*
X101511801Y-52241802D02*
X102148198Y-52241802D01*
X114412677Y-56764183D02*
X114343074Y-56827013D01*
X114516132Y-56706223D02*
X114412677Y-56764183D01*
X116629846Y-59118194D02*
X116417714Y-59330326D01*
X98971801Y-55418199D02*
X98971801Y-54781802D01*
X114412677Y-56764183D02*
X114343074Y-56827013D01*
X86925000Y-44625000D02*
X140075000Y-44625000D01*
X113485962Y-59207974D02*
X113504959Y-59101602D01*
X115215632Y-60532407D02*
X115003500Y-60744539D01*
X87649669Y-52308514D02*
X87650000Y-52310104D01*
X111889978Y-57524665D02*
X111738478Y-57539950D01*
X87628825Y-52861536D02*
X87628825Y-59138465D01*
X113209323Y-56251214D02*
X113105568Y-56077824D01*
X114393989Y-57096153D02*
X114519107Y-56990936D01*
X114343074Y-56827013D02*
X114242563Y-56948611D01*
X114616368Y-56871238D02*
X114638209Y-56797879D01*
X138960000Y-62290000D02*
X138960000Y-64950000D01*
X108993093Y-54027025D02*
X109700200Y-54734132D01*
X129022807Y-59792900D02*
X129022809Y-59792282D01*
X113458978Y-58662984D02*
X113554165Y-58758171D01*
X118539034Y-54522000D02*
X118751166Y-54734132D01*
X114030102Y-56786431D02*
X113958996Y-56826921D01*
X112075506Y-58014863D02*
X112052842Y-58021601D01*
X111880098Y-57387727D02*
X111998870Y-57379653D01*
X125522811Y-51991663D02*
X125522809Y-51992282D01*
X102148198Y-52878199D02*
X101511801Y-52878199D01*
X113934915Y-56691244D02*
X114030102Y-56786431D01*
X117690506Y-58057533D02*
X117478374Y-58269666D01*
X96772277Y-58512467D02*
X99572277Y-58512467D01*
X112350724Y-55175044D02*
X112445911Y-55270231D01*
X118751166Y-56996873D02*
X118044060Y-56289767D01*
X114481107Y-57199199D02*
X114357840Y-57255463D01*
X116064161Y-59683879D02*
X115357054Y-58976772D01*
X97068198Y-55418199D02*
X96431801Y-55418199D01*
X114343074Y-56827013D02*
X114242563Y-56948611D01*
X114653696Y-56590965D02*
X114705445Y-56632283D01*
X113093372Y-55733505D02*
X113050075Y-55794718D01*
X117478374Y-53461339D02*
X117690506Y-53673471D01*
X115710607Y-60037432D02*
X115003500Y-59330326D01*
X114295267Y-56575659D02*
X114200080Y-56480472D01*
X111821520Y-60532407D02*
X112528627Y-59825300D01*
X108993093Y-57703980D02*
X109205225Y-57916112D01*
X109912332Y-53107786D02*
X110619438Y-53814893D01*
X110053753Y-58764640D02*
X110265885Y-58976772D01*
X109700200Y-53319918D02*
X110407306Y-54027025D01*
X101022277Y-58612467D02*
X101022277Y-60412467D01*
X99608198Y-54781802D02*
X99608198Y-55418199D01*
X114519107Y-56990936D02*
X114616368Y-56871238D01*
X87162892Y-51962513D02*
X87479153Y-52241167D01*
X112223606Y-57881848D02*
X112289532Y-57983073D01*
X96601170Y-56371000D02*
X96635124Y-56371000D01*
X112419140Y-54931551D02*
X112019692Y-55061584D01*
X115003500Y-60744539D02*
X114296394Y-60037432D01*
X138960000Y-64950000D02*
X90640000Y-64950000D01*
X87649936Y-52803590D02*
X92660000Y-52803590D01*
X118751166Y-54734132D02*
X118044060Y-55441238D01*
X114616368Y-56871238D02*
X114638209Y-56797879D01*
X116064161Y-52047126D02*
X115357054Y-52754233D01*
X87649936Y-59196411D02*
X92660000Y-59196411D01*
X120292588Y-59112050D02*
X120292588Y-52812050D01*
X114772241Y-56743974D02*
X114777266Y-56809406D01*
X113793743Y-59195815D02*
X113784597Y-59161068D01*
X112201144Y-58071462D02*
X112122287Y-58019778D01*
X113496718Y-59399245D02*
X113493080Y-59337476D01*
X87641500Y-52303573D02*
X87649669Y-52308514D01*
X87350469Y-59872216D02*
X87187578Y-59687341D01*
X112494461Y-54611674D02*
G75*
G03*
X112350192Y-54618048I-69021J-73655D01*
G01*
X112260423Y-54517443D02*
G75*
G03*
X112252243Y-54845393I155517J-167956D01*
G01*
X113220265Y-55488546D02*
G75*
G03*
X113210491Y-55327705I-81904J75740D01*
G01*
X126831767Y-59199226D02*
G75*
G03*
X126431767Y-59599226I-1J-399999D01*
G01*
X114295586Y-56222424D02*
G75*
G03*
X113940015Y-56210208I-183652J-164639D01*
G01*
X96772277Y-58512467D02*
G75*
G03*
X96672277Y-58612467I-1J-99999D01*
G01*
X87649936Y-59196411D02*
G75*
G03*
X87550001Y-59100000I-99936J-3589D01*
G01*
X113917174Y-59319841D02*
G75*
G03*
X113862993Y-59039802I-229140J100928D01*
G01*
X112845252Y-55696769D02*
G75*
G03*
X112961688Y-55692732I56324J56650D01*
G01*
X112507103Y-58037466D02*
G75*
G03*
X112507421Y-57684231I-169331J176770D01*
G01*
X113940014Y-56210207D02*
G75*
G03*
X113902513Y-56444032I131856J-141067D01*
G01*
X113668688Y-56155177D02*
G75*
G03*
X113673574Y-55790787I-167591J184475D01*
G01*
X113308229Y-56159745D02*
G75*
G03*
X113668688Y-56155177I178020J176644D01*
G01*
X112963706Y-55214776D02*
G75*
G03*
X112899327Y-55424485I158925J-163525D01*
G01*
X113579873Y-59602747D02*
G75*
G03*
X113632355Y-59282977I-286038J211137D01*
G01*
X95272277Y-57762467D02*
G75*
G03*
X95172277Y-57862467I-1J-99999D01*
G01*
X112745603Y-55487271D02*
G75*
G03*
X112747727Y-55789619I144282J-150168D01*
G01*
X100460000Y-56370000D02*
G75*
G03*
X100560000Y-56270000I1J99999D01*
G01*
X99572277Y-60512467D02*
G75*
G03*
X99672277Y-60412467I1J99999D01*
G01*
X113052413Y-55316444D02*
G75*
G03*
X113059744Y-55476116I80880J-76291D01*
G01*
X113764088Y-56250152D02*
G75*
G03*
X113768337Y-55695175I-254874J279456D01*
G01*
X126431767Y-59785812D02*
G75*
G03*
X126631767Y-59808200I150624J441051D01*
G01*
X113304723Y-55231561D02*
G75*
G03*
X112963706Y-55214776I-178068J-145194D01*
G01*
X87143395Y-58850000D02*
G75*
G03*
X87348182Y-59100000I229889J-20562D01*
G01*
X95172277Y-61162467D02*
G75*
G03*
X95272277Y-61262467I99999J-1D01*
G01*
X114610682Y-56727895D02*
G75*
G03*
X114516132Y-56706224I-64731J-65325D01*
G01*
X113402460Y-59503948D02*
G75*
G03*
X113480119Y-59512128I42941J34944D01*
G01*
X100559999Y-51390000D02*
G75*
G03*
X100460000Y-51290001I-99999J0D01*
G01*
X114200079Y-56480471D02*
G75*
G03*
X114195193Y-56312407I-88347J81534D01*
G01*
X112407028Y-57774214D02*
G75*
G03*
X112246082Y-57768158I-83362J-73758D01*
G01*
X113825279Y-56676796D02*
G75*
G03*
X113934915Y-56691244I64505J66287D01*
G01*
X129022807Y-51991663D02*
G75*
G03*
X128923428Y-51892284I-99997J-618D01*
G01*
X125622190Y-51892283D02*
G75*
G03*
X125522810Y-51991663I620J-100000D01*
G01*
X112037115Y-58138603D02*
G75*
G03*
X112146751Y-58153051I64505J66287D01*
G01*
X113209323Y-56251214D02*
G75*
G03*
X113764087Y-56250151I276869J268400D01*
G01*
X100922277Y-60512467D02*
G75*
G03*
X101022277Y-60412467I1J99999D01*
G01*
X113673574Y-55790787D02*
G75*
G03*
X113438049Y-55709517I-203315J-207300D01*
G01*
X100172277Y-60412467D02*
G75*
G03*
X100272277Y-60512467I99999J-1D01*
G01*
X120292588Y-59112050D02*
G75*
G03*
X124392588Y-59112050I2050000J0D01*
G01*
X127913851Y-59808200D02*
G75*
G03*
X128113851Y-59785812I51402J445339D01*
G01*
X112151850Y-57672014D02*
G75*
G03*
X112114349Y-57905839I131856J-141067D01*
G01*
X125522811Y-59792900D02*
G75*
G03*
X125622189Y-59892280I99998J618D01*
G01*
X113324058Y-55575128D02*
G75*
G03*
X113304722Y-55231562I-156633J163512D01*
G01*
X112587843Y-54514681D02*
G75*
G03*
X112260423Y-54517442I-162357J-161813D01*
G01*
X111880098Y-57387727D02*
G75*
G03*
X111530688Y-57504480I-22649J-513440D01*
G01*
X114295267Y-56575659D02*
G75*
G03*
X114295586Y-56222425I-169330J176770D01*
G01*
X113306210Y-59598073D02*
G75*
G03*
X113579874Y-59602748I139125J131873D01*
G01*
X113821667Y-56573322D02*
G75*
G03*
X113825280Y-56676796I49925J-50057D01*
G01*
X87204789Y-52900001D02*
G75*
G03*
X87000001Y-53150000I25101J-229438D01*
G01*
X96072277Y-60512467D02*
G75*
G03*
X96172277Y-60412467I1J99999D01*
G01*
X113380576Y-59373278D02*
G75*
G03*
X113402461Y-59503948I127063J-45887D01*
G01*
X96672277Y-60412467D02*
G75*
G03*
X96772277Y-60512467I99999J-1D01*
G01*
X124392588Y-52812050D02*
G75*
G03*
X120292588Y-52812050I-2050000J0D01*
G01*
X113862992Y-59039804D02*
G75*
G03*
X113552785Y-59031517I-158956J-140091D01*
G01*
X95580000Y-51290000D02*
G75*
G03*
X95480000Y-51390000I-1J-99999D01*
G01*
X87645785Y-59450012D02*
G75*
G03*
X87315241Y-59574858I1J-500002D01*
G01*
X111530688Y-57504480D02*
G75*
G03*
X111530794Y-57822658I156067J-159037D01*
G01*
X111932260Y-57945997D02*
G75*
G03*
X111941290Y-58233154I145154J-139156D01*
G01*
X124817588Y-52812050D02*
G75*
G03*
X119867588Y-52812050I-2475000J0D01*
G01*
X113210492Y-55327705D02*
G75*
G03*
X113052413Y-55316443I-84119J-65668D01*
G01*
X99672277Y-58612467D02*
G75*
G03*
X99572277Y-58512467I-99999J1D01*
G01*
X113653496Y-59121180D02*
G75*
G03*
X113632355Y-59282977I182928J-106182D01*
G01*
X113902513Y-56444033D02*
G75*
G03*
X113720425Y-56484190I-59658J-162393D01*
G01*
X95480000Y-56270000D02*
G75*
G03*
X95580000Y-56370000I99999J-1D01*
G01*
X128923428Y-59892280D02*
G75*
G03*
X129022807Y-59792901I-618J99997D01*
G01*
X95322277Y-60412467D02*
G75*
G03*
X95422277Y-60512467I99999J-1D01*
G01*
X112411915Y-57942278D02*
G75*
G03*
X112407029Y-57774214I-88347J81534D01*
G01*
X112965830Y-55572579D02*
G75*
G03*
X112845359Y-55577891I-57756J-58880D01*
G01*
X113244275Y-59367222D02*
G75*
G03*
X113306211Y-59598073I253957J-55599D01*
G01*
X112486175Y-54754030D02*
G75*
G03*
X112494461Y-54611674I-66643J75298D01*
G01*
X112747728Y-55789619D02*
G75*
G03*
X113050076Y-55794718I153550J138328D01*
G01*
X112114349Y-57905840D02*
G75*
G03*
X111932261Y-57945997I-59658J-162393D01*
G01*
X128113851Y-59599226D02*
G75*
G03*
X127713851Y-59199226I-399999J1D01*
G01*
X112845359Y-55577891D02*
G75*
G03*
X112845253Y-55696769I54050J-59487D01*
G01*
X87315241Y-52425143D02*
G75*
G03*
X87645785Y-52549989I330545J375156D01*
G01*
X112350193Y-54618048D02*
G75*
G03*
X112345200Y-54761573I65501J-74128D01*
G01*
X87348183Y-52900001D02*
G75*
G03*
X87143395Y-53150000I25101J-229438D01*
G01*
X112961687Y-55692732D02*
G75*
G03*
X112965831Y-55572579I-55435J62060D01*
G01*
X113764300Y-59131485D02*
G75*
G03*
X113653497Y-59121180I-60610J-50852D01*
G01*
X114195192Y-56312406D02*
G75*
G03*
X114034245Y-56306351I-83362J-73761D01*
G01*
X87479153Y-52241167D02*
G75*
G03*
X87641500Y-52303573I165268J187566D01*
G01*
X119867588Y-59112050D02*
G75*
G03*
X124817588Y-59112050I2475000J0D01*
G01*
X112586037Y-54844543D02*
G75*
G03*
X112587843Y-54514680I-163779J165833D01*
G01*
X101022277Y-58612467D02*
G75*
G03*
X100922277Y-58512467I-99999J1D01*
G01*
X100272277Y-58512467D02*
G75*
G03*
X100172277Y-58612467I-1J-99999D01*
G01*
X112033503Y-58035129D02*
G75*
G03*
X112037116Y-58138603I49925J-50057D01*
G01*
X111530794Y-57822657D02*
G75*
G03*
X111895184Y-57806297I174515J179234D01*
G01*
X113720425Y-56484190D02*
G75*
G03*
X113729455Y-56771345I145151J-139155D01*
G01*
X95422277Y-58512467D02*
G75*
G03*
X95322277Y-58612467I-1J-99999D01*
G01*
X113059743Y-55476116D02*
G75*
G03*
X113220265Y-55488546I86397J73027D01*
G01*
X111632569Y-57592975D02*
G75*
G03*
X111631400Y-57732887I64281J-70498D01*
G01*
X87550000Y-52900001D02*
G75*
G03*
X87649937Y-52803590I1J100000D01*
G01*
X87000000Y-58850000D02*
G75*
G03*
X87204788Y-59100001I229889J-20563D01*
G01*
X101072277Y-61262467D02*
G75*
G03*
X101172277Y-61162467I1J99999D01*
G01*
X112345201Y-54761572D02*
G75*
G03*
X112486174Y-54754029I66820J72283D01*
G01*
X112507421Y-57684232D02*
G75*
G03*
X112151851Y-57672014I-183652J-164638D01*
G01*
X87641500Y-59696428D02*
G75*
G03*
X87479153Y-59758834I2929J-249992D01*
G01*
X101172277Y-57862467D02*
G75*
G03*
X101072277Y-57762467I-99999J1D01*
G01*
X127698685Y-52840855D02*
G75*
G03*
X127698685Y-52840855I-425876J0D01*
G01*
X117768576Y-55865502D02*
G75*
G03*
X117768576Y-55865502I-250000J0D01*
G01*
D15*
X133665060Y-54976380D02*
X134173060Y-54976380D01*
X134173060Y-54976380D02*
X134173060Y-54468380D01*
X134173060Y-54468380D02*
X133665060Y-54468380D01*
X133665060Y-54468380D02*
X133665060Y-54976380D01*
G36*
X134173060Y-54976380D02*
G01*
X133665060Y-54976380D01*
X133665060Y-54468380D01*
X134173060Y-54468380D01*
X134173060Y-54976380D01*
G37*
X134173060Y-54976380D02*
X133665060Y-54976380D01*
X133665060Y-54468380D01*
X134173060Y-54468380D01*
X134173060Y-54976380D01*
X133665060Y-52436380D02*
X134173060Y-52436380D01*
X134173060Y-52436380D02*
X134173060Y-51928380D01*
X134173060Y-51928380D02*
X133665060Y-51928380D01*
X133665060Y-51928380D02*
X133665060Y-52436380D01*
G36*
X134173060Y-52436380D02*
G01*
X133665060Y-52436380D01*
X133665060Y-51928380D01*
X134173060Y-51928380D01*
X134173060Y-52436380D01*
G37*
X134173060Y-52436380D02*
X133665060Y-52436380D01*
X133665060Y-51928380D01*
X134173060Y-51928380D01*
X134173060Y-52436380D01*
X133665060Y-57516380D02*
X134173060Y-57516380D01*
X134173060Y-57516380D02*
X134173060Y-57008380D01*
X134173060Y-57008380D02*
X133665060Y-57008380D01*
X133665060Y-57008380D02*
X133665060Y-57516380D01*
G36*
X134173060Y-57516380D02*
G01*
X133665060Y-57516380D01*
X133665060Y-57008380D01*
X134173060Y-57008380D01*
X134173060Y-57516380D01*
G37*
X134173060Y-57516380D02*
X133665060Y-57516380D01*
X133665060Y-57008380D01*
X134173060Y-57008380D01*
X134173060Y-57516380D01*
X133665060Y-60056380D02*
X134173060Y-60056380D01*
X134173060Y-60056380D02*
X134173060Y-59548380D01*
X134173060Y-59548380D02*
X133665060Y-59548380D01*
X133665060Y-59548380D02*
X133665060Y-60056380D01*
G36*
X134173060Y-60056380D02*
G01*
X133665060Y-60056380D01*
X133665060Y-59548380D01*
X134173060Y-59548380D01*
X134173060Y-60056380D01*
G37*
X134173060Y-60056380D02*
X133665060Y-60056380D01*
X133665060Y-59548380D01*
X134173060Y-59548380D01*
X134173060Y-60056380D01*
D11*
%TO.C,R16*%
X69730000Y-64370000D02*
X76270000Y-64370000D01*
X76270000Y-61630000D02*
X69730000Y-61630000D01*
X69730000Y-61630000D02*
X69730000Y-64370000D01*
X76270000Y-64370000D02*
X76270000Y-61630000D01*
X77040000Y-63000000D02*
X76270000Y-63000000D01*
X68960000Y-63000000D02*
X69730000Y-63000000D01*
%TO.C,U5*%
X118970000Y-75062500D02*
X94840000Y-75062500D01*
X94840000Y-75062500D02*
X94840000Y-87127500D01*
X94840000Y-87127500D02*
X118970000Y-87127500D01*
X118970000Y-87127500D02*
X118970000Y-75062500D01*
%TO.C,R24*%
X174135436Y-56315000D02*
X174589564Y-56315000D01*
X174135436Y-57785000D02*
X174589564Y-57785000D01*
%TO.C,R5*%
X76270000Y-52370000D02*
X76270000Y-49630000D01*
X68960000Y-51000000D02*
X69730000Y-51000000D01*
X76270000Y-49630000D02*
X69730000Y-49630000D01*
X77040000Y-51000000D02*
X76270000Y-51000000D01*
X69730000Y-49630000D02*
X69730000Y-52370000D01*
X69730000Y-52370000D02*
X76270000Y-52370000D01*
%TO.C,J2*%
X56870000Y-79330000D02*
X56870000Y-76670000D01*
X53000000Y-79330000D02*
X51670000Y-79330000D01*
X51670000Y-79330000D02*
X51670000Y-78000000D01*
X54270000Y-76670000D02*
X56870000Y-76670000D01*
X54270000Y-79330000D02*
X56870000Y-79330000D01*
X54270000Y-79330000D02*
X54270000Y-76670000D01*
%TD*%
M02*
