%TF.GenerationSoftware,KiCad,Pcbnew,(6.0.2)*%
%TF.CreationDate,2022-03-14T17:04:01-03:00*%
%TF.ProjectId,EL-A0001-00500 - Telemetria Frontal,454c2d41-3030-4303-912d-303035303020,rev?*%
%TF.SameCoordinates,Original*%
%TF.FileFunction,Soldermask,Bot*%
%TF.FilePolarity,Negative*%
%FSLAX46Y46*%
G04 Gerber Fmt 4.6, Leading zero omitted, Abs format (unit mm)*
G04 Created by KiCad (PCBNEW (6.0.2)) date 2022-03-14 17:04:01*
%MOMM*%
%LPD*%
G01*
G04 APERTURE LIST*
%ADD10C,1.600000*%
%ADD11O,1.600000X1.600000*%
%ADD12R,1.700000X1.700000*%
%ADD13O,1.700000X1.700000*%
%ADD14R,1.800000X1.800000*%
%ADD15C,1.800000*%
%ADD16R,2.400000X1.600000*%
%ADD17O,2.400000X1.600000*%
%ADD18R,2.200000X2.200000*%
%ADD19O,2.200000X2.200000*%
%ADD20R,1.308000X1.308000*%
%ADD21C,2.850000*%
%ADD22R,2.625000X2.625000*%
%ADD23C,2.625000*%
%ADD24C,1.700000*%
%ADD25C,1.524000*%
G04 APERTURE END LIST*
D10*
%TO.C,R11*%
X67920000Y-57000000D03*
D11*
X78080000Y-57000000D03*
%TD*%
D10*
%TO.C,R2*%
X78080000Y-48000000D03*
D11*
X67920000Y-48000000D03*
%TD*%
D10*
%TO.C,R10*%
X78080000Y-60000000D03*
D11*
X67920000Y-60000000D03*
%TD*%
D10*
%TO.C,R3*%
X67920000Y-45000000D03*
D11*
X78080000Y-45000000D03*
%TD*%
D12*
%TO.C,J3*%
X48920000Y-50000000D03*
D13*
X51460000Y-50000000D03*
X54000000Y-50000000D03*
X56540000Y-50000000D03*
%TD*%
D14*
%TO.C,D2*%
X86000000Y-90000000D03*
D15*
X86000000Y-92540000D03*
%TD*%
D12*
%TO.C,J5*%
X101475000Y-72000000D03*
D13*
X104015000Y-72000000D03*
X106555000Y-72000000D03*
%TD*%
D16*
%TO.C,U4*%
X166775000Y-62175000D03*
D17*
X166775000Y-59635000D03*
X166775000Y-57095000D03*
X166775000Y-54555000D03*
X166775000Y-52015000D03*
X166775000Y-49475000D03*
X166775000Y-46935000D03*
X159155000Y-46935000D03*
X159155000Y-49475000D03*
X159155000Y-52015000D03*
X159155000Y-54555000D03*
X159155000Y-57095000D03*
X159155000Y-59635000D03*
X159155000Y-62175000D03*
%TD*%
D18*
%TO.C,D1*%
X54000000Y-92080000D03*
D19*
X54000000Y-81920000D03*
%TD*%
D16*
%TO.C,U3*%
X153000000Y-90540000D03*
D17*
X153000000Y-88000000D03*
X153000000Y-85460000D03*
X153000000Y-82920000D03*
X153000000Y-80380000D03*
X153000000Y-77840000D03*
X153000000Y-75300000D03*
X145380000Y-75300000D03*
X145380000Y-77840000D03*
X145380000Y-80380000D03*
X145380000Y-82920000D03*
X145380000Y-85460000D03*
X145380000Y-88000000D03*
X145380000Y-90540000D03*
%TD*%
D12*
%TO.C,J6*%
X88950000Y-72000000D03*
D13*
X91490000Y-72000000D03*
X94030000Y-72000000D03*
X96570000Y-72000000D03*
%TD*%
D20*
%TO.C,U2*%
X59500000Y-78130000D03*
X59500000Y-79530000D03*
X59500000Y-91200000D03*
X59500000Y-92600000D03*
X78500000Y-78130000D03*
X78500000Y-79530000D03*
X78500000Y-91200000D03*
X78500000Y-92600000D03*
%TD*%
D12*
%TO.C,J4*%
X111920000Y-72000000D03*
D13*
X114460000Y-72000000D03*
X117000000Y-72000000D03*
X119540000Y-72000000D03*
%TD*%
D10*
%TO.C,R4*%
X78080000Y-54000000D03*
D11*
X67920000Y-54000000D03*
%TD*%
D10*
%TO.C,R17*%
X67920000Y-66000000D03*
D11*
X78080000Y-66000000D03*
%TD*%
D21*
%TO.C,J1*%
X35500000Y-51500000D03*
X35500000Y-92500000D03*
D22*
X40000000Y-58000000D03*
D23*
X40000000Y-62000000D03*
X40000000Y-66000000D03*
X40000000Y-70000000D03*
X40000000Y-74000000D03*
X40000000Y-78000000D03*
X40000000Y-82000000D03*
X40000000Y-86000000D03*
X36000000Y-60000000D03*
X36000000Y-64000000D03*
X36000000Y-68000000D03*
X36000000Y-72000000D03*
X36000000Y-76000000D03*
X36000000Y-80000000D03*
X36000000Y-84000000D03*
X32000000Y-58000000D03*
X32000000Y-62000000D03*
X32000000Y-66000000D03*
X32000000Y-70000000D03*
X32000000Y-74000000D03*
X32000000Y-78000000D03*
X32000000Y-82000000D03*
X32000000Y-86000000D03*
%TD*%
D12*
%TO.C,U1*%
X89370000Y-63620000D03*
D24*
X91910000Y-63620000D03*
X94450000Y-63620000D03*
X96990000Y-63620000D03*
X99530000Y-63620000D03*
X102070000Y-63620000D03*
X104610000Y-63620000D03*
X107150000Y-63620000D03*
X109690000Y-63620000D03*
X112230000Y-63620000D03*
X114770000Y-63620000D03*
X117310000Y-63620000D03*
X119850000Y-63620000D03*
X122390000Y-63620000D03*
X124930000Y-63620000D03*
X127470000Y-63620000D03*
X130010000Y-63620000D03*
X132550000Y-63620000D03*
X135090000Y-63620000D03*
X137630000Y-63620000D03*
X137630000Y-48380000D03*
X135090000Y-48380000D03*
X132550000Y-48380000D03*
X130010000Y-48380000D03*
X127470000Y-48380000D03*
X124930000Y-48380000D03*
X122390000Y-48380000D03*
X119850000Y-48380000D03*
X117310000Y-48380000D03*
X114770000Y-48380000D03*
X112230000Y-48380000D03*
X109690000Y-48380000D03*
X107150000Y-48380000D03*
X104610000Y-48380000D03*
X102070000Y-48380000D03*
X99530000Y-48380000D03*
X96990000Y-48380000D03*
X94450000Y-48380000D03*
X91910000Y-48380000D03*
X89370000Y-48380000D03*
%TD*%
D10*
%TO.C,R16*%
X78080000Y-63000000D03*
D11*
X67920000Y-63000000D03*
%TD*%
D25*
%TO.C,U5*%
X116430000Y-85222500D03*
X116430000Y-82682500D03*
X116430000Y-80142500D03*
X116430000Y-77602500D03*
X96745000Y-82682500D03*
X96745000Y-80142500D03*
%TD*%
D10*
%TO.C,R5*%
X67920000Y-51000000D03*
D11*
X78080000Y-51000000D03*
%TD*%
D12*
%TO.C,J2*%
X53000000Y-78000000D03*
D13*
X55540000Y-78000000D03*
%TD*%
M02*
