%TF.GenerationSoftware,KiCad,Pcbnew,(6.0.2)*%
%TF.CreationDate,2022-03-14T17:04:01-03:00*%
%TF.ProjectId,EL-A0001-00500 - Telemetria Frontal,454c2d41-3030-4303-912d-303035303020,rev?*%
%TF.SameCoordinates,Original*%
%TF.FileFunction,Soldermask,Top*%
%TF.FilePolarity,Negative*%
%FSLAX46Y46*%
G04 Gerber Fmt 4.6, Leading zero omitted, Abs format (unit mm)*
G04 Created by KiCad (PCBNEW (6.0.2)) date 2022-03-14 17:04:01*
%MOMM*%
%LPD*%
G01*
G04 APERTURE LIST*
G04 Aperture macros list*
%AMRoundRect*
0 Rectangle with rounded corners*
0 $1 Rounding radius*
0 $2 $3 $4 $5 $6 $7 $8 $9 X,Y pos of 4 corners*
0 Add a 4 corners polygon primitive as box body*
4,1,4,$2,$3,$4,$5,$6,$7,$8,$9,$2,$3,0*
0 Add four circle primitives for the rounded corners*
1,1,$1+$1,$2,$3*
1,1,$1+$1,$4,$5*
1,1,$1+$1,$6,$7*
1,1,$1+$1,$8,$9*
0 Add four rect primitives between the rounded corners*
20,1,$1+$1,$2,$3,$4,$5,0*
20,1,$1+$1,$4,$5,$6,$7,0*
20,1,$1+$1,$6,$7,$8,$9,0*
20,1,$1+$1,$8,$9,$2,$3,0*%
G04 Aperture macros list end*
%ADD10RoundRect,0.250000X0.250000X0.475000X-0.250000X0.475000X-0.250000X-0.475000X0.250000X-0.475000X0*%
%ADD11C,1.600000*%
%ADD12O,1.600000X1.600000*%
%ADD13RoundRect,0.250000X-0.262500X-0.450000X0.262500X-0.450000X0.262500X0.450000X-0.262500X0.450000X0*%
%ADD14RoundRect,0.250000X0.262500X0.450000X-0.262500X0.450000X-0.262500X-0.450000X0.262500X-0.450000X0*%
%ADD15R,1.700000X1.700000*%
%ADD16O,1.700000X1.700000*%
%ADD17R,1.800000X1.800000*%
%ADD18C,1.800000*%
%ADD19R,2.400000X1.600000*%
%ADD20O,2.400000X1.600000*%
%ADD21R,2.200000X2.200000*%
%ADD22O,2.200000X2.200000*%
%ADD23RoundRect,0.250000X0.450000X-0.262500X0.450000X0.262500X-0.450000X0.262500X-0.450000X-0.262500X0*%
%ADD24R,1.308000X1.308000*%
%ADD25C,2.850000*%
%ADD26R,2.625000X2.625000*%
%ADD27C,2.625000*%
%ADD28C,1.700000*%
%ADD29C,1.524000*%
G04 APERTURE END LIST*
D10*
%TO.C,C1*%
X150125000Y-93415000D03*
X148225000Y-93415000D03*
%TD*%
D11*
%TO.C,R11*%
X67920000Y-57000000D03*
D12*
X78080000Y-57000000D03*
%TD*%
D11*
%TO.C,R2*%
X78080000Y-48000000D03*
D12*
X67920000Y-48000000D03*
%TD*%
D13*
%TO.C,R13*%
X138175000Y-82327500D03*
X140000000Y-82327500D03*
%TD*%
D14*
%TO.C,R23*%
X159587500Y-83827500D03*
X157762500Y-83827500D03*
%TD*%
D11*
%TO.C,R10*%
X78080000Y-60000000D03*
D12*
X67920000Y-60000000D03*
%TD*%
D11*
%TO.C,R3*%
X67920000Y-45000000D03*
D12*
X78080000Y-45000000D03*
%TD*%
D13*
%TO.C,R9*%
X149450000Y-55050000D03*
X151275000Y-55050000D03*
%TD*%
D14*
%TO.C,R6*%
X140000000Y-86327500D03*
X138175000Y-86327500D03*
%TD*%
D10*
%TO.C,C2*%
X163900000Y-66550000D03*
X162000000Y-66550000D03*
%TD*%
D15*
%TO.C,J3*%
X48920000Y-50000000D03*
D16*
X51460000Y-50000000D03*
X54000000Y-50000000D03*
X56540000Y-50000000D03*
%TD*%
D13*
%TO.C,R7*%
X138175000Y-84327500D03*
X140000000Y-84327500D03*
%TD*%
D14*
%TO.C,R21*%
X175275000Y-53050000D03*
X173450000Y-53050000D03*
%TD*%
D13*
%TO.C,R15*%
X149450000Y-53050000D03*
X151275000Y-53050000D03*
%TD*%
D17*
%TO.C,D2*%
X86000000Y-90000000D03*
D18*
X86000000Y-92540000D03*
%TD*%
D15*
%TO.C,J5*%
X101475000Y-72000000D03*
D16*
X104015000Y-72000000D03*
X106555000Y-72000000D03*
%TD*%
D19*
%TO.C,U4*%
X166775000Y-62175000D03*
D20*
X166775000Y-59635000D03*
X166775000Y-57095000D03*
X166775000Y-54555000D03*
X166775000Y-52015000D03*
X166775000Y-49475000D03*
X166775000Y-46935000D03*
X159155000Y-46935000D03*
X159155000Y-49475000D03*
X159155000Y-52015000D03*
X159155000Y-54555000D03*
X159155000Y-57095000D03*
X159155000Y-59635000D03*
X159155000Y-62175000D03*
%TD*%
D14*
%TO.C,R12*%
X140000000Y-80327500D03*
X138175000Y-80327500D03*
%TD*%
D21*
%TO.C,D1*%
X54000000Y-92080000D03*
D22*
X54000000Y-81920000D03*
%TD*%
D19*
%TO.C,U3*%
X153000000Y-90540000D03*
D20*
X153000000Y-88000000D03*
X153000000Y-85460000D03*
X153000000Y-82920000D03*
X153000000Y-80380000D03*
X153000000Y-77840000D03*
X153000000Y-75300000D03*
X145380000Y-75300000D03*
X145380000Y-77840000D03*
X145380000Y-80380000D03*
X145380000Y-82920000D03*
X145380000Y-85460000D03*
X145380000Y-88000000D03*
X145380000Y-90540000D03*
%TD*%
D14*
%TO.C,R19*%
X159587500Y-81827500D03*
X157762500Y-81827500D03*
%TD*%
%TO.C,R25*%
X175275000Y-55050000D03*
X173450000Y-55050000D03*
%TD*%
D15*
%TO.C,J6*%
X88950000Y-72000000D03*
D16*
X91490000Y-72000000D03*
X94030000Y-72000000D03*
X96570000Y-72000000D03*
%TD*%
D13*
%TO.C,R20*%
X173450000Y-51050000D03*
X175275000Y-51050000D03*
%TD*%
D23*
%TO.C,R1*%
X86000000Y-84000000D03*
X86000000Y-82175000D03*
%TD*%
D24*
%TO.C,U2*%
X59500000Y-78130000D03*
X59500000Y-79530000D03*
X59500000Y-91200000D03*
X59500000Y-92600000D03*
X78500000Y-78130000D03*
X78500000Y-79530000D03*
X78500000Y-91200000D03*
X78500000Y-92600000D03*
%TD*%
D13*
%TO.C,R22*%
X157762500Y-85827500D03*
X159587500Y-85827500D03*
%TD*%
D15*
%TO.C,J4*%
X111920000Y-72000000D03*
D16*
X114460000Y-72000000D03*
X117000000Y-72000000D03*
X119540000Y-72000000D03*
%TD*%
D13*
%TO.C,R18*%
X157762500Y-79827500D03*
X159587500Y-79827500D03*
%TD*%
D11*
%TO.C,R4*%
X78080000Y-54000000D03*
D12*
X67920000Y-54000000D03*
%TD*%
D11*
%TO.C,R17*%
X67920000Y-66000000D03*
D12*
X78080000Y-66000000D03*
%TD*%
D25*
%TO.C,J1*%
X35500000Y-51500000D03*
X35500000Y-92500000D03*
D26*
X40000000Y-58000000D03*
D27*
X40000000Y-62000000D03*
X40000000Y-66000000D03*
X40000000Y-70000000D03*
X40000000Y-74000000D03*
X40000000Y-78000000D03*
X40000000Y-82000000D03*
X40000000Y-86000000D03*
X36000000Y-60000000D03*
X36000000Y-64000000D03*
X36000000Y-68000000D03*
X36000000Y-72000000D03*
X36000000Y-76000000D03*
X36000000Y-80000000D03*
X36000000Y-84000000D03*
X32000000Y-58000000D03*
X32000000Y-62000000D03*
X32000000Y-66000000D03*
X32000000Y-70000000D03*
X32000000Y-74000000D03*
X32000000Y-78000000D03*
X32000000Y-82000000D03*
X32000000Y-86000000D03*
%TD*%
D14*
%TO.C,R8*%
X151275000Y-57050000D03*
X149450000Y-57050000D03*
%TD*%
%TO.C,R14*%
X151275000Y-51050000D03*
X149450000Y-51050000D03*
%TD*%
D15*
%TO.C,U1*%
X89370000Y-63620000D03*
D28*
X91910000Y-63620000D03*
X94450000Y-63620000D03*
X96990000Y-63620000D03*
X99530000Y-63620000D03*
X102070000Y-63620000D03*
X104610000Y-63620000D03*
X107150000Y-63620000D03*
X109690000Y-63620000D03*
X112230000Y-63620000D03*
X114770000Y-63620000D03*
X117310000Y-63620000D03*
X119850000Y-63620000D03*
X122390000Y-63620000D03*
X124930000Y-63620000D03*
X127470000Y-63620000D03*
X130010000Y-63620000D03*
X132550000Y-63620000D03*
X135090000Y-63620000D03*
X137630000Y-63620000D03*
X137630000Y-48380000D03*
X135090000Y-48380000D03*
X132550000Y-48380000D03*
X130010000Y-48380000D03*
X127470000Y-48380000D03*
X124930000Y-48380000D03*
X122390000Y-48380000D03*
X119850000Y-48380000D03*
X117310000Y-48380000D03*
X114770000Y-48380000D03*
X112230000Y-48380000D03*
X109690000Y-48380000D03*
X107150000Y-48380000D03*
X104610000Y-48380000D03*
X102070000Y-48380000D03*
X99530000Y-48380000D03*
X96990000Y-48380000D03*
X94450000Y-48380000D03*
X91910000Y-48380000D03*
X89370000Y-48380000D03*
%TD*%
D11*
%TO.C,R16*%
X78080000Y-63000000D03*
D12*
X67920000Y-63000000D03*
%TD*%
D29*
%TO.C,U5*%
X116430000Y-85222500D03*
X116430000Y-82682500D03*
X116430000Y-80142500D03*
X116430000Y-77602500D03*
X96745000Y-82682500D03*
X96745000Y-80142500D03*
%TD*%
D13*
%TO.C,R24*%
X173450000Y-57050000D03*
X175275000Y-57050000D03*
%TD*%
D11*
%TO.C,R5*%
X67920000Y-51000000D03*
D12*
X78080000Y-51000000D03*
%TD*%
D15*
%TO.C,J2*%
X53000000Y-78000000D03*
D16*
X55540000Y-78000000D03*
%TD*%
M02*
