M48
; DRILL file {KiCad (6.0.2)} date Mon Mar 14 17:04:19 2022
; FORMAT={-:-/ absolute / inch / decimal}
; #@! TF.CreationDate,2022-03-14T17:04:19-03:00
; #@! TF.GenerationSoftware,Kicad,Pcbnew,(6.0.2)
; #@! TF.FileFunction,Plated,1,2,PTH
FMAT,2
INCH
; #@! TA.AperFunction,Plated,PTH,ComponentDrill
T1C0.0300
; #@! TA.AperFunction,Plated,PTH,ComponentDrill
T2C0.0315
; #@! TA.AperFunction,Plated,PTH,ComponentDrill
T3C0.0354
; #@! TA.AperFunction,Plated,PTH,ViaDrill
T4C0.0394
; #@! TA.AperFunction,Plated,PTH,ComponentDrill
T5C0.0394
; #@! TA.AperFunction,Plated,PTH,ComponentDrill
T6C0.0433
; #@! TA.AperFunction,Plated,PTH,ComponentDrill
T7C0.0689
%
G90
G05
T1
X3.8089Y-3.1552
X3.8089Y-3.2552
X4.5839Y-3.0552
X4.5839Y-3.1552
X4.5839Y-3.2552
X4.5839Y-3.3552
T2
X2.3425Y-3.076
X2.3425Y-3.1311
X2.3425Y-3.5906
X2.3425Y-3.6457
X2.674Y-1.7717
X2.674Y-1.8898
X2.674Y-2.0079
X2.674Y-2.126
X2.674Y-2.2441
X2.674Y-2.3622
X2.674Y-2.4803
X2.674Y-2.5984
X3.074Y-1.7717
X3.074Y-1.8898
X3.074Y-2.0079
X3.074Y-2.126
X3.074Y-2.2441
X3.074Y-2.3622
X3.074Y-2.4803
X3.074Y-2.5984
X3.0906Y-3.076
X3.0906Y-3.1311
X3.0906Y-3.5906
X3.0906Y-3.6457
X5.7236Y-2.9646
X5.7236Y-3.0646
X5.7236Y-3.1646
X5.7236Y-3.2646
X5.7236Y-3.3646
X5.7236Y-3.4646
X5.7236Y-3.5646
X6.0236Y-2.9646
X6.0236Y-3.0646
X6.0236Y-3.1646
X6.0236Y-3.2646
X6.0236Y-3.3646
X6.0236Y-3.4646
X6.0236Y-3.5646
X6.2659Y-1.8478
X6.2659Y-1.9478
X6.2659Y-2.0478
X6.2659Y-2.1478
X6.2659Y-2.2478
X6.2659Y-2.3478
X6.2659Y-2.4478
X6.5659Y-1.8478
X6.5659Y-1.9478
X6.5659Y-2.0478
X6.5659Y-2.1478
X6.5659Y-2.2478
X6.5659Y-2.3478
X6.5659Y-2.4478
T3
X3.3858Y-3.5433
X3.3858Y-3.6433
T4
X2.9134Y-3.3071
X5.1575Y-3.3071
X5.2756Y-3.0315
X5.3543Y-3.4646
X5.7087Y-3.7008
X5.748Y-2.126
X5.9342Y-2.7452
X6.378Y-3.1496
X6.378Y-3.3858
X6.4173Y-1.9291
X6.4635Y-2.9595
X6.4961Y-2.7559
X6.9685Y-2.0866
T5
X1.926Y-1.9685
X2.026Y-1.9685
X2.0866Y-3.0709
X2.126Y-1.9685
X2.1866Y-3.0709
X2.226Y-1.9685
X3.502Y-2.8346
X3.5185Y-1.9047
X3.5185Y-2.5047
X3.602Y-2.8346
X3.6185Y-1.9047
X3.6185Y-2.5047
X3.702Y-2.8346
X3.7185Y-1.9047
X3.7185Y-2.5047
X3.802Y-2.8346
X3.8185Y-1.9047
X3.8185Y-2.5047
X3.9185Y-1.9047
X3.9185Y-2.5047
X3.9951Y-2.8346
X4.0185Y-1.9047
X4.0185Y-2.5047
X4.0951Y-2.8346
X4.1185Y-1.9047
X4.1185Y-2.5047
X4.1951Y-2.8346
X4.2185Y-1.9047
X4.2185Y-2.5047
X4.3185Y-1.9047
X4.3185Y-2.5047
X4.4063Y-2.8346
X4.4185Y-1.9047
X4.4185Y-2.5047
X4.5063Y-2.8346
X4.5185Y-1.9047
X4.5185Y-2.5047
X4.6063Y-2.8346
X4.6185Y-1.9047
X4.6185Y-2.5047
X4.7063Y-2.8346
X4.7185Y-1.9047
X4.7185Y-2.5047
X4.8185Y-1.9047
X4.8185Y-2.5047
X4.9185Y-1.9047
X4.9185Y-2.5047
X5.0185Y-1.9047
X5.0185Y-2.5047
X5.1185Y-1.9047
X5.1185Y-2.5047
X5.2185Y-1.9047
X5.2185Y-2.5047
X5.3185Y-1.9047
X5.3185Y-2.5047
X5.4185Y-1.9047
X5.4185Y-2.5047
T6
X2.126Y-3.2252
X2.126Y-3.6252
T7
X1.2598Y-2.2835
X1.2598Y-2.4409
X1.2598Y-2.5984
X1.2598Y-2.7559
X1.2598Y-2.9134
X1.2598Y-3.0709
X1.2598Y-3.2283
X1.2598Y-3.3858
X1.4173Y-2.3622
X1.4173Y-2.5197
X1.4173Y-2.6772
X1.4173Y-2.8346
X1.4173Y-2.9921
X1.4173Y-3.1496
X1.4173Y-3.3071
X1.5748Y-2.2835
X1.5748Y-2.4409
X1.5748Y-2.5984
X1.5748Y-2.7559
X1.5748Y-2.9134
X1.5748Y-3.0709
X1.5748Y-3.2283
X1.5748Y-3.3858
T0
M30
