M48
; DRILL file {KiCad (6.0.2)} date Mon Mar 14 17:25:11 2022
; FORMAT={-:-/ absolute / inch / decimal}
; #@! TF.CreationDate,2022-03-14T17:25:11-03:00
; #@! TF.GenerationSoftware,Kicad,Pcbnew,(6.0.2)
; #@! TF.FileFunction,NonPlated,1,2,NPTH
FMAT,2
INCH
; #@! TA.AperFunction,NonPlated,NPTH,ComponentDrill
T1C0.1063
; #@! TA.AperFunction,NonPlated,NPTH,ComponentDrill
T2C0.1122
%
G90
G05
T1
X3.435Y-4.8819
X3.435Y-5.5315
X3.435Y-6.1811
X3.435Y-6.8307
X3.435Y-7.4803
X3.435Y-8.1299
X4.9213Y-4.8819
X4.9213Y-5.5315
X4.9213Y-6.1811
X4.9213Y-6.8307
X4.9213Y-7.4803
X4.9213Y-8.1299
X6.2992Y-4.8819
X6.2992Y-5.5315
X6.2992Y-6.1811
X6.2992Y-6.8307
X6.2992Y-7.4803
X6.2992Y-8.1299
X8.2776Y-1.9685
X8.2776Y-2.4065
X8.2776Y-2.8445
X8.2776Y-3.2825
X8.2776Y-3.7205
X8.2776Y-4.1585
X8.2776Y-4.5965
X8.2776Y-5.0344
X8.2776Y-5.4724
T2
X1.5945Y-2.3031
X1.5945Y-3.9173
X1.6929Y-5.7087
X1.6929Y-7.3228
T0
M30
