M48
; DRILL file {KiCad (6.0.2)} date Thu Mar 17 16:38:28 2022
; FORMAT={-:-/ absolute / inch / decimal}
; #@! TF.CreationDate,2022-03-17T16:38:28-03:00
; #@! TF.GenerationSoftware,Kicad,Pcbnew,(6.0.2)
; #@! TF.FileFunction,Plated,1,2,PTH
FMAT,2
INCH
; #@! TA.AperFunction,Plated,PTH,ComponentDrill
T1C0.0300
; #@! TA.AperFunction,Plated,PTH,ComponentDrill
T2C0.0315
; #@! TA.AperFunction,Plated,PTH,ComponentDrill
T3C0.0354
; #@! TA.AperFunction,Plated,PTH,ViaDrill
T4C0.0394
; #@! TA.AperFunction,Plated,PTH,ComponentDrill
T5C0.0394
; #@! TA.AperFunction,Plated,PTH,ComponentDrill
T6C0.0433
; #@! TA.AperFunction,Plated,PTH,ComponentDrill
T7C0.0512
; #@! TA.AperFunction,Plated,PTH,ComponentDrill
T8C0.0598
; #@! TA.AperFunction,Plated,PTH,ComponentDrill
T9C0.0689
%
G90
G05
T1
X4.0057Y-3.4308
X4.0057Y-3.5308
X4.7807Y-3.3308
X4.7807Y-3.4308
X4.7807Y-3.5308
X4.7807Y-3.6308
T2
X2.5394Y-3.3516
X2.5394Y-3.4067
X2.5394Y-3.8661
X2.5394Y-3.9213
X2.8709Y-2.0472
X2.8709Y-2.1654
X2.8709Y-2.2835
X2.8709Y-2.4016
X2.8709Y-2.5197
X2.8709Y-2.6378
X2.8709Y-2.7559
X2.8709Y-2.874
X3.2709Y-2.0472
X3.2709Y-2.1654
X3.2709Y-2.2835
X3.2709Y-2.4016
X3.2709Y-2.5197
X3.2709Y-2.6378
X3.2709Y-2.7559
X3.2709Y-2.874
X3.2874Y-3.3516
X3.2874Y-3.4067
X3.2874Y-3.8661
X3.2874Y-3.9213
X5.9205Y-3.2402
X5.9205Y-3.3402
X5.9205Y-3.4402
X5.9205Y-3.5402
X5.9205Y-3.6402
X5.9205Y-3.7402
X5.9205Y-3.8402
X6.2205Y-3.2402
X6.2205Y-3.3402
X6.2205Y-3.4402
X6.2205Y-3.5402
X6.2205Y-3.6402
X6.2205Y-3.7402
X6.2205Y-3.8402
X6.4628Y-2.1234
X6.4628Y-2.2234
X6.4628Y-2.3234
X6.4628Y-2.4234
X6.4628Y-2.5234
X6.4628Y-2.6234
X6.4628Y-2.7234
X6.7628Y-2.1234
X6.7628Y-2.2234
X6.7628Y-2.3234
X6.7628Y-2.4234
X6.7628Y-2.5234
X6.7628Y-2.6234
X6.7628Y-2.7234
T3
X3.5827Y-3.8189
X3.5827Y-3.9189
T4
X1.6963Y-7.7262
X2.0679Y-5.3246
X2.1663Y-5.7183
X2.3631Y-4.9309
X2.4429Y-7.8039
X2.4616Y-5.1278
X2.56Y-7.9821
X2.6584Y-5.9545
X2.6677Y-5.6292
X2.8553Y-7.7852
X2.8646Y-5.4324
X2.9537Y-7.0963
X2.993Y-6.0136
X3.1102Y-3.5827
X3.249Y-5.8167
X3.249Y-7.9821
X3.4458Y-5.7183
X3.6427Y-6.6041
X4.7254Y-7.0963
X5.3159Y-7.0963
X5.3543Y-3.5827
X5.4724Y-3.3071
X5.5512Y-3.7402
X5.6112Y-6.5057
X5.6112Y-6.7026
X5.6112Y-6.8994
X5.9055Y-3.9764
X5.9449Y-2.4016
X6.131Y-3.0208
X6.5748Y-3.4252
X6.5748Y-3.6614
X6.6142Y-2.2047
X6.6603Y-3.2351
X6.6929Y-3.0315
X7.1654Y-2.3622
T5
X2.1228Y-2.2441
X2.2228Y-2.2441
X2.2835Y-3.3465
X2.3228Y-2.2441
X2.3835Y-3.3465
X2.4228Y-2.2441
X3.6988Y-3.1102
X3.7154Y-2.1803
X3.7154Y-2.7803
X3.7988Y-3.1102
X3.8154Y-2.1803
X3.8154Y-2.7803
X3.8988Y-3.1102
X3.9154Y-2.1803
X3.9154Y-2.7803
X3.9988Y-3.1102
X4.0154Y-2.1803
X4.0154Y-2.7803
X4.1154Y-2.1803
X4.1154Y-2.7803
X4.1919Y-3.1102
X4.2154Y-2.1803
X4.2154Y-2.7803
X4.2919Y-3.1102
X4.3154Y-2.1803
X4.3154Y-2.7803
X4.3919Y-3.1102
X4.4154Y-2.1803
X4.4154Y-2.7803
X4.5154Y-2.1803
X4.5154Y-2.7803
X4.6031Y-3.1102
X4.6154Y-2.1803
X4.6154Y-2.7803
X4.7031Y-3.1102
X4.7154Y-2.1803
X4.7154Y-2.7803
X4.8031Y-3.1102
X4.8154Y-2.1803
X4.8154Y-2.7803
X4.9031Y-3.1102
X4.9154Y-2.1803
X4.9154Y-2.7803
X5.0154Y-2.1803
X5.0154Y-2.7803
X5.1154Y-2.1803
X5.1154Y-2.7803
X5.2154Y-2.1803
X5.2154Y-2.7803
X5.3154Y-2.1803
X5.3154Y-2.7803
X5.4154Y-2.1803
X5.4154Y-2.7803
X5.5154Y-2.1803
X5.5154Y-2.7803
X5.6154Y-2.1803
X5.6154Y-2.7803
X7.5984Y-3.3406
X7.5984Y-3.4406
X7.5984Y-3.5406
X7.5984Y-3.6406
X7.5984Y-3.7406
X7.5984Y-3.8406
X7.5984Y-3.9406
X7.5984Y-4.0406
X7.5984Y-4.1406
X8.8976Y-3.3398
X8.8976Y-3.4398
X8.8976Y-3.5398
X8.8976Y-3.6398
X8.8976Y-3.7398
X8.8976Y-3.8398
X8.8976Y-3.9398
X8.8976Y-4.0398
X8.8976Y-4.1398
T6
X2.3228Y-3.5008
X2.3228Y-3.9008
T7
X2.9931Y-4.9112
X2.9931Y-5.5608
X2.9931Y-6.2104
X2.9931Y-6.86
X2.9931Y-7.5097
X2.9931Y-8.1593
X3.8789Y-4.9112
X3.8789Y-5.5608
X3.8789Y-6.2104
X3.8789Y-6.86
X3.8789Y-7.5097
X3.8789Y-8.1593
X4.4793Y-4.9112
X4.4793Y-5.5608
X4.4793Y-6.2104
X4.4793Y-6.86
X4.4793Y-7.5097
X4.4793Y-8.1593
X5.3651Y-4.9112
X5.3651Y-5.5608
X5.3651Y-6.2104
X5.3651Y-6.86
X5.3651Y-7.5097
X5.3651Y-8.1593
X5.8572Y-4.9112
X5.8572Y-5.5608
X5.8572Y-6.2104
X5.8572Y-6.86
X5.8572Y-7.5097
X5.8572Y-8.1593
X6.7431Y-4.9112
X6.7431Y-5.5608
X6.7431Y-6.2104
X6.7431Y-6.86
X6.7431Y-7.5097
X6.7431Y-8.1593
X7.8346Y-1.9685
X7.8346Y-2.4065
X7.8346Y-2.8445
X7.8346Y-3.2825
X7.8346Y-3.7205
X7.8346Y-4.1585
X7.8346Y-4.5965
X7.8346Y-5.0344
X7.8346Y-5.4724
X8.7205Y-1.9685
X8.7205Y-2.4065
X8.7205Y-2.8445
X8.7205Y-3.2825
X8.7205Y-3.7205
X8.7205Y-4.1585
X8.7205Y-4.5965
X8.7205Y-5.0344
X8.7205Y-5.4724
T8
X3.2474Y-8.553
X3.4474Y-8.553
X3.6986Y-8.553
X3.8986Y-8.553
X4.0986Y-8.553
X5.7883Y-8.553
X5.9883Y-8.553
X7.0403Y-4.6443
X7.0403Y-4.8443
X7.0403Y-5.4443
X7.0403Y-5.6443
X7.0403Y-6.1301
X7.0403Y-6.3301
T9
X1.4567Y-2.5591
X1.4567Y-2.7165
X1.4567Y-2.874
X1.4567Y-3.0315
X1.4567Y-3.189
X1.4567Y-3.3465
X1.4567Y-3.5039
X1.4567Y-3.6614
X1.5561Y-5.9939
X1.5561Y-6.1514
X1.5561Y-6.3089
X1.5561Y-6.4663
X1.5561Y-6.6238
X1.5561Y-6.7813
X1.5561Y-6.9388
X1.5561Y-7.0963
X1.6142Y-2.6378
X1.6142Y-2.7953
X1.6142Y-2.9528
X1.6142Y-3.1102
X1.6142Y-3.2677
X1.6142Y-3.4252
X1.6142Y-3.5827
X1.7135Y-6.0726
X1.7135Y-6.2301
X1.7135Y-6.3876
X1.7135Y-6.5451
X1.7135Y-6.7026
X1.7135Y-6.86
X1.7135Y-7.0175
X1.7717Y-2.5591
X1.7717Y-2.7165
X1.7717Y-2.874
X1.7717Y-3.0315
X1.7717Y-3.189
X1.7717Y-3.3465
X1.7717Y-3.5039
X1.7717Y-3.6614
X1.871Y-5.9939
X1.871Y-6.1514
X1.871Y-6.3089
X1.871Y-6.4663
X1.871Y-6.6238
X1.871Y-6.7813
X1.871Y-6.9388
X1.871Y-7.0963
T0
M30
