M48
; DRILL file {KiCad (6.0.2)} date Mon Mar 14 17:25:11 2022
; FORMAT={-:-/ absolute / inch / decimal}
; #@! TF.CreationDate,2022-03-14T17:25:11-03:00
; #@! TF.GenerationSoftware,Kicad,Pcbnew,(6.0.2)
; #@! TF.FileFunction,Plated,1,2,PTH
FMAT,2
INCH
; #@! TA.AperFunction,Plated,PTH,ComponentDrill
T1C0.0300
; #@! TA.AperFunction,Plated,PTH,ComponentDrill
T2C0.0315
; #@! TA.AperFunction,Plated,PTH,ComponentDrill
T3C0.0354
; #@! TA.AperFunction,Plated,PTH,ViaDrill
T4C0.0394
; #@! TA.AperFunction,Plated,PTH,ComponentDrill
T5C0.0394
; #@! TA.AperFunction,Plated,PTH,ComponentDrill
T6C0.0433
; #@! TA.AperFunction,Plated,PTH,ComponentDrill
T7C0.0512
; #@! TA.AperFunction,Plated,PTH,ComponentDrill
T8C0.0598
; #@! TA.AperFunction,Plated,PTH,ComponentDrill
T9C0.0689
%
G90
G05
T1
X4.0057Y-3.4308
X4.0057Y-3.5308
X4.7807Y-3.3308
X4.7807Y-3.4308
X4.7807Y-3.5308
X4.7807Y-3.6308
T2
X2.5394Y-3.3516
X2.5394Y-3.4067
X2.5394Y-3.8661
X2.5394Y-3.9213
X2.8709Y-2.0472
X2.8709Y-2.1654
X2.8709Y-2.2835
X2.8709Y-2.4016
X2.8709Y-2.5197
X2.8709Y-2.6378
X2.8709Y-2.7559
X2.8709Y-2.874
X3.2709Y-2.0472
X3.2709Y-2.1654
X3.2709Y-2.2835
X3.2709Y-2.4016
X3.2709Y-2.5197
X3.2709Y-2.6378
X3.2709Y-2.7559
X3.2709Y-2.874
X3.2874Y-3.3516
X3.2874Y-3.4067
X3.2874Y-3.8661
X3.2874Y-3.9213
X5.9205Y-3.2402
X5.9205Y-3.3402
X5.9205Y-3.4402
X5.9205Y-3.5402
X5.9205Y-3.6402
X5.9205Y-3.7402
X5.9205Y-3.8402
X6.2205Y-3.2402
X6.2205Y-3.3402
X6.2205Y-3.4402
X6.2205Y-3.5402
X6.2205Y-3.6402
X6.2205Y-3.7402
X6.2205Y-3.8402
X6.4628Y-2.1234
X6.4628Y-2.2234
X6.4628Y-2.3234
X6.4628Y-2.4234
X6.4628Y-2.5234
X6.4628Y-2.6234
X6.4628Y-2.7234
X6.7628Y-2.1234
X6.7628Y-2.2234
X6.7628Y-2.3234
X6.7628Y-2.4234
X6.7628Y-2.5234
X6.7628Y-2.6234
X6.7628Y-2.7234
T3
X3.5827Y-3.8189
X3.5827Y-3.9189
T4
X1.6953Y-7.6968
X2.0669Y-5.2953
X2.1654Y-5.689
X2.3622Y-4.9016
X2.4419Y-7.7746
X2.4606Y-5.0984
X2.5591Y-7.9528
X2.6575Y-5.9252
X2.6668Y-5.5999
X2.8543Y-7.7559
X2.8636Y-5.403
X2.9528Y-7.0669
X2.9921Y-5.9843
X3.1102Y-3.5827
X3.248Y-5.7874
X3.248Y-7.9528
X3.4449Y-5.689
X3.6417Y-6.5748
X4.7244Y-7.0669
X5.315Y-7.0669
X5.3543Y-3.5827
X5.4724Y-3.3071
X5.5512Y-3.7402
X5.6102Y-6.4764
X5.6102Y-6.6732
X5.6102Y-6.8701
X5.9055Y-3.9764
X5.9449Y-2.4016
X6.131Y-3.0208
X6.5748Y-3.4252
X6.5748Y-3.6614
X6.6142Y-2.2047
X6.6603Y-3.2351
X6.6929Y-3.0315
X7.1654Y-2.3622
T5
X2.1228Y-2.2441
X2.2228Y-2.2441
X2.2835Y-3.3465
X2.3228Y-2.2441
X2.3835Y-3.3465
X2.4228Y-2.2441
X3.6988Y-3.1102
X3.7154Y-2.1803
X3.7154Y-2.7803
X3.7988Y-3.1102
X3.8154Y-2.1803
X3.8154Y-2.7803
X3.8988Y-3.1102
X3.9154Y-2.1803
X3.9154Y-2.7803
X3.9988Y-3.1102
X4.0154Y-2.1803
X4.0154Y-2.7803
X4.1154Y-2.1803
X4.1154Y-2.7803
X4.1919Y-3.1102
X4.2154Y-2.1803
X4.2154Y-2.7803
X4.2919Y-3.1102
X4.3154Y-2.1803
X4.3154Y-2.7803
X4.3919Y-3.1102
X4.4154Y-2.1803
X4.4154Y-2.7803
X4.5154Y-2.1803
X4.5154Y-2.7803
X4.6031Y-3.1102
X4.6154Y-2.1803
X4.6154Y-2.7803
X4.7031Y-3.1102
X4.7154Y-2.1803
X4.7154Y-2.7803
X4.8031Y-3.1102
X4.8154Y-2.1803
X4.8154Y-2.7803
X4.9031Y-3.1102
X4.9154Y-2.1803
X4.9154Y-2.7803
X5.0154Y-2.1803
X5.0154Y-2.7803
X5.1154Y-2.1803
X5.1154Y-2.7803
X5.2154Y-2.1803
X5.2154Y-2.7803
X5.3154Y-2.1803
X5.3154Y-2.7803
X5.4154Y-2.1803
X5.4154Y-2.7803
X5.5154Y-2.1803
X5.5154Y-2.7803
X5.6154Y-2.1803
X5.6154Y-2.7803
X7.5984Y-3.3406
X7.5984Y-3.4406
X7.5984Y-3.5406
X7.5984Y-3.6406
X7.5984Y-3.7406
X7.5984Y-3.8406
X7.5984Y-3.9406
X7.5984Y-4.0406
X7.5984Y-4.1406
X8.8976Y-3.3398
X8.8976Y-3.4398
X8.8976Y-3.5398
X8.8976Y-3.6398
X8.8976Y-3.7398
X8.8976Y-3.8398
X8.8976Y-3.9398
X8.8976Y-4.0398
X8.8976Y-4.1398
T6
X2.3228Y-3.5008
X2.3228Y-3.9008
T7
X2.9921Y-4.8819
X2.9921Y-5.5315
X2.9921Y-6.1811
X2.9921Y-6.8307
X2.9921Y-7.4803
X2.9921Y-8.1299
X3.878Y-4.8819
X3.878Y-5.5315
X3.878Y-6.1811
X3.878Y-6.8307
X3.878Y-7.4803
X3.878Y-8.1299
X4.4783Y-4.8819
X4.4783Y-5.5315
X4.4783Y-6.1811
X4.4783Y-6.8307
X4.4783Y-7.4803
X4.4783Y-8.1299
X5.3642Y-4.8819
X5.3642Y-5.5315
X5.3642Y-6.1811
X5.3642Y-6.8307
X5.3642Y-7.4803
X5.3642Y-8.1299
X5.8563Y-4.8819
X5.8563Y-5.5315
X5.8563Y-6.1811
X5.8563Y-6.8307
X5.8563Y-7.4803
X5.8563Y-8.1299
X6.7421Y-4.8819
X6.7421Y-5.5315
X6.7421Y-6.1811
X6.7421Y-6.8307
X6.7421Y-7.4803
X6.7421Y-8.1299
X7.8346Y-1.9685
X7.8346Y-2.4065
X7.8346Y-2.8445
X7.8346Y-3.2825
X7.8346Y-3.7205
X7.8346Y-4.1585
X7.8346Y-4.5965
X7.8346Y-5.0344
X7.8346Y-5.4724
X8.7205Y-1.9685
X8.7205Y-2.4065
X8.7205Y-2.8445
X8.7205Y-3.2825
X8.7205Y-3.7205
X8.7205Y-4.1585
X8.7205Y-4.5965
X8.7205Y-5.0344
X8.7205Y-5.4724
T8
X3.2465Y-8.5236
X3.4465Y-8.5236
X3.6976Y-8.5236
X3.8976Y-8.5236
X4.0976Y-8.5236
X5.7874Y-8.5236
X5.9874Y-8.5236
X7.2835Y-4.7835
X7.2835Y-4.9835
X7.2835Y-5.4134
X7.2835Y-5.6134
X7.2835Y-6.1008
X7.2835Y-6.3008
T9
X1.4567Y-2.5591
X1.4567Y-2.7165
X1.4567Y-2.874
X1.4567Y-3.0315
X1.4567Y-3.189
X1.4567Y-3.3465
X1.4567Y-3.5039
X1.4567Y-3.6614
X1.5551Y-5.9646
X1.5551Y-6.122
X1.5551Y-6.2795
X1.5551Y-6.437
X1.5551Y-6.5945
X1.5551Y-6.752
X1.5551Y-6.9094
X1.5551Y-7.0669
X1.6142Y-2.6378
X1.6142Y-2.7953
X1.6142Y-2.9528
X1.6142Y-3.1102
X1.6142Y-3.2677
X1.6142Y-3.4252
X1.6142Y-3.5827
X1.7126Y-6.0433
X1.7126Y-6.2008
X1.7126Y-6.3583
X1.7126Y-6.5157
X1.7126Y-6.6732
X1.7126Y-6.8307
X1.7126Y-6.9882
X1.7717Y-2.5591
X1.7717Y-2.7165
X1.7717Y-2.874
X1.7717Y-3.0315
X1.7717Y-3.189
X1.7717Y-3.3465
X1.7717Y-3.5039
X1.7717Y-3.6614
X1.8701Y-5.9646
X1.8701Y-6.122
X1.8701Y-6.2795
X1.8701Y-6.437
X1.8701Y-6.5945
X1.8701Y-6.752
X1.8701Y-6.9094
X1.8701Y-7.0669
T0
M30
