%TF.GenerationSoftware,KiCad,Pcbnew,(6.0.2)*%
%TF.CreationDate,2022-03-17T16:38:25-03:00*%
%TF.ProjectId,painel1,7061696e-656c-4312-9e6b-696361645f70,rev?*%
%TF.SameCoordinates,Original*%
%TF.FileFunction,Legend,Top*%
%TF.FilePolarity,Positive*%
%FSLAX46Y46*%
G04 Gerber Fmt 4.6, Leading zero omitted, Abs format (unit mm)*
G04 Created by KiCad (PCBNEW (6.0.2)) date 2022-03-17 16:38:25*
%MOMM*%
%LPD*%
G01*
G04 APERTURE LIST*
%ADD10C,0.150000*%
%ADD11C,0.120000*%
%ADD12C,0.127000*%
%ADD13C,0.500000*%
%ADD14C,0.200000*%
%ADD15C,0.100000*%
G04 APERTURE END LIST*
D10*
%TO.C,J6*%
X91072380Y-79333333D02*
X91786666Y-79333333D01*
X91929523Y-79380952D01*
X92024761Y-79476190D01*
X92072380Y-79619047D01*
X92072380Y-79714285D01*
X91072380Y-78428571D02*
X91072380Y-78619047D01*
X91120000Y-78714285D01*
X91167619Y-78761904D01*
X91310476Y-78857142D01*
X91500952Y-78904761D01*
X91881904Y-78904761D01*
X91977142Y-78857142D01*
X92024761Y-78809523D01*
X92072380Y-78714285D01*
X92072380Y-78523809D01*
X92024761Y-78428571D01*
X91977142Y-78380952D01*
X91881904Y-78333333D01*
X91643809Y-78333333D01*
X91548571Y-78380952D01*
X91500952Y-78428571D01*
X91453333Y-78523809D01*
X91453333Y-78714285D01*
X91500952Y-78809523D01*
X91548571Y-78857142D01*
X91643809Y-78904761D01*
%TO.C,C1*%
X154008333Y-102452142D02*
X153960714Y-102499761D01*
X153817857Y-102547380D01*
X153722619Y-102547380D01*
X153579761Y-102499761D01*
X153484523Y-102404523D01*
X153436904Y-102309285D01*
X153389285Y-102118809D01*
X153389285Y-101975952D01*
X153436904Y-101785476D01*
X153484523Y-101690238D01*
X153579761Y-101595000D01*
X153722619Y-101547380D01*
X153817857Y-101547380D01*
X153960714Y-101595000D01*
X154008333Y-101642619D01*
X154960714Y-102547380D02*
X154389285Y-102547380D01*
X154675000Y-102547380D02*
X154675000Y-101547380D01*
X154579761Y-101690238D01*
X154484523Y-101785476D01*
X154389285Y-101833095D01*
%TO.C,F14*%
X86464399Y-201173759D02*
X86131065Y-201173759D01*
X86131065Y-201697568D02*
X86131065Y-200697568D01*
X86607256Y-200697568D01*
X87512018Y-201697568D02*
X86940589Y-201697568D01*
X87226303Y-201697568D02*
X87226303Y-200697568D01*
X87131065Y-200840426D01*
X87035827Y-200935664D01*
X86940589Y-200983283D01*
X88369161Y-201030902D02*
X88369161Y-201697568D01*
X88131065Y-200649949D02*
X87892970Y-201364235D01*
X88512018Y-201364235D01*
%TO.C,F11*%
X86464399Y-135173759D02*
X86131065Y-135173759D01*
X86131065Y-135697568D02*
X86131065Y-134697568D01*
X86607256Y-134697568D01*
X87512018Y-135697568D02*
X86940589Y-135697568D01*
X87226303Y-135697568D02*
X87226303Y-134697568D01*
X87131065Y-134840426D01*
X87035827Y-134935664D01*
X86940589Y-134983283D01*
X88464399Y-135697568D02*
X87892970Y-135697568D01*
X88178684Y-135697568D02*
X88178684Y-134697568D01*
X88083446Y-134840426D01*
X87988208Y-134935664D01*
X87892970Y-134983283D01*
%TO.C,U2*%
X62400074Y-100568803D02*
X62400074Y-101206224D01*
X62437570Y-101281215D01*
X62475065Y-101318710D01*
X62550056Y-101356205D01*
X62700037Y-101356205D01*
X62775028Y-101318710D01*
X62812523Y-101281215D01*
X62850018Y-101206224D01*
X62850018Y-100568803D01*
X63187476Y-100643794D02*
X63224972Y-100606299D01*
X63299962Y-100568803D01*
X63487439Y-100568803D01*
X63562430Y-100606299D01*
X63599925Y-100643794D01*
X63637420Y-100718785D01*
X63637420Y-100793775D01*
X63599925Y-100906261D01*
X63149981Y-101356205D01*
X63637420Y-101356205D01*
X65667142Y-97642380D02*
X65667142Y-96642380D01*
X66143333Y-97642380D02*
X66143333Y-96642380D01*
X66714761Y-97642380D01*
X66714761Y-96642380D01*
X67190952Y-97261428D02*
X67952857Y-97261428D01*
X67571904Y-97642380D02*
X67571904Y-96880476D01*
X75350952Y-96642380D02*
X75541428Y-96642380D01*
X75636666Y-96690000D01*
X75731904Y-96785238D01*
X75779523Y-96975714D01*
X75779523Y-97309047D01*
X75731904Y-97499523D01*
X75636666Y-97594761D01*
X75541428Y-97642380D01*
X75350952Y-97642380D01*
X75255714Y-97594761D01*
X75160476Y-97499523D01*
X75112857Y-97309047D01*
X75112857Y-96975714D01*
X75160476Y-96785238D01*
X75255714Y-96690000D01*
X75350952Y-96642380D01*
X76208095Y-96642380D02*
X76208095Y-97451904D01*
X76255714Y-97547142D01*
X76303333Y-97594761D01*
X76398571Y-97642380D01*
X76589047Y-97642380D01*
X76684285Y-97594761D01*
X76731904Y-97547142D01*
X76779523Y-97451904D01*
X76779523Y-96642380D01*
X77112857Y-96642380D02*
X77684285Y-96642380D01*
X77398571Y-97642380D02*
X77398571Y-96642380D01*
X78017619Y-97261428D02*
X78779523Y-97261428D01*
X78398571Y-97642380D02*
X78398571Y-96880476D01*
X65667142Y-88752380D02*
X65667142Y-87752380D01*
X66143333Y-88752380D02*
X66143333Y-87752380D01*
X66714761Y-88752380D01*
X66714761Y-87752380D01*
X67190952Y-88371428D02*
X67952857Y-88371428D01*
X75350952Y-87752380D02*
X75541428Y-87752380D01*
X75636666Y-87800000D01*
X75731904Y-87895238D01*
X75779523Y-88085714D01*
X75779523Y-88419047D01*
X75731904Y-88609523D01*
X75636666Y-88704761D01*
X75541428Y-88752380D01*
X75350952Y-88752380D01*
X75255714Y-88704761D01*
X75160476Y-88609523D01*
X75112857Y-88419047D01*
X75112857Y-88085714D01*
X75160476Y-87895238D01*
X75255714Y-87800000D01*
X75350952Y-87752380D01*
X76208095Y-87752380D02*
X76208095Y-88561904D01*
X76255714Y-88657142D01*
X76303333Y-88704761D01*
X76398571Y-88752380D01*
X76589047Y-88752380D01*
X76684285Y-88704761D01*
X76731904Y-88657142D01*
X76779523Y-88561904D01*
X76779523Y-87752380D01*
X77112857Y-87752380D02*
X77684285Y-87752380D01*
X77398571Y-88752380D02*
X77398571Y-87752380D01*
X78017619Y-88371428D02*
X78779523Y-88371428D01*
%TO.C,F2*%
X209916666Y-133803571D02*
X209583333Y-133803571D01*
X209583333Y-134327380D02*
X209583333Y-133327380D01*
X210059523Y-133327380D01*
X210392857Y-133422619D02*
X210440476Y-133375000D01*
X210535714Y-133327380D01*
X210773809Y-133327380D01*
X210869047Y-133375000D01*
X210916666Y-133422619D01*
X210964285Y-133517857D01*
X210964285Y-133613095D01*
X210916666Y-133755952D01*
X210345238Y-134327380D01*
X210964285Y-134327380D01*
%TO.C,J5*%
X103597380Y-79333333D02*
X104311666Y-79333333D01*
X104454523Y-79380952D01*
X104549761Y-79476190D01*
X104597380Y-79619047D01*
X104597380Y-79714285D01*
X103597380Y-78380952D02*
X103597380Y-78857142D01*
X104073571Y-78904761D01*
X104025952Y-78857142D01*
X103978333Y-78761904D01*
X103978333Y-78523809D01*
X104025952Y-78428571D01*
X104073571Y-78380952D01*
X104168809Y-78333333D01*
X104406904Y-78333333D01*
X104502142Y-78380952D01*
X104549761Y-78428571D01*
X104597380Y-78523809D01*
X104597380Y-78761904D01*
X104549761Y-78857142D01*
X104502142Y-78904761D01*
%TO.C,F15*%
X85328031Y-184673759D02*
X84994697Y-184673759D01*
X84994697Y-185197568D02*
X84994697Y-184197568D01*
X85470888Y-184197568D01*
X86375650Y-185197568D02*
X85804221Y-185197568D01*
X86089935Y-185197568D02*
X86089935Y-184197568D01*
X85994697Y-184340426D01*
X85899459Y-184435664D01*
X85804221Y-184483283D01*
X87280412Y-184197568D02*
X86804221Y-184197568D01*
X86756602Y-184673759D01*
X86804221Y-184626140D01*
X86899459Y-184578521D01*
X87137555Y-184578521D01*
X87232793Y-184626140D01*
X87280412Y-184673759D01*
X87328031Y-184768997D01*
X87328031Y-185007092D01*
X87280412Y-185102330D01*
X87232793Y-185149949D01*
X87137555Y-185197568D01*
X86899459Y-185197568D01*
X86804221Y-185149949D01*
X86756602Y-185102330D01*
%TO.C,C2*%
X167783333Y-75587142D02*
X167735714Y-75634761D01*
X167592857Y-75682380D01*
X167497619Y-75682380D01*
X167354761Y-75634761D01*
X167259523Y-75539523D01*
X167211904Y-75444285D01*
X167164285Y-75253809D01*
X167164285Y-75110952D01*
X167211904Y-74920476D01*
X167259523Y-74825238D01*
X167354761Y-74730000D01*
X167497619Y-74682380D01*
X167592857Y-74682380D01*
X167735714Y-74730000D01*
X167783333Y-74777619D01*
X168164285Y-74777619D02*
X168211904Y-74730000D01*
X168307142Y-74682380D01*
X168545238Y-74682380D01*
X168640476Y-74730000D01*
X168688095Y-74777619D01*
X168735714Y-74872857D01*
X168735714Y-74968095D01*
X168688095Y-75110952D01*
X168116666Y-75682380D01*
X168735714Y-75682380D01*
%TO.C,F3*%
X209916666Y-122678571D02*
X209583333Y-122678571D01*
X209583333Y-123202380D02*
X209583333Y-122202380D01*
X210059523Y-122202380D01*
X210345238Y-122202380D02*
X210964285Y-122202380D01*
X210630952Y-122583333D01*
X210773809Y-122583333D01*
X210869047Y-122630952D01*
X210916666Y-122678571D01*
X210964285Y-122773809D01*
X210964285Y-123011904D01*
X210916666Y-123107142D01*
X210869047Y-123154761D01*
X210773809Y-123202380D01*
X210488095Y-123202380D01*
X210392857Y-123154761D01*
X210345238Y-123107142D01*
%TO.C,F7*%
X159690589Y-213173759D02*
X159357256Y-213173759D01*
X159357256Y-213697568D02*
X159357256Y-212697568D01*
X159833446Y-212697568D01*
X160119161Y-212697568D02*
X160785827Y-212697568D01*
X160357256Y-213697568D01*
%TO.C,R1*%
X89802380Y-90254166D02*
X89326190Y-90587500D01*
X89802380Y-90825595D02*
X88802380Y-90825595D01*
X88802380Y-90444642D01*
X88850000Y-90349404D01*
X88897619Y-90301785D01*
X88992857Y-90254166D01*
X89135714Y-90254166D01*
X89230952Y-90301785D01*
X89278571Y-90349404D01*
X89326190Y-90444642D01*
X89326190Y-90825595D01*
X89802380Y-89301785D02*
X89802380Y-89873214D01*
X89802380Y-89587500D02*
X88802380Y-89587500D01*
X88945238Y-89682738D01*
X89040476Y-89777976D01*
X89088095Y-89873214D01*
%TO.C,J9*%
X173196303Y-158578521D02*
X173910589Y-158578521D01*
X174053446Y-158626140D01*
X174148684Y-158721378D01*
X174196303Y-158864235D01*
X174196303Y-158959473D01*
X174196303Y-158054711D02*
X174196303Y-157864235D01*
X174148684Y-157768997D01*
X174101065Y-157721378D01*
X173958208Y-157626140D01*
X173767732Y-157578521D01*
X173386780Y-157578521D01*
X173291542Y-157626140D01*
X173243923Y-157673759D01*
X173196303Y-157768997D01*
X173196303Y-157959473D01*
X173243923Y-158054711D01*
X173291542Y-158102330D01*
X173386780Y-158149949D01*
X173624875Y-158149949D01*
X173720113Y-158102330D01*
X173767732Y-158054711D01*
X173815351Y-157959473D01*
X173815351Y-157768997D01*
X173767732Y-157673759D01*
X173720113Y-157626140D01*
X173624875Y-157578521D01*
%TO.C,R16*%
X69357142Y-70452380D02*
X69023809Y-69976190D01*
X68785714Y-70452380D02*
X68785714Y-69452380D01*
X69166666Y-69452380D01*
X69261904Y-69500000D01*
X69309523Y-69547619D01*
X69357142Y-69642857D01*
X69357142Y-69785714D01*
X69309523Y-69880952D01*
X69261904Y-69928571D01*
X69166666Y-69976190D01*
X68785714Y-69976190D01*
X70309523Y-70452380D02*
X69738095Y-70452380D01*
X70023809Y-70452380D02*
X70023809Y-69452380D01*
X69928571Y-69595238D01*
X69833333Y-69690476D01*
X69738095Y-69738095D01*
X71166666Y-69452380D02*
X70976190Y-69452380D01*
X70880952Y-69500000D01*
X70833333Y-69547619D01*
X70738095Y-69690476D01*
X70690476Y-69880952D01*
X70690476Y-70261904D01*
X70738095Y-70357142D01*
X70785714Y-70404761D01*
X70880952Y-70452380D01*
X71071428Y-70452380D01*
X71166666Y-70404761D01*
X71214285Y-70357142D01*
X71261904Y-70261904D01*
X71261904Y-70023809D01*
X71214285Y-69928571D01*
X71166666Y-69880952D01*
X71071428Y-69833333D01*
X70880952Y-69833333D01*
X70785714Y-69880952D01*
X70738095Y-69928571D01*
X70690476Y-70023809D01*
%TO.C,R22*%
X166944642Y-93279880D02*
X166611309Y-92803690D01*
X166373214Y-93279880D02*
X166373214Y-92279880D01*
X166754166Y-92279880D01*
X166849404Y-92327500D01*
X166897023Y-92375119D01*
X166944642Y-92470357D01*
X166944642Y-92613214D01*
X166897023Y-92708452D01*
X166849404Y-92756071D01*
X166754166Y-92803690D01*
X166373214Y-92803690D01*
X167325595Y-92375119D02*
X167373214Y-92327500D01*
X167468452Y-92279880D01*
X167706547Y-92279880D01*
X167801785Y-92327500D01*
X167849404Y-92375119D01*
X167897023Y-92470357D01*
X167897023Y-92565595D01*
X167849404Y-92708452D01*
X167277976Y-93279880D01*
X167897023Y-93279880D01*
X168277976Y-92375119D02*
X168325595Y-92327500D01*
X168420833Y-92279880D01*
X168658928Y-92279880D01*
X168754166Y-92327500D01*
X168801785Y-92375119D01*
X168849404Y-92470357D01*
X168849404Y-92565595D01*
X168801785Y-92708452D01*
X168230357Y-93279880D01*
X168849404Y-93279880D01*
%TO.C,R24*%
X182719642Y-64502380D02*
X182386309Y-64026190D01*
X182148214Y-64502380D02*
X182148214Y-63502380D01*
X182529166Y-63502380D01*
X182624404Y-63550000D01*
X182672023Y-63597619D01*
X182719642Y-63692857D01*
X182719642Y-63835714D01*
X182672023Y-63930952D01*
X182624404Y-63978571D01*
X182529166Y-64026190D01*
X182148214Y-64026190D01*
X183100595Y-63597619D02*
X183148214Y-63550000D01*
X183243452Y-63502380D01*
X183481547Y-63502380D01*
X183576785Y-63550000D01*
X183624404Y-63597619D01*
X183672023Y-63692857D01*
X183672023Y-63788095D01*
X183624404Y-63930952D01*
X183052976Y-64502380D01*
X183672023Y-64502380D01*
X184529166Y-63835714D02*
X184529166Y-64502380D01*
X184291071Y-63454761D02*
X184052976Y-64169047D01*
X184672023Y-64169047D01*
%TO.C,J7*%
X173196303Y-120838521D02*
X173910589Y-120838521D01*
X174053446Y-120886140D01*
X174148684Y-120981378D01*
X174196303Y-121124235D01*
X174196303Y-121219473D01*
X173196303Y-120457568D02*
X173196303Y-119790902D01*
X174196303Y-120219473D01*
%TO.C,J5*%
X84690589Y-211617568D02*
X84690589Y-212331854D01*
X84642970Y-212474711D01*
X84547732Y-212569949D01*
X84404875Y-212617568D01*
X84309637Y-212617568D01*
X85642970Y-211617568D02*
X85166780Y-211617568D01*
X85119161Y-212093759D01*
X85166780Y-212046140D01*
X85262018Y-211998521D01*
X85500113Y-211998521D01*
X85595351Y-212046140D01*
X85642970Y-212093759D01*
X85690589Y-212188997D01*
X85690589Y-212427092D01*
X85642970Y-212522330D01*
X85595351Y-212569949D01*
X85500113Y-212617568D01*
X85262018Y-212617568D01*
X85166780Y-212569949D01*
X85119161Y-212522330D01*
%TO.C,F7*%
X209916666Y-78178571D02*
X209583333Y-78178571D01*
X209583333Y-78702380D02*
X209583333Y-77702380D01*
X210059523Y-77702380D01*
X210345238Y-77702380D02*
X211011904Y-77702380D01*
X210583333Y-78702380D01*
%TO.C,F16*%
X159214399Y-118673759D02*
X158881065Y-118673759D01*
X158881065Y-119197568D02*
X158881065Y-118197568D01*
X159357256Y-118197568D01*
X160262018Y-119197568D02*
X159690589Y-119197568D01*
X159976303Y-119197568D02*
X159976303Y-118197568D01*
X159881065Y-118340426D01*
X159785827Y-118435664D01*
X159690589Y-118483283D01*
X161119161Y-118197568D02*
X160928684Y-118197568D01*
X160833446Y-118245188D01*
X160785827Y-118292807D01*
X160690589Y-118435664D01*
X160642970Y-118626140D01*
X160642970Y-119007092D01*
X160690589Y-119102330D01*
X160738208Y-119149949D01*
X160833446Y-119197568D01*
X161023923Y-119197568D01*
X161119161Y-119149949D01*
X161166780Y-119102330D01*
X161214399Y-119007092D01*
X161214399Y-118768997D01*
X161166780Y-118673759D01*
X161119161Y-118626140D01*
X161023923Y-118578521D01*
X160833446Y-118578521D01*
X160738208Y-118626140D01*
X160690589Y-118673759D01*
X160642970Y-118768997D01*
%TO.C,D1*%
X56982380Y-94738095D02*
X55982380Y-94738095D01*
X55982380Y-94500000D01*
X56030000Y-94357142D01*
X56125238Y-94261904D01*
X56220476Y-94214285D01*
X56410952Y-94166666D01*
X56553809Y-94166666D01*
X56744285Y-94214285D01*
X56839523Y-94261904D01*
X56934761Y-94357142D01*
X56982380Y-94500000D01*
X56982380Y-94738095D01*
X56982380Y-93214285D02*
X56982380Y-93785714D01*
X56982380Y-93500000D02*
X55982380Y-93500000D01*
X56125238Y-93595238D01*
X56220476Y-93690476D01*
X56268095Y-93785714D01*
X57352380Y-99341904D02*
X56352380Y-99341904D01*
X57352380Y-98770476D02*
X56780952Y-99199047D01*
X56352380Y-98770476D02*
X56923809Y-99341904D01*
%TO.C,J4*%
X98660589Y-212047568D02*
X98660589Y-212761854D01*
X98612970Y-212904711D01*
X98517732Y-212999949D01*
X98374875Y-213047568D01*
X98279637Y-213047568D01*
X99565351Y-212380902D02*
X99565351Y-213047568D01*
X99327256Y-211999949D02*
X99089161Y-212714235D01*
X99708208Y-212714235D01*
%TO.C,F8*%
X209916666Y-67053571D02*
X209583333Y-67053571D01*
X209583333Y-67577380D02*
X209583333Y-66577380D01*
X210059523Y-66577380D01*
X210583333Y-67005952D02*
X210488095Y-66958333D01*
X210440476Y-66910714D01*
X210392857Y-66815476D01*
X210392857Y-66767857D01*
X210440476Y-66672619D01*
X210488095Y-66625000D01*
X210583333Y-66577380D01*
X210773809Y-66577380D01*
X210869047Y-66625000D01*
X210916666Y-66672619D01*
X210964285Y-66767857D01*
X210964285Y-66815476D01*
X210916666Y-66910714D01*
X210869047Y-66958333D01*
X210773809Y-67005952D01*
X210583333Y-67005952D01*
X210488095Y-67053571D01*
X210440476Y-67101190D01*
X210392857Y-67196428D01*
X210392857Y-67386904D01*
X210440476Y-67482142D01*
X210488095Y-67529761D01*
X210583333Y-67577380D01*
X210773809Y-67577380D01*
X210869047Y-67529761D01*
X210916666Y-67482142D01*
X210964285Y-67386904D01*
X210964285Y-67196428D01*
X210916666Y-67101190D01*
X210869047Y-67053571D01*
X210773809Y-67005952D01*
%TO.C,F2*%
X124690589Y-213173759D02*
X124357256Y-213173759D01*
X124357256Y-213697568D02*
X124357256Y-212697568D01*
X124833446Y-212697568D01*
X125166780Y-212792807D02*
X125214399Y-212745188D01*
X125309637Y-212697568D01*
X125547732Y-212697568D01*
X125642970Y-212745188D01*
X125690589Y-212792807D01*
X125738208Y-212888045D01*
X125738208Y-212983283D01*
X125690589Y-213126140D01*
X125119161Y-213697568D01*
X125738208Y-213697568D01*
%TO.C,R9*%
X152195833Y-62502380D02*
X151862500Y-62026190D01*
X151624404Y-62502380D02*
X151624404Y-61502380D01*
X152005357Y-61502380D01*
X152100595Y-61550000D01*
X152148214Y-61597619D01*
X152195833Y-61692857D01*
X152195833Y-61835714D01*
X152148214Y-61930952D01*
X152100595Y-61978571D01*
X152005357Y-62026190D01*
X151624404Y-62026190D01*
X152672023Y-62502380D02*
X152862500Y-62502380D01*
X152957738Y-62454761D01*
X153005357Y-62407142D01*
X153100595Y-62264285D01*
X153148214Y-62073809D01*
X153148214Y-61692857D01*
X153100595Y-61597619D01*
X153052976Y-61550000D01*
X152957738Y-61502380D01*
X152767261Y-61502380D01*
X152672023Y-61550000D01*
X152624404Y-61597619D01*
X152576785Y-61692857D01*
X152576785Y-61930952D01*
X152624404Y-62026190D01*
X152672023Y-62073809D01*
X152767261Y-62121428D01*
X152957738Y-62121428D01*
X153052976Y-62073809D01*
X153100595Y-62026190D01*
X153148214Y-61930952D01*
%TO.C,U3*%
X153428095Y-99322380D02*
X153428095Y-100131904D01*
X153475714Y-100227142D01*
X153523333Y-100274761D01*
X153618571Y-100322380D01*
X153809047Y-100322380D01*
X153904285Y-100274761D01*
X153951904Y-100227142D01*
X153999523Y-100131904D01*
X153999523Y-99322380D01*
X154380476Y-99322380D02*
X154999523Y-99322380D01*
X154666190Y-99703333D01*
X154809047Y-99703333D01*
X154904285Y-99750952D01*
X154951904Y-99798571D01*
X154999523Y-99893809D01*
X154999523Y-100131904D01*
X154951904Y-100227142D01*
X154904285Y-100274761D01*
X154809047Y-100322380D01*
X154523333Y-100322380D01*
X154428095Y-100274761D01*
X154380476Y-100227142D01*
%TO.C,J6*%
X149230589Y-211617568D02*
X149230589Y-212331854D01*
X149182970Y-212474711D01*
X149087732Y-212569949D01*
X148944875Y-212617568D01*
X148849637Y-212617568D01*
X150135351Y-211617568D02*
X149944875Y-211617568D01*
X149849637Y-211665188D01*
X149802018Y-211712807D01*
X149706780Y-211855664D01*
X149659161Y-212046140D01*
X149659161Y-212427092D01*
X149706780Y-212522330D01*
X149754399Y-212569949D01*
X149849637Y-212617568D01*
X150040113Y-212617568D01*
X150135351Y-212569949D01*
X150182970Y-212522330D01*
X150230589Y-212427092D01*
X150230589Y-212188997D01*
X150182970Y-212093759D01*
X150135351Y-212046140D01*
X150040113Y-211998521D01*
X149849637Y-211998521D01*
X149754399Y-212046140D01*
X149706780Y-212093759D01*
X149659161Y-212188997D01*
%TO.C,R4*%
X69913333Y-61452380D02*
X69580000Y-60976190D01*
X69341904Y-61452380D02*
X69341904Y-60452380D01*
X69722857Y-60452380D01*
X69818095Y-60500000D01*
X69865714Y-60547619D01*
X69913333Y-60642857D01*
X69913333Y-60785714D01*
X69865714Y-60880952D01*
X69818095Y-60928571D01*
X69722857Y-60976190D01*
X69341904Y-60976190D01*
X70770476Y-60785714D02*
X70770476Y-61452380D01*
X70532380Y-60404761D02*
X70294285Y-61119047D01*
X70913333Y-61119047D01*
%TO.C,R15*%
X150719642Y-60502380D02*
X150386309Y-60026190D01*
X150148214Y-60502380D02*
X150148214Y-59502380D01*
X150529166Y-59502380D01*
X150624404Y-59550000D01*
X150672023Y-59597619D01*
X150719642Y-59692857D01*
X150719642Y-59835714D01*
X150672023Y-59930952D01*
X150624404Y-59978571D01*
X150529166Y-60026190D01*
X150148214Y-60026190D01*
X151672023Y-60502380D02*
X151100595Y-60502380D01*
X151386309Y-60502380D02*
X151386309Y-59502380D01*
X151291071Y-59645238D01*
X151195833Y-59740476D01*
X151100595Y-59788095D01*
X152576785Y-59502380D02*
X152100595Y-59502380D01*
X152052976Y-59978571D01*
X152100595Y-59930952D01*
X152195833Y-59883333D01*
X152433928Y-59883333D01*
X152529166Y-59930952D01*
X152576785Y-59978571D01*
X152624404Y-60073809D01*
X152624404Y-60311904D01*
X152576785Y-60407142D01*
X152529166Y-60454761D01*
X152433928Y-60502380D01*
X152195833Y-60502380D01*
X152100595Y-60454761D01*
X152052976Y-60407142D01*
%TO.C,F9*%
X86713309Y-168173759D02*
X86379976Y-168173759D01*
X86379976Y-168697568D02*
X86379976Y-167697568D01*
X86856166Y-167697568D01*
X87284738Y-168697568D02*
X87475214Y-168697568D01*
X87570452Y-168649949D01*
X87618071Y-168602330D01*
X87713309Y-168459473D01*
X87760928Y-168268997D01*
X87760928Y-167888045D01*
X87713309Y-167792807D01*
X87665690Y-167745188D01*
X87570452Y-167697568D01*
X87379976Y-167697568D01*
X87284738Y-167745188D01*
X87237119Y-167792807D01*
X87189500Y-167888045D01*
X87189500Y-168126140D01*
X87237119Y-168221378D01*
X87284738Y-168268997D01*
X87379976Y-168316616D01*
X87570452Y-168316616D01*
X87665690Y-168268997D01*
X87713309Y-168221378D01*
X87760928Y-168126140D01*
X209916666Y-55928571D02*
X209583333Y-55928571D01*
X209583333Y-56452380D02*
X209583333Y-55452380D01*
X210059523Y-55452380D01*
X210488095Y-56452380D02*
X210678571Y-56452380D01*
X210773809Y-56404761D01*
X210821428Y-56357142D01*
X210916666Y-56214285D01*
X210964285Y-56023809D01*
X210964285Y-55642857D01*
X210916666Y-55547619D01*
X210869047Y-55500000D01*
X210773809Y-55452380D01*
X210583333Y-55452380D01*
X210488095Y-55500000D01*
X210440476Y-55547619D01*
X210392857Y-55642857D01*
X210392857Y-55880952D01*
X210440476Y-55976190D01*
X210488095Y-56023809D01*
X210583333Y-56071428D01*
X210773809Y-56071428D01*
X210869047Y-56023809D01*
X210916666Y-55976190D01*
X210964285Y-55880952D01*
%TO.C,F6*%
X209916666Y-89303571D02*
X209583333Y-89303571D01*
X209583333Y-89827380D02*
X209583333Y-88827380D01*
X210059523Y-88827380D01*
X210869047Y-88827380D02*
X210678571Y-88827380D01*
X210583333Y-88875000D01*
X210535714Y-88922619D01*
X210440476Y-89065476D01*
X210392857Y-89255952D01*
X210392857Y-89636904D01*
X210440476Y-89732142D01*
X210488095Y-89779761D01*
X210583333Y-89827380D01*
X210773809Y-89827380D01*
X210869047Y-89779761D01*
X210916666Y-89732142D01*
X210964285Y-89636904D01*
X210964285Y-89398809D01*
X210916666Y-89303571D01*
X210869047Y-89255952D01*
X210773809Y-89208333D01*
X210583333Y-89208333D01*
X210488095Y-89255952D01*
X210440476Y-89303571D01*
X210392857Y-89398809D01*
%TO.C,R23*%
X167032142Y-91279880D02*
X166698809Y-90803690D01*
X166460714Y-91279880D02*
X166460714Y-90279880D01*
X166841666Y-90279880D01*
X166936904Y-90327500D01*
X166984523Y-90375119D01*
X167032142Y-90470357D01*
X167032142Y-90613214D01*
X166984523Y-90708452D01*
X166936904Y-90756071D01*
X166841666Y-90803690D01*
X166460714Y-90803690D01*
X167413095Y-90375119D02*
X167460714Y-90327500D01*
X167555952Y-90279880D01*
X167794047Y-90279880D01*
X167889285Y-90327500D01*
X167936904Y-90375119D01*
X167984523Y-90470357D01*
X167984523Y-90565595D01*
X167936904Y-90708452D01*
X167365476Y-91279880D01*
X167984523Y-91279880D01*
X168317857Y-90279880D02*
X168936904Y-90279880D01*
X168603571Y-90660833D01*
X168746428Y-90660833D01*
X168841666Y-90708452D01*
X168889285Y-90756071D01*
X168936904Y-90851309D01*
X168936904Y-91089404D01*
X168889285Y-91184642D01*
X168841666Y-91232261D01*
X168746428Y-91279880D01*
X168460714Y-91279880D01*
X168365476Y-91232261D01*
X168317857Y-91184642D01*
%TO.C,R25*%
X182719642Y-62502380D02*
X182386309Y-62026190D01*
X182148214Y-62502380D02*
X182148214Y-61502380D01*
X182529166Y-61502380D01*
X182624404Y-61550000D01*
X182672023Y-61597619D01*
X182719642Y-61692857D01*
X182719642Y-61835714D01*
X182672023Y-61930952D01*
X182624404Y-61978571D01*
X182529166Y-62026190D01*
X182148214Y-62026190D01*
X183100595Y-61597619D02*
X183148214Y-61550000D01*
X183243452Y-61502380D01*
X183481547Y-61502380D01*
X183576785Y-61550000D01*
X183624404Y-61597619D01*
X183672023Y-61692857D01*
X183672023Y-61788095D01*
X183624404Y-61930952D01*
X183052976Y-62502380D01*
X183672023Y-62502380D01*
X184576785Y-61502380D02*
X184100595Y-61502380D01*
X184052976Y-61978571D01*
X184100595Y-61930952D01*
X184195833Y-61883333D01*
X184433928Y-61883333D01*
X184529166Y-61930952D01*
X184576785Y-61978571D01*
X184624404Y-62073809D01*
X184624404Y-62311904D01*
X184576785Y-62407142D01*
X184529166Y-62454761D01*
X184433928Y-62502380D01*
X184195833Y-62502380D01*
X184100595Y-62454761D01*
X184052976Y-62407142D01*
%TO.C,R19*%
X167032142Y-89279880D02*
X166698809Y-88803690D01*
X166460714Y-89279880D02*
X166460714Y-88279880D01*
X166841666Y-88279880D01*
X166936904Y-88327500D01*
X166984523Y-88375119D01*
X167032142Y-88470357D01*
X167032142Y-88613214D01*
X166984523Y-88708452D01*
X166936904Y-88756071D01*
X166841666Y-88803690D01*
X166460714Y-88803690D01*
X167984523Y-89279880D02*
X167413095Y-89279880D01*
X167698809Y-89279880D02*
X167698809Y-88279880D01*
X167603571Y-88422738D01*
X167508333Y-88517976D01*
X167413095Y-88565595D01*
X168460714Y-89279880D02*
X168651190Y-89279880D01*
X168746428Y-89232261D01*
X168794047Y-89184642D01*
X168889285Y-89041785D01*
X168936904Y-88851309D01*
X168936904Y-88470357D01*
X168889285Y-88375119D01*
X168841666Y-88327500D01*
X168746428Y-88279880D01*
X168555952Y-88279880D01*
X168460714Y-88327500D01*
X168413095Y-88375119D01*
X168365476Y-88470357D01*
X168365476Y-88708452D01*
X168413095Y-88803690D01*
X168460714Y-88851309D01*
X168555952Y-88898928D01*
X168746428Y-88898928D01*
X168841666Y-88851309D01*
X168889285Y-88803690D01*
X168936904Y-88708452D01*
%TO.C,F13*%
X124214399Y-130673759D02*
X123881065Y-130673759D01*
X123881065Y-131197568D02*
X123881065Y-130197568D01*
X124357256Y-130197568D01*
X125262018Y-131197568D02*
X124690589Y-131197568D01*
X124976303Y-131197568D02*
X124976303Y-130197568D01*
X124881065Y-130340426D01*
X124785827Y-130435664D01*
X124690589Y-130483283D01*
X125595351Y-130197568D02*
X126214399Y-130197568D01*
X125881065Y-130578521D01*
X126023923Y-130578521D01*
X126119161Y-130626140D01*
X126166780Y-130673759D01*
X126214399Y-130768997D01*
X126214399Y-131007092D01*
X126166780Y-131102330D01*
X126119161Y-131149949D01*
X126023923Y-131197568D01*
X125738208Y-131197568D01*
X125642970Y-131149949D01*
X125595351Y-131102330D01*
%TO.C,F5*%
X124690589Y-163673759D02*
X124357256Y-163673759D01*
X124357256Y-164197568D02*
X124357256Y-163197568D01*
X124833446Y-163197568D01*
X125690589Y-163197568D02*
X125214399Y-163197568D01*
X125166780Y-163673759D01*
X125214399Y-163626140D01*
X125309637Y-163578521D01*
X125547732Y-163578521D01*
X125642970Y-163626140D01*
X125690589Y-163673759D01*
X125738208Y-163768997D01*
X125738208Y-164007092D01*
X125690589Y-164102330D01*
X125642970Y-164149949D01*
X125547732Y-164197568D01*
X125309637Y-164197568D01*
X125214399Y-164149949D01*
X125166780Y-164102330D01*
%TO.C,R2*%
X69833333Y-55452380D02*
X69500000Y-54976190D01*
X69261904Y-55452380D02*
X69261904Y-54452380D01*
X69642857Y-54452380D01*
X69738095Y-54500000D01*
X69785714Y-54547619D01*
X69833333Y-54642857D01*
X69833333Y-54785714D01*
X69785714Y-54880952D01*
X69738095Y-54928571D01*
X69642857Y-54976190D01*
X69261904Y-54976190D01*
X70214285Y-54547619D02*
X70261904Y-54500000D01*
X70357142Y-54452380D01*
X70595238Y-54452380D01*
X70690476Y-54500000D01*
X70738095Y-54547619D01*
X70785714Y-54642857D01*
X70785714Y-54738095D01*
X70738095Y-54880952D01*
X70166666Y-55452380D01*
X70785714Y-55452380D01*
%TO.C,U4*%
X167203095Y-70957380D02*
X167203095Y-71766904D01*
X167250714Y-71862142D01*
X167298333Y-71909761D01*
X167393571Y-71957380D01*
X167584047Y-71957380D01*
X167679285Y-71909761D01*
X167726904Y-71862142D01*
X167774523Y-71766904D01*
X167774523Y-70957380D01*
X168679285Y-71290714D02*
X168679285Y-71957380D01*
X168441190Y-70909761D02*
X168203095Y-71624047D01*
X168822142Y-71624047D01*
%TO.C,R7*%
X140833333Y-91779880D02*
X140500000Y-91303690D01*
X140261904Y-91779880D02*
X140261904Y-90779880D01*
X140642857Y-90779880D01*
X140738095Y-90827500D01*
X140785714Y-90875119D01*
X140833333Y-90970357D01*
X140833333Y-91113214D01*
X140785714Y-91208452D01*
X140738095Y-91256071D01*
X140642857Y-91303690D01*
X140261904Y-91303690D01*
X141166666Y-90779880D02*
X141833333Y-90779880D01*
X141404761Y-91779880D01*
%TO.C,R6*%
X140920833Y-93779880D02*
X140587500Y-93303690D01*
X140349404Y-93779880D02*
X140349404Y-92779880D01*
X140730357Y-92779880D01*
X140825595Y-92827500D01*
X140873214Y-92875119D01*
X140920833Y-92970357D01*
X140920833Y-93113214D01*
X140873214Y-93208452D01*
X140825595Y-93256071D01*
X140730357Y-93303690D01*
X140349404Y-93303690D01*
X141777976Y-92779880D02*
X141587500Y-92779880D01*
X141492261Y-92827500D01*
X141444642Y-92875119D01*
X141349404Y-93017976D01*
X141301785Y-93208452D01*
X141301785Y-93589404D01*
X141349404Y-93684642D01*
X141397023Y-93732261D01*
X141492261Y-93779880D01*
X141682738Y-93779880D01*
X141777976Y-93732261D01*
X141825595Y-93684642D01*
X141873214Y-93589404D01*
X141873214Y-93351309D01*
X141825595Y-93256071D01*
X141777976Y-93208452D01*
X141682738Y-93160833D01*
X141492261Y-93160833D01*
X141397023Y-93208452D01*
X141349404Y-93256071D01*
X141301785Y-93351309D01*
%TO.C,R17*%
X69357142Y-73452380D02*
X69023809Y-72976190D01*
X68785714Y-73452380D02*
X68785714Y-72452380D01*
X69166666Y-72452380D01*
X69261904Y-72500000D01*
X69309523Y-72547619D01*
X69357142Y-72642857D01*
X69357142Y-72785714D01*
X69309523Y-72880952D01*
X69261904Y-72928571D01*
X69166666Y-72976190D01*
X68785714Y-72976190D01*
X70309523Y-73452380D02*
X69738095Y-73452380D01*
X70023809Y-73452380D02*
X70023809Y-72452380D01*
X69928571Y-72595238D01*
X69833333Y-72690476D01*
X69738095Y-72738095D01*
X70642857Y-72452380D02*
X71309523Y-72452380D01*
X70880952Y-73452380D01*
%TO.C,F4*%
X209916666Y-111553571D02*
X209583333Y-111553571D01*
X209583333Y-112077380D02*
X209583333Y-111077380D01*
X210059523Y-111077380D01*
X210869047Y-111410714D02*
X210869047Y-112077380D01*
X210630952Y-111029761D02*
X210392857Y-111744047D01*
X211011904Y-111744047D01*
%TO.C,R8*%
X152195833Y-64502380D02*
X151862500Y-64026190D01*
X151624404Y-64502380D02*
X151624404Y-63502380D01*
X152005357Y-63502380D01*
X152100595Y-63550000D01*
X152148214Y-63597619D01*
X152195833Y-63692857D01*
X152195833Y-63835714D01*
X152148214Y-63930952D01*
X152100595Y-63978571D01*
X152005357Y-64026190D01*
X151624404Y-64026190D01*
X152767261Y-63930952D02*
X152672023Y-63883333D01*
X152624404Y-63835714D01*
X152576785Y-63740476D01*
X152576785Y-63692857D01*
X152624404Y-63597619D01*
X152672023Y-63550000D01*
X152767261Y-63502380D01*
X152957738Y-63502380D01*
X153052976Y-63550000D01*
X153100595Y-63597619D01*
X153148214Y-63692857D01*
X153148214Y-63740476D01*
X153100595Y-63835714D01*
X153052976Y-63883333D01*
X152957738Y-63930952D01*
X152767261Y-63930952D01*
X152672023Y-63978571D01*
X152624404Y-64026190D01*
X152576785Y-64121428D01*
X152576785Y-64311904D01*
X152624404Y-64407142D01*
X152672023Y-64454761D01*
X152767261Y-64502380D01*
X152957738Y-64502380D01*
X153052976Y-64454761D01*
X153100595Y-64407142D01*
X153148214Y-64311904D01*
X153148214Y-64121428D01*
X153100595Y-64026190D01*
X153052976Y-63978571D01*
X152957738Y-63930952D01*
%TO.C,J2*%
X192666666Y-81972380D02*
X192666666Y-82686666D01*
X192619047Y-82829523D01*
X192523809Y-82924761D01*
X192380952Y-82972380D01*
X192285714Y-82972380D01*
X193095238Y-82067619D02*
X193142857Y-82020000D01*
X193238095Y-81972380D01*
X193476190Y-81972380D01*
X193571428Y-82020000D01*
X193619047Y-82067619D01*
X193666666Y-82162857D01*
X193666666Y-82258095D01*
X193619047Y-82400952D01*
X193047619Y-82972380D01*
X193666666Y-82972380D01*
%TO.C,F10*%
X85782575Y-151673759D02*
X85449241Y-151673759D01*
X85449241Y-152197568D02*
X85449241Y-151197568D01*
X85925432Y-151197568D01*
X86830194Y-152197568D02*
X86258765Y-152197568D01*
X86544479Y-152197568D02*
X86544479Y-151197568D01*
X86449241Y-151340426D01*
X86354003Y-151435664D01*
X86258765Y-151483283D01*
X87449241Y-151197568D02*
X87544479Y-151197568D01*
X87639718Y-151245188D01*
X87687337Y-151292807D01*
X87734956Y-151388045D01*
X87782575Y-151578521D01*
X87782575Y-151816616D01*
X87734956Y-152007092D01*
X87687337Y-152102330D01*
X87639718Y-152149949D01*
X87544479Y-152197568D01*
X87449241Y-152197568D01*
X87354003Y-152149949D01*
X87306384Y-152102330D01*
X87258765Y-152007092D01*
X87211146Y-151816616D01*
X87211146Y-151578521D01*
X87258765Y-151388045D01*
X87306384Y-151292807D01*
X87354003Y-151245188D01*
X87449241Y-151197568D01*
%TO.C,R18*%
X167032142Y-87279880D02*
X166698809Y-86803690D01*
X166460714Y-87279880D02*
X166460714Y-86279880D01*
X166841666Y-86279880D01*
X166936904Y-86327500D01*
X166984523Y-86375119D01*
X167032142Y-86470357D01*
X167032142Y-86613214D01*
X166984523Y-86708452D01*
X166936904Y-86756071D01*
X166841666Y-86803690D01*
X166460714Y-86803690D01*
X167984523Y-87279880D02*
X167413095Y-87279880D01*
X167698809Y-87279880D02*
X167698809Y-86279880D01*
X167603571Y-86422738D01*
X167508333Y-86517976D01*
X167413095Y-86565595D01*
X168555952Y-86708452D02*
X168460714Y-86660833D01*
X168413095Y-86613214D01*
X168365476Y-86517976D01*
X168365476Y-86470357D01*
X168413095Y-86375119D01*
X168460714Y-86327500D01*
X168555952Y-86279880D01*
X168746428Y-86279880D01*
X168841666Y-86327500D01*
X168889285Y-86375119D01*
X168936904Y-86470357D01*
X168936904Y-86517976D01*
X168889285Y-86613214D01*
X168841666Y-86660833D01*
X168746428Y-86708452D01*
X168555952Y-86708452D01*
X168460714Y-86756071D01*
X168413095Y-86803690D01*
X168365476Y-86898928D01*
X168365476Y-87089404D01*
X168413095Y-87184642D01*
X168460714Y-87232261D01*
X168555952Y-87279880D01*
X168746428Y-87279880D01*
X168841666Y-87232261D01*
X168889285Y-87184642D01*
X168936904Y-87089404D01*
X168936904Y-86898928D01*
X168889285Y-86803690D01*
X168841666Y-86756071D01*
X168746428Y-86708452D01*
%TO.C,R14*%
X150719642Y-58502380D02*
X150386309Y-58026190D01*
X150148214Y-58502380D02*
X150148214Y-57502380D01*
X150529166Y-57502380D01*
X150624404Y-57550000D01*
X150672023Y-57597619D01*
X150719642Y-57692857D01*
X150719642Y-57835714D01*
X150672023Y-57930952D01*
X150624404Y-57978571D01*
X150529166Y-58026190D01*
X150148214Y-58026190D01*
X151672023Y-58502380D02*
X151100595Y-58502380D01*
X151386309Y-58502380D02*
X151386309Y-57502380D01*
X151291071Y-57645238D01*
X151195833Y-57740476D01*
X151100595Y-57788095D01*
X152529166Y-57835714D02*
X152529166Y-58502380D01*
X152291071Y-57454761D02*
X152052976Y-58169047D01*
X152672023Y-58169047D01*
%TO.C,R21*%
X182807142Y-60502380D02*
X182473809Y-60026190D01*
X182235714Y-60502380D02*
X182235714Y-59502380D01*
X182616666Y-59502380D01*
X182711904Y-59550000D01*
X182759523Y-59597619D01*
X182807142Y-59692857D01*
X182807142Y-59835714D01*
X182759523Y-59930952D01*
X182711904Y-59978571D01*
X182616666Y-60026190D01*
X182235714Y-60026190D01*
X183188095Y-59597619D02*
X183235714Y-59550000D01*
X183330952Y-59502380D01*
X183569047Y-59502380D01*
X183664285Y-59550000D01*
X183711904Y-59597619D01*
X183759523Y-59692857D01*
X183759523Y-59788095D01*
X183711904Y-59930952D01*
X183140476Y-60502380D01*
X183759523Y-60502380D01*
X184711904Y-60502380D02*
X184140476Y-60502380D01*
X184426190Y-60502380D02*
X184426190Y-59502380D01*
X184330952Y-59645238D01*
X184235714Y-59740476D01*
X184140476Y-59788095D01*
%TO.C,R13*%
X140032142Y-89779880D02*
X139698809Y-89303690D01*
X139460714Y-89779880D02*
X139460714Y-88779880D01*
X139841666Y-88779880D01*
X139936904Y-88827500D01*
X139984523Y-88875119D01*
X140032142Y-88970357D01*
X140032142Y-89113214D01*
X139984523Y-89208452D01*
X139936904Y-89256071D01*
X139841666Y-89303690D01*
X139460714Y-89303690D01*
X140984523Y-89779880D02*
X140413095Y-89779880D01*
X140698809Y-89779880D02*
X140698809Y-88779880D01*
X140603571Y-88922738D01*
X140508333Y-89017976D01*
X140413095Y-89065595D01*
X141317857Y-88779880D02*
X141936904Y-88779880D01*
X141603571Y-89160833D01*
X141746428Y-89160833D01*
X141841666Y-89208452D01*
X141889285Y-89256071D01*
X141936904Y-89351309D01*
X141936904Y-89589404D01*
X141889285Y-89684642D01*
X141841666Y-89732261D01*
X141746428Y-89779880D01*
X141460714Y-89779880D01*
X141365476Y-89732261D01*
X141317857Y-89684642D01*
%TO.C,J1*%
X225666666Y-106932380D02*
X225666666Y-107646666D01*
X225619047Y-107789523D01*
X225523809Y-107884761D01*
X225380952Y-107932380D01*
X225285714Y-107932380D01*
X226666666Y-107932380D02*
X226095238Y-107932380D01*
X226380952Y-107932380D02*
X226380952Y-106932380D01*
X226285714Y-107075238D01*
X226190476Y-107170476D01*
X226095238Y-107218095D01*
%TO.C,F4*%
X124690589Y-180173759D02*
X124357256Y-180173759D01*
X124357256Y-180697568D02*
X124357256Y-179697568D01*
X124833446Y-179697568D01*
X125642970Y-180030902D02*
X125642970Y-180697568D01*
X125404875Y-179649949D02*
X125166780Y-180364235D01*
X125785827Y-180364235D01*
%TO.C,D2*%
X95412380Y-99008095D02*
X94412380Y-99008095D01*
X94412380Y-98770000D01*
X94460000Y-98627142D01*
X94555238Y-98531904D01*
X94650476Y-98484285D01*
X94840952Y-98436666D01*
X94983809Y-98436666D01*
X95174285Y-98484285D01*
X95269523Y-98531904D01*
X95364761Y-98627142D01*
X95412380Y-98770000D01*
X95412380Y-99008095D01*
X94507619Y-98055714D02*
X94460000Y-98008095D01*
X94412380Y-97912857D01*
X94412380Y-97674761D01*
X94460000Y-97579523D01*
X94507619Y-97531904D01*
X94602857Y-97484285D01*
X94698095Y-97484285D01*
X94840952Y-97531904D01*
X95412380Y-98103333D01*
X95412380Y-97484285D01*
%TO.C,R5*%
X69753333Y-58452380D02*
X69420000Y-57976190D01*
X69181904Y-58452380D02*
X69181904Y-57452380D01*
X69562857Y-57452380D01*
X69658095Y-57500000D01*
X69705714Y-57547619D01*
X69753333Y-57642857D01*
X69753333Y-57785714D01*
X69705714Y-57880952D01*
X69658095Y-57928571D01*
X69562857Y-57976190D01*
X69181904Y-57976190D01*
X70658095Y-57452380D02*
X70181904Y-57452380D01*
X70134285Y-57928571D01*
X70181904Y-57880952D01*
X70277142Y-57833333D01*
X70515238Y-57833333D01*
X70610476Y-57880952D01*
X70658095Y-57928571D01*
X70705714Y-58023809D01*
X70705714Y-58261904D01*
X70658095Y-58357142D01*
X70610476Y-58404761D01*
X70515238Y-58452380D01*
X70277142Y-58452380D01*
X70181904Y-58404761D01*
X70134285Y-58357142D01*
%TO.C,R3*%
X69753333Y-52452380D02*
X69420000Y-51976190D01*
X69181904Y-52452380D02*
X69181904Y-51452380D01*
X69562857Y-51452380D01*
X69658095Y-51500000D01*
X69705714Y-51547619D01*
X69753333Y-51642857D01*
X69753333Y-51785714D01*
X69705714Y-51880952D01*
X69658095Y-51928571D01*
X69562857Y-51976190D01*
X69181904Y-51976190D01*
X70086666Y-51452380D02*
X70705714Y-51452380D01*
X70372380Y-51833333D01*
X70515238Y-51833333D01*
X70610476Y-51880952D01*
X70658095Y-51928571D01*
X70705714Y-52023809D01*
X70705714Y-52261904D01*
X70658095Y-52357142D01*
X70610476Y-52404761D01*
X70515238Y-52452380D01*
X70229523Y-52452380D01*
X70134285Y-52404761D01*
X70086666Y-52357142D01*
%TO.C,J1*%
X47726238Y-53495211D02*
X48727673Y-53495211D01*
X48927959Y-53561973D01*
X49061484Y-53695497D01*
X49128246Y-53895784D01*
X49128246Y-54029309D01*
X49128246Y-52093203D02*
X49128246Y-52894350D01*
X49128246Y-52493776D02*
X47726238Y-52493776D01*
X47926525Y-52627301D01*
X48060050Y-52760825D01*
X48126812Y-52894350D01*
%TO.C,R11*%
X69277142Y-64452380D02*
X68943809Y-63976190D01*
X68705714Y-64452380D02*
X68705714Y-63452380D01*
X69086666Y-63452380D01*
X69181904Y-63500000D01*
X69229523Y-63547619D01*
X69277142Y-63642857D01*
X69277142Y-63785714D01*
X69229523Y-63880952D01*
X69181904Y-63928571D01*
X69086666Y-63976190D01*
X68705714Y-63976190D01*
X70229523Y-64452380D02*
X69658095Y-64452380D01*
X69943809Y-64452380D02*
X69943809Y-63452380D01*
X69848571Y-63595238D01*
X69753333Y-63690476D01*
X69658095Y-63738095D01*
X71181904Y-64452380D02*
X70610476Y-64452380D01*
X70896190Y-64452380D02*
X70896190Y-63452380D01*
X70800952Y-63595238D01*
X70705714Y-63690476D01*
X70610476Y-63738095D01*
%TO.C,F1*%
X209916666Y-144928571D02*
X209583333Y-144928571D01*
X209583333Y-145452380D02*
X209583333Y-144452380D01*
X210059523Y-144452380D01*
X210964285Y-145452380D02*
X210392857Y-145452380D01*
X210678571Y-145452380D02*
X210678571Y-144452380D01*
X210583333Y-144595238D01*
X210488095Y-144690476D01*
X210392857Y-144738095D01*
%TO.C,F12*%
X86464399Y-118673759D02*
X86131065Y-118673759D01*
X86131065Y-119197568D02*
X86131065Y-118197568D01*
X86607256Y-118197568D01*
X87512018Y-119197568D02*
X86940589Y-119197568D01*
X87226303Y-119197568D02*
X87226303Y-118197568D01*
X87131065Y-118340426D01*
X87035827Y-118435664D01*
X86940589Y-118483283D01*
X87892970Y-118292807D02*
X87940589Y-118245188D01*
X88035827Y-118197568D01*
X88273923Y-118197568D01*
X88369161Y-118245188D01*
X88416780Y-118292807D01*
X88464399Y-118388045D01*
X88464399Y-118483283D01*
X88416780Y-118626140D01*
X87845351Y-119197568D01*
X88464399Y-119197568D01*
%TO.C,J1*%
X50250161Y-140740399D02*
X51251596Y-140740399D01*
X51451882Y-140807161D01*
X51585407Y-140940685D01*
X51652169Y-141140972D01*
X51652169Y-141274497D01*
X51652169Y-139338391D02*
X51652169Y-140139538D01*
X51652169Y-139738964D02*
X50250161Y-139738964D01*
X50450448Y-139872489D01*
X50583973Y-140006013D01*
X50650735Y-140139538D01*
%TO.C,F1*%
X159690589Y-180173759D02*
X159357256Y-180173759D01*
X159357256Y-180697568D02*
X159357256Y-179697568D01*
X159833446Y-179697568D01*
X160738208Y-180697568D02*
X160166780Y-180697568D01*
X160452494Y-180697568D02*
X160452494Y-179697568D01*
X160357256Y-179840426D01*
X160262018Y-179935664D01*
X160166780Y-179983283D01*
%TO.C,F5*%
X209916666Y-100428571D02*
X209583333Y-100428571D01*
X209583333Y-100952380D02*
X209583333Y-99952380D01*
X210059523Y-99952380D01*
X210916666Y-99952380D02*
X210440476Y-99952380D01*
X210392857Y-100428571D01*
X210440476Y-100380952D01*
X210535714Y-100333333D01*
X210773809Y-100333333D01*
X210869047Y-100380952D01*
X210916666Y-100428571D01*
X210964285Y-100523809D01*
X210964285Y-100761904D01*
X210916666Y-100857142D01*
X210869047Y-100904761D01*
X210773809Y-100952380D01*
X210535714Y-100952380D01*
X210440476Y-100904761D01*
X210392857Y-100857142D01*
%TO.C,J4*%
X114042380Y-79333333D02*
X114756666Y-79333333D01*
X114899523Y-79380952D01*
X114994761Y-79476190D01*
X115042380Y-79619047D01*
X115042380Y-79714285D01*
X114375714Y-78428571D02*
X115042380Y-78428571D01*
X113994761Y-78666666D02*
X114709047Y-78904761D01*
X114709047Y-78285714D01*
%TO.C,U5*%
X124731904Y-83110119D02*
X124731904Y-82300595D01*
X124684285Y-82205357D01*
X124636666Y-82157738D01*
X124541428Y-82110119D01*
X124350952Y-82110119D01*
X124255714Y-82157738D01*
X124208095Y-82205357D01*
X124160476Y-82300595D01*
X124160476Y-83110119D01*
X123208095Y-83110119D02*
X123684285Y-83110119D01*
X123731904Y-82633928D01*
X123684285Y-82681547D01*
X123589047Y-82729166D01*
X123350952Y-82729166D01*
X123255714Y-82681547D01*
X123208095Y-82633928D01*
X123160476Y-82538690D01*
X123160476Y-82300595D01*
X123208095Y-82205357D01*
X123255714Y-82157738D01*
X123350952Y-82110119D01*
X123589047Y-82110119D01*
X123684285Y-82157738D01*
X123731904Y-82205357D01*
%TO.C,F18*%
X159214399Y-151673759D02*
X158881065Y-151673759D01*
X158881065Y-152197568D02*
X158881065Y-151197568D01*
X159357256Y-151197568D01*
X160262018Y-152197568D02*
X159690589Y-152197568D01*
X159976303Y-152197568D02*
X159976303Y-151197568D01*
X159881065Y-151340426D01*
X159785827Y-151435664D01*
X159690589Y-151483283D01*
X160833446Y-151626140D02*
X160738208Y-151578521D01*
X160690589Y-151530902D01*
X160642970Y-151435664D01*
X160642970Y-151388045D01*
X160690589Y-151292807D01*
X160738208Y-151245188D01*
X160833446Y-151197568D01*
X161023923Y-151197568D01*
X161119161Y-151245188D01*
X161166780Y-151292807D01*
X161214399Y-151388045D01*
X161214399Y-151435664D01*
X161166780Y-151530902D01*
X161119161Y-151578521D01*
X161023923Y-151626140D01*
X160833446Y-151626140D01*
X160738208Y-151673759D01*
X160690589Y-151721378D01*
X160642970Y-151816616D01*
X160642970Y-152007092D01*
X160690589Y-152102330D01*
X160738208Y-152149949D01*
X160833446Y-152197568D01*
X161023923Y-152197568D01*
X161119161Y-152149949D01*
X161166780Y-152102330D01*
X161214399Y-152007092D01*
X161214399Y-151816616D01*
X161166780Y-151721378D01*
X161119161Y-151673759D01*
X161023923Y-151626140D01*
%TO.C,J10*%
X173196303Y-141634711D02*
X173910589Y-141634711D01*
X174053446Y-141682330D01*
X174148684Y-141777568D01*
X174196303Y-141920426D01*
X174196303Y-142015664D01*
X174196303Y-140634711D02*
X174196303Y-141206140D01*
X174196303Y-140920426D02*
X173196303Y-140920426D01*
X173339161Y-141015664D01*
X173434399Y-141110902D01*
X173482018Y-141206140D01*
X173196303Y-140015664D02*
X173196303Y-139920426D01*
X173243923Y-139825188D01*
X173291542Y-139777568D01*
X173386780Y-139729949D01*
X173577256Y-139682330D01*
X173815351Y-139682330D01*
X174005827Y-139729949D01*
X174101065Y-139777568D01*
X174148684Y-139825188D01*
X174196303Y-139920426D01*
X174196303Y-140015664D01*
X174148684Y-140110902D01*
X174101065Y-140158521D01*
X174005827Y-140206140D01*
X173815351Y-140253759D01*
X173577256Y-140253759D01*
X173386780Y-140206140D01*
X173291542Y-140158521D01*
X173243923Y-140110902D01*
X173196303Y-140015664D01*
%TO.C,F19*%
X159214399Y-135173759D02*
X158881065Y-135173759D01*
X158881065Y-135697568D02*
X158881065Y-134697568D01*
X159357256Y-134697568D01*
X160262018Y-135697568D02*
X159690589Y-135697568D01*
X159976303Y-135697568D02*
X159976303Y-134697568D01*
X159881065Y-134840426D01*
X159785827Y-134935664D01*
X159690589Y-134983283D01*
X160738208Y-135697568D02*
X160928684Y-135697568D01*
X161023923Y-135649949D01*
X161071542Y-135602330D01*
X161166780Y-135459473D01*
X161214399Y-135268997D01*
X161214399Y-134888045D01*
X161166780Y-134792807D01*
X161119161Y-134745188D01*
X161023923Y-134697568D01*
X160833446Y-134697568D01*
X160738208Y-134745188D01*
X160690589Y-134792807D01*
X160642970Y-134888045D01*
X160642970Y-135126140D01*
X160690589Y-135221378D01*
X160738208Y-135268997D01*
X160833446Y-135316616D01*
X161023923Y-135316616D01*
X161119161Y-135268997D01*
X161166780Y-135221378D01*
X161214399Y-135126140D01*
%TO.C,F3*%
X124690589Y-196673759D02*
X124357256Y-196673759D01*
X124357256Y-197197568D02*
X124357256Y-196197568D01*
X124833446Y-196197568D01*
X125119161Y-196197568D02*
X125738208Y-196197568D01*
X125404875Y-196578521D01*
X125547732Y-196578521D01*
X125642970Y-196626140D01*
X125690589Y-196673759D01*
X125738208Y-196768997D01*
X125738208Y-197007092D01*
X125690589Y-197102330D01*
X125642970Y-197149949D01*
X125547732Y-197197568D01*
X125262018Y-197197568D01*
X125166780Y-197149949D01*
X125119161Y-197102330D01*
%TO.C,R10*%
X69437142Y-67452380D02*
X69103809Y-66976190D01*
X68865714Y-67452380D02*
X68865714Y-66452380D01*
X69246666Y-66452380D01*
X69341904Y-66500000D01*
X69389523Y-66547619D01*
X69437142Y-66642857D01*
X69437142Y-66785714D01*
X69389523Y-66880952D01*
X69341904Y-66928571D01*
X69246666Y-66976190D01*
X68865714Y-66976190D01*
X70389523Y-67452380D02*
X69818095Y-67452380D01*
X70103809Y-67452380D02*
X70103809Y-66452380D01*
X70008571Y-66595238D01*
X69913333Y-66690476D01*
X69818095Y-66738095D01*
X71008571Y-66452380D02*
X71103809Y-66452380D01*
X71199047Y-66500000D01*
X71246666Y-66547619D01*
X71294285Y-66642857D01*
X71341904Y-66833333D01*
X71341904Y-67071428D01*
X71294285Y-67261904D01*
X71246666Y-67357142D01*
X71199047Y-67404761D01*
X71103809Y-67452380D01*
X71008571Y-67452380D01*
X70913333Y-67404761D01*
X70865714Y-67357142D01*
X70818095Y-67261904D01*
X70770476Y-67071428D01*
X70770476Y-66833333D01*
X70818095Y-66642857D01*
X70865714Y-66547619D01*
X70913333Y-66500000D01*
X71008571Y-66452380D01*
%TO.C,R20*%
X182719642Y-58502380D02*
X182386309Y-58026190D01*
X182148214Y-58502380D02*
X182148214Y-57502380D01*
X182529166Y-57502380D01*
X182624404Y-57550000D01*
X182672023Y-57597619D01*
X182719642Y-57692857D01*
X182719642Y-57835714D01*
X182672023Y-57930952D01*
X182624404Y-57978571D01*
X182529166Y-58026190D01*
X182148214Y-58026190D01*
X183100595Y-57597619D02*
X183148214Y-57550000D01*
X183243452Y-57502380D01*
X183481547Y-57502380D01*
X183576785Y-57550000D01*
X183624404Y-57597619D01*
X183672023Y-57692857D01*
X183672023Y-57788095D01*
X183624404Y-57930952D01*
X183052976Y-58502380D01*
X183672023Y-58502380D01*
X184291071Y-57502380D02*
X184386309Y-57502380D01*
X184481547Y-57550000D01*
X184529166Y-57597619D01*
X184576785Y-57692857D01*
X184624404Y-57883333D01*
X184624404Y-58121428D01*
X184576785Y-58311904D01*
X184529166Y-58407142D01*
X184481547Y-58454761D01*
X184386309Y-58502380D01*
X184291071Y-58502380D01*
X184195833Y-58454761D01*
X184148214Y-58407142D01*
X184100595Y-58311904D01*
X184052976Y-58121428D01*
X184052976Y-57883333D01*
X184100595Y-57692857D01*
X184148214Y-57597619D01*
X184195833Y-57550000D01*
X184291071Y-57502380D01*
%TO.C,U1*%
X90012380Y-63761904D02*
X90821904Y-63761904D01*
X90917142Y-63714285D01*
X90964761Y-63666666D01*
X91012380Y-63571428D01*
X91012380Y-63380952D01*
X90964761Y-63285714D01*
X90917142Y-63238095D01*
X90821904Y-63190476D01*
X90012380Y-63190476D01*
X91012380Y-62190476D02*
X91012380Y-62761904D01*
X91012380Y-62476190D02*
X90012380Y-62476190D01*
X90155238Y-62571428D01*
X90250476Y-62666666D01*
X90298095Y-62761904D01*
X140594285Y-62134761D02*
X140722857Y-62182380D01*
X140937142Y-62182380D01*
X141022857Y-62134761D01*
X141065714Y-62087142D01*
X141108571Y-61991904D01*
X141108571Y-61896666D01*
X141065714Y-61801428D01*
X141022857Y-61753809D01*
X140937142Y-61706190D01*
X140765714Y-61658571D01*
X140680000Y-61610952D01*
X140637142Y-61563333D01*
X140594285Y-61468095D01*
X140594285Y-61372857D01*
X140637142Y-61277619D01*
X140680000Y-61230000D01*
X140765714Y-61182380D01*
X140980000Y-61182380D01*
X141108571Y-61230000D01*
X141408571Y-61182380D02*
X141622857Y-62182380D01*
X141794285Y-61468095D01*
X141965714Y-62182380D01*
X142180000Y-61182380D01*
X143037142Y-62087142D02*
X142994285Y-62134761D01*
X142865714Y-62182380D01*
X142780000Y-62182380D01*
X142651428Y-62134761D01*
X142565714Y-62039523D01*
X142522857Y-61944285D01*
X142480000Y-61753809D01*
X142480000Y-61610952D01*
X142522857Y-61420476D01*
X142565714Y-61325238D01*
X142651428Y-61230000D01*
X142780000Y-61182380D01*
X142865714Y-61182380D01*
X142994285Y-61230000D01*
X143037142Y-61277619D01*
X143851428Y-62182380D02*
X143422857Y-62182380D01*
X143422857Y-61182380D01*
X144151428Y-62182380D02*
X144151428Y-61182380D01*
X144665714Y-62182380D02*
X144280000Y-61610952D01*
X144665714Y-61182380D02*
X144151428Y-61753809D01*
X141182285Y-58690000D02*
X141096571Y-58642380D01*
X140968000Y-58642380D01*
X140839428Y-58690000D01*
X140753714Y-58785238D01*
X140710857Y-58880476D01*
X140668000Y-59070952D01*
X140668000Y-59213809D01*
X140710857Y-59404285D01*
X140753714Y-59499523D01*
X140839428Y-59594761D01*
X140968000Y-59642380D01*
X141053714Y-59642380D01*
X141182285Y-59594761D01*
X141225142Y-59547142D01*
X141225142Y-59213809D01*
X141053714Y-59213809D01*
X141610857Y-59642380D02*
X141610857Y-58642380D01*
X142125142Y-59642380D01*
X142125142Y-58642380D01*
X142553714Y-59642380D02*
X142553714Y-58642380D01*
X142768000Y-58642380D01*
X142896571Y-58690000D01*
X142982285Y-58785238D01*
X143025142Y-58880476D01*
X143068000Y-59070952D01*
X143068000Y-59213809D01*
X143025142Y-59404285D01*
X142982285Y-59499523D01*
X142896571Y-59594761D01*
X142768000Y-59642380D01*
X142553714Y-59642380D01*
X140753714Y-66262380D02*
X141310857Y-66262380D01*
X141010857Y-66643333D01*
X141139428Y-66643333D01*
X141225142Y-66690952D01*
X141268000Y-66738571D01*
X141310857Y-66833809D01*
X141310857Y-67071904D01*
X141268000Y-67167142D01*
X141225142Y-67214761D01*
X141139428Y-67262380D01*
X140882285Y-67262380D01*
X140796571Y-67214761D01*
X140753714Y-67167142D01*
X141568000Y-66262380D02*
X141868000Y-67262380D01*
X142168000Y-66262380D01*
X142382285Y-66262380D02*
X142939428Y-66262380D01*
X142639428Y-66643333D01*
X142768000Y-66643333D01*
X142853714Y-66690952D01*
X142896571Y-66738571D01*
X142939428Y-66833809D01*
X142939428Y-67071904D01*
X142896571Y-67167142D01*
X142853714Y-67214761D01*
X142768000Y-67262380D01*
X142510857Y-67262380D01*
X142425142Y-67214761D01*
X142382285Y-67167142D01*
X140625142Y-64674761D02*
X140753714Y-64722380D01*
X140968000Y-64722380D01*
X141053714Y-64674761D01*
X141096571Y-64627142D01*
X141139428Y-64531904D01*
X141139428Y-64436666D01*
X141096571Y-64341428D01*
X141053714Y-64293809D01*
X140968000Y-64246190D01*
X140796571Y-64198571D01*
X140710857Y-64150952D01*
X140668000Y-64103333D01*
X140625142Y-64008095D01*
X140625142Y-63912857D01*
X140668000Y-63817619D01*
X140710857Y-63770000D01*
X140796571Y-63722380D01*
X141010857Y-63722380D01*
X141139428Y-63770000D01*
X141439428Y-63722380D02*
X141653714Y-64722380D01*
X141825142Y-64008095D01*
X141996571Y-64722380D01*
X142210857Y-63722380D01*
X142725142Y-63722380D02*
X142896571Y-63722380D01*
X142982285Y-63770000D01*
X143068000Y-63865238D01*
X143110857Y-64055714D01*
X143110857Y-64389047D01*
X143068000Y-64579523D01*
X142982285Y-64674761D01*
X142896571Y-64722380D01*
X142725142Y-64722380D01*
X142639428Y-64674761D01*
X142553714Y-64579523D01*
X142510857Y-64389047D01*
X142510857Y-64055714D01*
X142553714Y-63865238D01*
X142639428Y-63770000D01*
X142725142Y-63722380D01*
%TO.C,F8*%
X159690589Y-196673759D02*
X159357256Y-196673759D01*
X159357256Y-197197568D02*
X159357256Y-196197568D01*
X159833446Y-196197568D01*
X160357256Y-196626140D02*
X160262018Y-196578521D01*
X160214399Y-196530902D01*
X160166780Y-196435664D01*
X160166780Y-196388045D01*
X160214399Y-196292807D01*
X160262018Y-196245188D01*
X160357256Y-196197568D01*
X160547732Y-196197568D01*
X160642970Y-196245188D01*
X160690589Y-196292807D01*
X160738208Y-196388045D01*
X160738208Y-196435664D01*
X160690589Y-196530902D01*
X160642970Y-196578521D01*
X160547732Y-196626140D01*
X160357256Y-196626140D01*
X160262018Y-196673759D01*
X160214399Y-196721378D01*
X160166780Y-196816616D01*
X160166780Y-197007092D01*
X160214399Y-197102330D01*
X160262018Y-197149949D01*
X160357256Y-197197568D01*
X160547732Y-197197568D01*
X160642970Y-197149949D01*
X160690589Y-197102330D01*
X160738208Y-197007092D01*
X160738208Y-196816616D01*
X160690589Y-196721378D01*
X160642970Y-196673759D01*
X160547732Y-196626140D01*
%TO.C,F6*%
X124690589Y-147173759D02*
X124357256Y-147173759D01*
X124357256Y-147697568D02*
X124357256Y-146697568D01*
X124833446Y-146697568D01*
X125642970Y-146697568D02*
X125452494Y-146697568D01*
X125357256Y-146745188D01*
X125309637Y-146792807D01*
X125214399Y-146935664D01*
X125166780Y-147126140D01*
X125166780Y-147507092D01*
X125214399Y-147602330D01*
X125262018Y-147649949D01*
X125357256Y-147697568D01*
X125547732Y-147697568D01*
X125642970Y-147649949D01*
X125690589Y-147602330D01*
X125738208Y-147507092D01*
X125738208Y-147268997D01*
X125690589Y-147173759D01*
X125642970Y-147126140D01*
X125547732Y-147078521D01*
X125357256Y-147078521D01*
X125262018Y-147126140D01*
X125214399Y-147173759D01*
X125166780Y-147268997D01*
%TO.C,J3*%
X51042380Y-57333333D02*
X51756666Y-57333333D01*
X51899523Y-57380952D01*
X51994761Y-57476190D01*
X52042380Y-57619047D01*
X52042380Y-57714285D01*
X51042380Y-56952380D02*
X51042380Y-56333333D01*
X51423333Y-56666666D01*
X51423333Y-56523809D01*
X51470952Y-56428571D01*
X51518571Y-56380952D01*
X51613809Y-56333333D01*
X51851904Y-56333333D01*
X51947142Y-56380952D01*
X51994761Y-56428571D01*
X52042380Y-56523809D01*
X52042380Y-56809523D01*
X51994761Y-56904761D01*
X51947142Y-56952380D01*
%TO.C,J2*%
X55122380Y-85333333D02*
X55836666Y-85333333D01*
X55979523Y-85380952D01*
X56074761Y-85476190D01*
X56122380Y-85619047D01*
X56122380Y-85714285D01*
X55217619Y-84904761D02*
X55170000Y-84857142D01*
X55122380Y-84761904D01*
X55122380Y-84523809D01*
X55170000Y-84428571D01*
X55217619Y-84380952D01*
X55312857Y-84333333D01*
X55408095Y-84333333D01*
X55550952Y-84380952D01*
X56122380Y-84952380D01*
X56122380Y-84333333D01*
%TO.C,R12*%
X139857142Y-87779880D02*
X139523809Y-87303690D01*
X139285714Y-87779880D02*
X139285714Y-86779880D01*
X139666666Y-86779880D01*
X139761904Y-86827500D01*
X139809523Y-86875119D01*
X139857142Y-86970357D01*
X139857142Y-87113214D01*
X139809523Y-87208452D01*
X139761904Y-87256071D01*
X139666666Y-87303690D01*
X139285714Y-87303690D01*
X140809523Y-87779880D02*
X140238095Y-87779880D01*
X140523809Y-87779880D02*
X140523809Y-86779880D01*
X140428571Y-86922738D01*
X140333333Y-87017976D01*
X140238095Y-87065595D01*
X141190476Y-86875119D02*
X141238095Y-86827500D01*
X141333333Y-86779880D01*
X141571428Y-86779880D01*
X141666666Y-86827500D01*
X141714285Y-86875119D01*
X141761904Y-86970357D01*
X141761904Y-87065595D01*
X141714285Y-87208452D01*
X141142857Y-87779880D01*
X141761904Y-87779880D01*
D11*
%TO.C,J6*%
X93950000Y-80330000D02*
X92620000Y-80330000D01*
X95220000Y-80330000D02*
X102900000Y-80330000D01*
X92620000Y-80330000D02*
X92620000Y-79000000D01*
X102900000Y-80330000D02*
X102900000Y-77670000D01*
X95220000Y-77670000D02*
X102900000Y-77670000D01*
X95220000Y-80330000D02*
X95220000Y-77670000D01*
%TO.C,C1*%
X154436252Y-101150000D02*
X153913748Y-101150000D01*
X154436252Y-99680000D02*
X153913748Y-99680000D01*
%TO.C,F14*%
X75913923Y-205495188D02*
X75913923Y-202335188D01*
X75913923Y-212155188D02*
X98633923Y-212155188D01*
X98633923Y-205495188D02*
X98633923Y-202335188D01*
X98633923Y-212155188D02*
X98633923Y-208995188D01*
X75913923Y-202335188D02*
X98633923Y-202335188D01*
X75913923Y-212155188D02*
X75913923Y-208995188D01*
%TO.C,F11*%
X98633923Y-139495188D02*
X98633923Y-136335188D01*
X75913923Y-139495188D02*
X75913923Y-136335188D01*
X75913923Y-146155188D02*
X75913923Y-142995188D01*
X98633923Y-146155188D02*
X98633923Y-142995188D01*
X75913923Y-136335188D02*
X98633923Y-136335188D01*
X75913923Y-146155188D02*
X98633923Y-146155188D01*
D12*
%TO.C,U2*%
X63000000Y-101000000D02*
X85000000Y-101000000D01*
X85000000Y-84000000D02*
X85000000Y-101000000D01*
D13*
X76970000Y-92110000D02*
X75700000Y-93380000D01*
D12*
X63000000Y-101000000D02*
X63000000Y-84000000D01*
D13*
X76970000Y-92110000D02*
X75700000Y-90840000D01*
X70620000Y-92110000D02*
X76970000Y-92110000D01*
D12*
X63000000Y-84000000D02*
X85000000Y-84000000D01*
D11*
%TO.C,F2*%
X198890000Y-122965000D02*
X198890000Y-126125000D01*
X221610000Y-122965000D02*
X221610000Y-126125000D01*
X221610000Y-122965000D02*
X198890000Y-122965000D01*
X221610000Y-129625000D02*
X221610000Y-132785000D01*
X221610000Y-132785000D02*
X198890000Y-132785000D01*
X198890000Y-129625000D02*
X198890000Y-132785000D01*
%TO.C,J5*%
X112885000Y-80330000D02*
X112885000Y-77670000D01*
X107745000Y-77670000D02*
X112885000Y-77670000D01*
X107745000Y-80330000D02*
X112885000Y-80330000D01*
X107745000Y-80330000D02*
X107745000Y-77670000D01*
X105145000Y-80330000D02*
X105145000Y-79000000D01*
X106475000Y-80330000D02*
X105145000Y-80330000D01*
%TO.C,F15*%
X75913923Y-185835188D02*
X98633923Y-185835188D01*
X98633923Y-195655188D02*
X98633923Y-192495188D01*
X75913923Y-195655188D02*
X75913923Y-192495188D01*
X75913923Y-195655188D02*
X98633923Y-195655188D01*
X75913923Y-188995188D02*
X75913923Y-185835188D01*
X98633923Y-188995188D02*
X98633923Y-185835188D01*
%TO.C,C2*%
X168211252Y-74285000D02*
X167688748Y-74285000D01*
X168211252Y-72815000D02*
X167688748Y-72815000D01*
%TO.C,F3*%
X221610000Y-121660000D02*
X198890000Y-121660000D01*
X198890000Y-111840000D02*
X198890000Y-115000000D01*
X221610000Y-111840000D02*
X221610000Y-115000000D01*
X198890000Y-118500000D02*
X198890000Y-121660000D01*
X221610000Y-111840000D02*
X198890000Y-111840000D01*
X221610000Y-118500000D02*
X221610000Y-121660000D01*
%TO.C,F7*%
X171383923Y-208995188D02*
X171383923Y-212155188D01*
X148663923Y-208995188D02*
X148663923Y-212155188D01*
X171383923Y-202335188D02*
X148663923Y-202335188D01*
X171383923Y-212155188D02*
X148663923Y-212155188D01*
X171383923Y-202335188D02*
X171383923Y-205495188D01*
X148663923Y-202335188D02*
X148663923Y-205495188D01*
%TO.C,R1*%
X91735000Y-90314564D02*
X91735000Y-89860436D01*
X90265000Y-90314564D02*
X90265000Y-89860436D01*
%TO.C,J9*%
X182633923Y-163325188D02*
X182633923Y-153165188D01*
X182633923Y-153165188D02*
X175013923Y-153165188D01*
X175013923Y-163325188D02*
X182633923Y-163325188D01*
X181363923Y-153165188D02*
X181363923Y-163325188D01*
X175013923Y-153165188D02*
X175013923Y-163325188D01*
%TO.C,R16*%
X74730000Y-71370000D02*
X81270000Y-71370000D01*
X81270000Y-68630000D02*
X74730000Y-68630000D01*
X74730000Y-68630000D02*
X74730000Y-71370000D01*
X81270000Y-71370000D02*
X81270000Y-68630000D01*
X82040000Y-70000000D02*
X81270000Y-70000000D01*
X73960000Y-70000000D02*
X74730000Y-70000000D01*
%TO.C,R22*%
X163447936Y-92092500D02*
X163902064Y-92092500D01*
X163447936Y-93562500D02*
X163902064Y-93562500D01*
%TO.C,R24*%
X179135436Y-63315000D02*
X179589564Y-63315000D01*
X179135436Y-64785000D02*
X179589564Y-64785000D01*
%TO.C,J7*%
X181363923Y-115425188D02*
X181363923Y-125585188D01*
X182633923Y-125585188D02*
X182633923Y-115425188D01*
X182633923Y-115425188D02*
X175013923Y-115425188D01*
X175013923Y-125585188D02*
X182633923Y-125585188D01*
X175013923Y-115425188D02*
X175013923Y-125585188D01*
%TO.C,J5*%
X90103923Y-221055188D02*
X90103923Y-213435188D01*
X90103923Y-213435188D02*
X79943923Y-213435188D01*
X79943923Y-213435188D02*
X79943923Y-221055188D01*
X90103923Y-219785188D02*
X79943923Y-219785188D01*
X79943923Y-221055188D02*
X90103923Y-221055188D01*
%TO.C,F7*%
X198890000Y-67340000D02*
X198890000Y-70500000D01*
X221610000Y-67340000D02*
X198890000Y-67340000D01*
X221610000Y-67340000D02*
X221610000Y-70500000D01*
X221610000Y-77160000D02*
X198890000Y-77160000D01*
X198890000Y-74000000D02*
X198890000Y-77160000D01*
X221610000Y-74000000D02*
X221610000Y-77160000D01*
%TO.C,F16*%
X148663923Y-122995188D02*
X148663923Y-119835188D01*
X171383923Y-122995188D02*
X171383923Y-119835188D01*
X148663923Y-129655188D02*
X171383923Y-129655188D01*
X148663923Y-119835188D02*
X171383923Y-119835188D01*
X148663923Y-129655188D02*
X148663923Y-126495188D01*
X171383923Y-129655188D02*
X171383923Y-126495188D01*
%TO.C,D1*%
X57530000Y-95940000D02*
X60470000Y-95940000D01*
X57530000Y-96720000D02*
X60470000Y-96720000D01*
X60470000Y-91280000D02*
X57530000Y-91280000D01*
X59000000Y-90260000D02*
X59000000Y-91280000D01*
X57530000Y-95820000D02*
X60470000Y-95820000D01*
X59000000Y-97740000D02*
X59000000Y-96720000D01*
X57530000Y-91280000D02*
X57530000Y-96720000D01*
X60470000Y-96720000D02*
X60470000Y-91280000D01*
X57530000Y-95700000D02*
X60470000Y-95700000D01*
%TO.C,J4*%
X91403923Y-213435188D02*
X106643923Y-213435188D01*
X106643923Y-221055188D02*
X106643923Y-213435188D01*
X91403923Y-219785188D02*
X106643923Y-219785188D01*
X91403923Y-221055188D02*
X91403923Y-213435188D01*
X91403923Y-221055188D02*
X106643923Y-221055188D01*
%TO.C,F8*%
X221610000Y-56215000D02*
X221610000Y-59375000D01*
X221610000Y-56215000D02*
X198890000Y-56215000D01*
X221610000Y-66035000D02*
X198890000Y-66035000D01*
X221610000Y-62875000D02*
X221610000Y-66035000D01*
X198890000Y-62875000D02*
X198890000Y-66035000D01*
X198890000Y-56215000D02*
X198890000Y-59375000D01*
%TO.C,F2*%
X136383923Y-212155188D02*
X113663923Y-212155188D01*
X136383923Y-202335188D02*
X113663923Y-202335188D01*
X136383923Y-208995188D02*
X136383923Y-212155188D01*
X113663923Y-208995188D02*
X113663923Y-212155188D01*
X113663923Y-202335188D02*
X113663923Y-205495188D01*
X136383923Y-202335188D02*
X136383923Y-205495188D01*
%TO.C,R9*%
X155135436Y-61315000D02*
X155589564Y-61315000D01*
X155135436Y-62785000D02*
X155589564Y-62785000D01*
%TO.C,U3*%
X155190000Y-98870000D02*
X156440000Y-98870000D01*
X156440000Y-98870000D02*
X156440000Y-80970000D01*
X151940000Y-98870000D02*
X153190000Y-98870000D01*
X156440000Y-80970000D02*
X151940000Y-80970000D01*
X151940000Y-80970000D02*
X151940000Y-98870000D01*
X155190000Y-98870000D02*
G75*
G03*
X153190000Y-98870000I-1000000J0D01*
G01*
%TO.C,J6*%
X144483923Y-213435188D02*
X144483923Y-221055188D01*
X154643923Y-213435188D02*
X144483923Y-213435188D01*
X154643923Y-221055188D02*
X154643923Y-213435188D01*
X154643923Y-219785188D02*
X144483923Y-219785188D01*
X144483923Y-221055188D02*
X154643923Y-221055188D01*
%TO.C,R4*%
X74730000Y-62370000D02*
X81270000Y-62370000D01*
X81270000Y-59630000D02*
X74730000Y-59630000D01*
X74730000Y-59630000D02*
X74730000Y-62370000D01*
X82040000Y-61000000D02*
X81270000Y-61000000D01*
X73960000Y-61000000D02*
X74730000Y-61000000D01*
X81270000Y-62370000D02*
X81270000Y-59630000D01*
%TO.C,R15*%
X155135436Y-59315000D02*
X155589564Y-59315000D01*
X155135436Y-60785000D02*
X155589564Y-60785000D01*
%TO.C,F9*%
X75913923Y-172495188D02*
X75913923Y-169335188D01*
X75913923Y-179155188D02*
X98633923Y-179155188D01*
X75913923Y-179155188D02*
X75913923Y-175995188D01*
X98633923Y-172495188D02*
X98633923Y-169335188D01*
X98633923Y-179155188D02*
X98633923Y-175995188D01*
X75913923Y-169335188D02*
X98633923Y-169335188D01*
X221610000Y-45090000D02*
X221610000Y-48250000D01*
X221610000Y-51750000D02*
X221610000Y-54910000D01*
X198890000Y-45090000D02*
X198890000Y-48250000D01*
X221610000Y-54910000D02*
X198890000Y-54910000D01*
X221610000Y-45090000D02*
X198890000Y-45090000D01*
X198890000Y-51750000D02*
X198890000Y-54910000D01*
%TO.C,F6*%
X221610000Y-78465000D02*
X198890000Y-78465000D01*
X221610000Y-88285000D02*
X198890000Y-88285000D01*
X221610000Y-85125000D02*
X221610000Y-88285000D01*
X198890000Y-78465000D02*
X198890000Y-81625000D01*
X198890000Y-85125000D02*
X198890000Y-88285000D01*
X221610000Y-78465000D02*
X221610000Y-81625000D01*
%TO.C,R23*%
X163902064Y-91562500D02*
X163447936Y-91562500D01*
X163902064Y-90092500D02*
X163447936Y-90092500D01*
%TO.C,R25*%
X179589564Y-62785000D02*
X179135436Y-62785000D01*
X179589564Y-61315000D02*
X179135436Y-61315000D01*
%TO.C,R19*%
X163902064Y-89562500D02*
X163447936Y-89562500D01*
X163902064Y-88092500D02*
X163447936Y-88092500D01*
%TO.C,F13*%
X136383923Y-129655188D02*
X113663923Y-129655188D01*
X136383923Y-119835188D02*
X113663923Y-119835188D01*
X136383923Y-119835188D02*
X136383923Y-122995188D01*
X113663923Y-119835188D02*
X113663923Y-122995188D01*
X113663923Y-126495188D02*
X113663923Y-129655188D01*
X136383923Y-126495188D02*
X136383923Y-129655188D01*
%TO.C,F5*%
X136383923Y-162655188D02*
X113663923Y-162655188D01*
X113663923Y-152835188D02*
X113663923Y-155995188D01*
X113663923Y-159495188D02*
X113663923Y-162655188D01*
X136383923Y-159495188D02*
X136383923Y-162655188D01*
X136383923Y-152835188D02*
X113663923Y-152835188D01*
X136383923Y-152835188D02*
X136383923Y-155995188D01*
%TO.C,R2*%
X82040000Y-55000000D02*
X81270000Y-55000000D01*
X81270000Y-53630000D02*
X74730000Y-53630000D01*
X73960000Y-55000000D02*
X74730000Y-55000000D01*
X74730000Y-56370000D02*
X81270000Y-56370000D01*
X74730000Y-53630000D02*
X74730000Y-56370000D01*
X81270000Y-56370000D02*
X81270000Y-53630000D01*
%TO.C,U4*%
X168965000Y-70505000D02*
X170215000Y-70505000D01*
X170215000Y-52605000D02*
X165715000Y-52605000D01*
X165715000Y-70505000D02*
X166965000Y-70505000D01*
X170215000Y-70505000D02*
X170215000Y-52605000D01*
X165715000Y-52605000D02*
X165715000Y-70505000D01*
X168965000Y-70505000D02*
G75*
G03*
X166965000Y-70505000I-1000000J0D01*
G01*
%TO.C,R7*%
X143860436Y-92062500D02*
X144314564Y-92062500D01*
X143860436Y-90592500D02*
X144314564Y-90592500D01*
%TO.C,R6*%
X144314564Y-92592500D02*
X143860436Y-92592500D01*
X144314564Y-94062500D02*
X143860436Y-94062500D01*
%TO.C,R17*%
X73960000Y-73000000D02*
X74730000Y-73000000D01*
X81270000Y-71630000D02*
X74730000Y-71630000D01*
X82040000Y-73000000D02*
X81270000Y-73000000D01*
X81270000Y-74370000D02*
X81270000Y-71630000D01*
X74730000Y-74370000D02*
X81270000Y-74370000D01*
X74730000Y-71630000D02*
X74730000Y-74370000D01*
%TO.C,F4*%
X221610000Y-100715000D02*
X221610000Y-103875000D01*
X221610000Y-100715000D02*
X198890000Y-100715000D01*
X221610000Y-110535000D02*
X198890000Y-110535000D01*
X198890000Y-107375000D02*
X198890000Y-110535000D01*
X198890000Y-100715000D02*
X198890000Y-103875000D01*
X221610000Y-107375000D02*
X221610000Y-110535000D01*
%TO.C,R8*%
X155589564Y-63315000D02*
X155135436Y-63315000D01*
X155589564Y-64785000D02*
X155135436Y-64785000D01*
%TO.C,J2*%
X194330000Y-86120000D02*
X194330000Y-106500000D01*
X191670000Y-86120000D02*
X191670000Y-106500000D01*
X191670000Y-106500000D02*
X194330000Y-106500000D01*
X191670000Y-83520000D02*
X193000000Y-83520000D01*
X191670000Y-84850000D02*
X191670000Y-83520000D01*
X191670000Y-86120000D02*
X194330000Y-86120000D01*
%TO.C,F10*%
X98633923Y-155995188D02*
X98633923Y-152835188D01*
X75913923Y-162655188D02*
X98633923Y-162655188D01*
X75913923Y-155995188D02*
X75913923Y-152835188D01*
X98633923Y-162655188D02*
X98633923Y-159495188D01*
X75913923Y-162655188D02*
X75913923Y-159495188D01*
X75913923Y-152835188D02*
X98633923Y-152835188D01*
%TO.C,R18*%
X163447936Y-87562500D02*
X163902064Y-87562500D01*
X163447936Y-86092500D02*
X163902064Y-86092500D01*
%TO.C,R14*%
X155589564Y-58785000D02*
X155135436Y-58785000D01*
X155589564Y-57315000D02*
X155135436Y-57315000D01*
%TO.C,R21*%
X179589564Y-60785000D02*
X179135436Y-60785000D01*
X179589564Y-59315000D02*
X179135436Y-59315000D01*
%TO.C,R13*%
X143860436Y-88592500D02*
X144314564Y-88592500D01*
X143860436Y-90062500D02*
X144314564Y-90062500D01*
%TO.C,J1*%
X227330000Y-103880000D02*
X224670000Y-103880000D01*
X227330000Y-103880000D02*
X227330000Y-83500000D01*
X227330000Y-106480000D02*
X226000000Y-106480000D01*
X227330000Y-83500000D02*
X224670000Y-83500000D01*
X224670000Y-103880000D02*
X224670000Y-83500000D01*
X227330000Y-105150000D02*
X227330000Y-106480000D01*
%TO.C,F4*%
X136383923Y-175995188D02*
X136383923Y-179155188D01*
X136383923Y-179155188D02*
X113663923Y-179155188D01*
X113663923Y-175995188D02*
X113663923Y-179155188D01*
X113663923Y-169335188D02*
X113663923Y-172495188D01*
X136383923Y-169335188D02*
X136383923Y-172495188D01*
X136383923Y-169335188D02*
X113663923Y-169335188D01*
%TO.C,D2*%
X92545000Y-95710000D02*
X89455000Y-95710000D01*
X89455170Y-95710000D02*
G75*
G03*
X91000462Y-101260000I1544830J-2560000D01*
G01*
X90999538Y-101260000D02*
G75*
G03*
X92544830Y-95710000I462J2990000D01*
G01*
X93500000Y-98270000D02*
G75*
G03*
X93500000Y-98270000I-2500000J0D01*
G01*
%TO.C,R5*%
X81270000Y-59370000D02*
X81270000Y-56630000D01*
X73960000Y-58000000D02*
X74730000Y-58000000D01*
X81270000Y-56630000D02*
X74730000Y-56630000D01*
X82040000Y-58000000D02*
X81270000Y-58000000D01*
X74730000Y-56630000D02*
X74730000Y-59370000D01*
X74730000Y-59370000D02*
X81270000Y-59370000D01*
%TO.C,R3*%
X81270000Y-50630000D02*
X74730000Y-50630000D01*
X82040000Y-52000000D02*
X81270000Y-52000000D01*
X74730000Y-50630000D02*
X74730000Y-53370000D01*
X74730000Y-53370000D02*
X81270000Y-53370000D01*
X81270000Y-53370000D02*
X81270000Y-50630000D01*
X73960000Y-52000000D02*
X74730000Y-52000000D01*
D12*
%TO.C,J1*%
X47050000Y-109400000D02*
X47050000Y-48600000D01*
X29200000Y-109400000D02*
X29200000Y-48600000D01*
X47050000Y-48600000D02*
X29200000Y-48600000D01*
X29200000Y-109400000D02*
X47050000Y-109400000D01*
D14*
X47800000Y-65000000D02*
G75*
G03*
X47800000Y-65000000I-100000J0D01*
G01*
D11*
%TO.C,R11*%
X81270000Y-65370000D02*
X81270000Y-62630000D01*
X74730000Y-62630000D02*
X74730000Y-65370000D01*
X74730000Y-65370000D02*
X81270000Y-65370000D01*
X73960000Y-64000000D02*
X74730000Y-64000000D01*
X82040000Y-64000000D02*
X81270000Y-64000000D01*
X81270000Y-62630000D02*
X74730000Y-62630000D01*
%TO.C,F1*%
X221610000Y-143910000D02*
X198890000Y-143910000D01*
X221610000Y-140750000D02*
X221610000Y-143910000D01*
X221610000Y-134090000D02*
X221610000Y-137250000D01*
X221610000Y-134090000D02*
X198890000Y-134090000D01*
X198890000Y-140750000D02*
X198890000Y-143910000D01*
X198890000Y-134090000D02*
X198890000Y-137250000D01*
%TO.C,F12*%
X75913923Y-119835188D02*
X98633923Y-119835188D01*
X75913923Y-122995188D02*
X75913923Y-119835188D01*
X75913923Y-129655188D02*
X75913923Y-126495188D01*
X75913923Y-129655188D02*
X98633923Y-129655188D01*
X98633923Y-122995188D02*
X98633923Y-119835188D01*
X98633923Y-129655188D02*
X98633923Y-126495188D01*
D12*
%TO.C,J1*%
X49573923Y-135845188D02*
X31723923Y-135845188D01*
X49573923Y-196645188D02*
X49573923Y-135845188D01*
X31723923Y-196645188D02*
X49573923Y-196645188D01*
X31723923Y-196645188D02*
X31723923Y-135845188D01*
D14*
X50323923Y-152245188D02*
G75*
G03*
X50323923Y-152245188I-100000J0D01*
G01*
D11*
%TO.C,F1*%
X148663923Y-175995188D02*
X148663923Y-179155188D01*
X171383923Y-179155188D02*
X148663923Y-179155188D01*
X148663923Y-169335188D02*
X148663923Y-172495188D01*
X171383923Y-169335188D02*
X171383923Y-172495188D01*
X171383923Y-175995188D02*
X171383923Y-179155188D01*
X171383923Y-169335188D02*
X148663923Y-169335188D01*
%TO.C,F5*%
X221610000Y-89590000D02*
X198890000Y-89590000D01*
X221610000Y-89590000D02*
X221610000Y-92750000D01*
X221610000Y-99410000D02*
X198890000Y-99410000D01*
X198890000Y-96250000D02*
X198890000Y-99410000D01*
X221610000Y-96250000D02*
X221610000Y-99410000D01*
X198890000Y-89590000D02*
X198890000Y-92750000D01*
%TO.C,J4*%
X118190000Y-80330000D02*
X118190000Y-77670000D01*
X115590000Y-80330000D02*
X115590000Y-79000000D01*
X125870000Y-80330000D02*
X125870000Y-77670000D01*
X118190000Y-80330000D02*
X125870000Y-80330000D01*
X118190000Y-77670000D02*
X125870000Y-77670000D01*
X116920000Y-80330000D02*
X115590000Y-80330000D01*
%TO.C,U5*%
X123970000Y-82062500D02*
X99840000Y-82062500D01*
X99840000Y-82062500D02*
X99840000Y-94127500D01*
X99840000Y-94127500D02*
X123970000Y-94127500D01*
X123970000Y-94127500D02*
X123970000Y-82062500D01*
%TO.C,F18*%
X148663923Y-155995188D02*
X148663923Y-152835188D01*
X171383923Y-155995188D02*
X171383923Y-152835188D01*
X148663923Y-162655188D02*
X148663923Y-159495188D01*
X148663923Y-162655188D02*
X171383923Y-162655188D01*
X171383923Y-162655188D02*
X171383923Y-159495188D01*
X148663923Y-152835188D02*
X171383923Y-152835188D01*
%TO.C,J10*%
X175013923Y-145905188D02*
X182633923Y-145905188D01*
X182633923Y-145905188D02*
X182633923Y-135745188D01*
X175013923Y-135745188D02*
X175013923Y-145905188D01*
X182633923Y-135745188D02*
X175013923Y-135745188D01*
X181363923Y-135745188D02*
X181363923Y-145905188D01*
%TO.C,F19*%
X148663923Y-146155188D02*
X148663923Y-142995188D01*
X148663923Y-146155188D02*
X171383923Y-146155188D01*
X148663923Y-136335188D02*
X171383923Y-136335188D01*
X171383923Y-139495188D02*
X171383923Y-136335188D01*
X171383923Y-146155188D02*
X171383923Y-142995188D01*
X148663923Y-139495188D02*
X148663923Y-136335188D01*
%TO.C,F3*%
X136383923Y-185835188D02*
X136383923Y-188995188D01*
X136383923Y-192495188D02*
X136383923Y-195655188D01*
X113663923Y-192495188D02*
X113663923Y-195655188D01*
X136383923Y-185835188D02*
X113663923Y-185835188D01*
X136383923Y-195655188D02*
X113663923Y-195655188D01*
X113663923Y-185835188D02*
X113663923Y-188995188D01*
%TO.C,R10*%
X81270000Y-65630000D02*
X74730000Y-65630000D01*
X74730000Y-68370000D02*
X81270000Y-68370000D01*
X81270000Y-68370000D02*
X81270000Y-65630000D01*
X74730000Y-65630000D02*
X74730000Y-68370000D01*
X73960000Y-67000000D02*
X74730000Y-67000000D01*
X82040000Y-67000000D02*
X81270000Y-67000000D01*
%TO.C,R20*%
X179135436Y-58785000D02*
X179589564Y-58785000D01*
X179135436Y-57315000D02*
X179589564Y-57315000D01*
%TO.C,U1*%
X105860000Y-58290000D02*
X105460000Y-58290000D01*
X114558778Y-60461339D02*
X114346646Y-60673471D01*
X119811999Y-64826694D02*
X119907187Y-64731507D01*
X101431801Y-61781802D02*
X102068198Y-61781802D01*
X116820394Y-64201177D02*
X116908782Y-64112788D01*
X119631859Y-63759962D02*
X119610682Y-63727895D01*
X121629846Y-66118194D02*
X120922739Y-65411087D01*
X119080244Y-64012391D02*
X119094603Y-63947430D01*
X117881054Y-61835088D02*
X117976241Y-61930276D01*
X119243531Y-64095047D02*
X119277552Y-64117419D01*
X117170832Y-65288729D02*
X117107762Y-65301038D01*
X118493080Y-66337476D02*
X118488084Y-66265003D01*
X118105568Y-63077824D02*
X118088639Y-62919333D01*
X119006916Y-63359742D02*
X119011770Y-63420041D01*
X117716707Y-65981373D02*
X117617907Y-65882574D01*
X117375052Y-65639718D02*
X117277209Y-65541875D01*
X107148198Y-61781802D02*
X107148198Y-62418199D01*
X119357840Y-64255463D02*
X119233010Y-64247224D01*
X130522809Y-66792282D02*
X130522809Y-58992282D01*
X124867588Y-59812050D02*
X124867588Y-66112050D01*
X119016296Y-63330861D02*
X119006916Y-63359742D01*
X120043169Y-63997203D02*
X120138356Y-64092391D01*
X145075000Y-74375000D02*
X91925000Y-74375000D01*
X116680099Y-58340019D02*
X117387205Y-59047126D01*
X108100000Y-58590000D02*
X107800000Y-58290000D01*
X143900000Y-56650000D02*
X93100000Y-56650000D01*
X118215031Y-62637392D02*
X118115729Y-62640888D01*
X116729758Y-64754449D02*
X116799996Y-64711109D01*
X120357054Y-58340019D02*
X120569186Y-58552151D01*
X118119023Y-66193314D02*
X118214210Y-66288501D01*
X92650000Y-66450012D02*
X92645785Y-66450012D01*
X105460000Y-63370000D02*
X100580000Y-63370000D01*
X101072277Y-65512467D02*
X101172277Y-65612467D01*
X118841006Y-63559794D02*
X118821667Y-63573322D01*
X103971801Y-59241802D02*
X104608198Y-59241802D01*
X121276293Y-59259258D02*
X120569186Y-59966365D01*
X119034246Y-63306351D02*
X119016296Y-63330861D01*
X117019692Y-62061584D02*
X116978154Y-61934632D01*
X92650000Y-59800000D02*
X92649936Y-59803590D01*
X113639539Y-64350427D02*
X113851671Y-64562559D01*
X121417714Y-66330326D02*
X120710607Y-65623219D01*
X114205225Y-60814893D02*
X113993093Y-61027025D01*
X113285986Y-63996873D02*
X113993093Y-63289767D01*
X130622809Y-66892282D02*
X133922809Y-66892282D01*
X122831928Y-60814893D02*
X122124821Y-61522000D01*
X116114413Y-66825300D02*
X116326545Y-67037432D01*
X116631400Y-64732888D02*
X116677327Y-64757702D01*
X101684503Y-63371000D02*
X101729375Y-63371000D01*
X119649947Y-57632912D02*
X118942840Y-58340019D01*
X117033652Y-57986466D02*
X116821520Y-58198598D01*
X118073979Y-65277985D02*
X117848652Y-65722582D01*
X140150000Y-57860000D02*
X137490000Y-57860000D01*
X122831928Y-64916112D02*
X122124821Y-64209005D01*
X119772241Y-63743974D02*
X119777266Y-63809406D01*
X129392588Y-59812050D02*
X129392588Y-66112050D01*
X119242563Y-63948611D02*
X119217809Y-64022911D01*
X115760860Y-66471747D02*
X116467967Y-65764640D01*
X116799996Y-64711109D02*
X116895184Y-64806297D01*
X123397613Y-64350427D02*
X122690506Y-63643320D01*
X119481107Y-64199199D02*
X119357840Y-64255463D01*
X100479000Y-61288528D02*
X100479000Y-61477631D01*
X120922739Y-58905704D02*
X120215632Y-59612811D01*
X117122287Y-65019778D02*
X117075506Y-65014863D01*
X118492121Y-66494259D02*
X118496692Y-66477920D01*
X120070365Y-65085060D02*
X119811999Y-64826694D01*
X106072277Y-64762467D02*
X100272277Y-64762467D01*
X92143395Y-60150000D02*
X92143395Y-65850000D01*
X115053753Y-59966365D02*
X115760860Y-60673471D01*
X116680099Y-58340019D02*
X116467967Y-58552151D01*
X119746557Y-63683582D02*
X119772241Y-63743974D01*
X119763761Y-63873729D02*
X119700602Y-63988685D01*
X117387205Y-57632912D02*
X118094312Y-58340019D01*
X119638209Y-63797879D02*
X119631859Y-63759962D01*
X120104361Y-64534333D02*
X120267539Y-64697511D01*
X117218751Y-64821549D02*
X117223606Y-64881848D01*
X115972992Y-59047126D02*
X116680099Y-59754233D01*
X105922277Y-67512467D02*
X105272277Y-67512467D01*
X101672277Y-67412467D02*
X101672277Y-65612467D01*
X121983399Y-65764640D02*
X121276293Y-65057533D01*
X119659976Y-64674670D02*
X119512839Y-64527534D01*
X122336953Y-65411087D02*
X121629846Y-64703980D01*
X115265885Y-59754233D02*
X115053753Y-59966365D01*
X117848652Y-65722582D02*
X118240132Y-65444138D01*
X119222479Y-64061944D02*
X119243531Y-64095047D01*
X117976241Y-61930276D02*
X117541099Y-62365419D01*
X118492121Y-66494259D02*
X118496692Y-66477920D01*
X130522809Y-66792282D02*
X130522811Y-66792900D01*
X121771267Y-65976772D02*
X121064161Y-65269666D01*
X119150680Y-64192571D02*
X119109572Y-64140267D01*
X91925000Y-74375000D02*
X91925000Y-51625000D01*
X118493080Y-66337476D02*
X118488084Y-66265003D01*
X119277552Y-64117419D02*
X119317725Y-64123953D01*
X119649947Y-57632912D02*
X119862079Y-57845044D01*
X106172277Y-68162467D02*
X106172277Y-64862467D01*
X121771267Y-59754233D02*
X121983399Y-59966365D01*
X118554165Y-65758171D02*
X118119023Y-66193314D01*
X119705445Y-63632283D02*
X119746557Y-63683582D01*
X119393989Y-64096153D02*
X119519107Y-63990936D01*
X119243531Y-64095047D02*
X119277552Y-64117419D01*
X118093372Y-62733505D02*
X118050075Y-62794718D01*
X134022809Y-66792282D02*
X134022809Y-58992282D01*
X117007095Y-65280541D02*
X116941290Y-65233153D01*
X114912332Y-65623219D02*
X115619438Y-64916112D01*
X117289532Y-64983073D02*
X117201144Y-65071462D01*
X116889978Y-64524665D02*
X116738478Y-64539950D01*
X118441449Y-62570773D02*
X118639237Y-62604488D01*
X92000000Y-59147388D02*
X92162892Y-58962513D01*
X118115729Y-62640888D02*
X118093372Y-62733505D01*
X118246234Y-63064997D02*
X118308229Y-63159745D01*
X117387205Y-57632912D02*
X117175073Y-57845044D01*
X119763761Y-63873729D02*
X119700602Y-63988685D01*
X118244275Y-66367222D02*
X118380576Y-66373278D01*
X118910451Y-63557971D02*
X118863670Y-63553056D01*
X103971801Y-59878199D02*
X103971801Y-59241802D01*
X118989308Y-63609655D02*
X118910451Y-63557971D01*
X121417714Y-59400679D02*
X121629846Y-59612811D01*
X115619438Y-59400679D02*
X115407306Y-59612811D01*
X117497483Y-61902341D02*
X117419140Y-61931551D01*
X93100000Y-56650000D02*
X93100000Y-54110000D01*
X122124821Y-60107786D02*
X121417714Y-60814893D01*
X119109572Y-64140267D02*
X119084728Y-64078652D01*
X119592564Y-63565874D02*
X119653696Y-63590965D01*
X118496692Y-66477920D02*
X118496718Y-66399245D01*
X118568576Y-57965755D02*
X123418324Y-62815502D01*
X117201144Y-65071462D02*
X117122287Y-65019778D01*
X118783210Y-66286377D02*
X118793743Y-66195815D01*
X117241938Y-65248239D02*
X117170832Y-65288729D01*
X119705445Y-63632283D02*
X119746557Y-63683582D01*
X92650000Y-59549989D02*
X92645785Y-59549989D01*
X118841006Y-63559794D02*
X118821667Y-63573322D01*
X116908782Y-64112788D02*
X117262336Y-64466342D01*
X113851671Y-64562559D02*
X114558778Y-63855452D01*
X118488084Y-66265003D02*
X118485962Y-66207974D01*
X119777266Y-63809406D02*
X119763761Y-63873729D01*
X114346646Y-60673471D02*
X115053753Y-61380578D01*
X116467967Y-67178854D02*
X117175073Y-66471747D01*
X92204789Y-59900000D02*
X92550000Y-59900000D01*
X117617907Y-65882574D02*
X117866818Y-65391657D01*
X119217809Y-64022911D02*
X119222479Y-64061944D01*
X140150000Y-68140000D02*
X140150000Y-57860000D01*
X120215632Y-67532407D02*
X119508526Y-66825300D01*
X119011770Y-63420041D02*
X119077696Y-63521266D01*
X105560000Y-58390000D02*
X105560000Y-60730000D01*
X119746557Y-63683582D02*
X119772241Y-63743974D01*
X129817588Y-66112050D02*
X129817588Y-59812050D01*
X114558778Y-60461339D02*
X115265885Y-61168446D01*
X134022804Y-58991334D02*
X134022809Y-58992282D01*
X120505508Y-64459542D02*
X120600695Y-64554730D01*
X116467967Y-67178854D02*
X116680099Y-67390986D01*
X137490000Y-57860000D02*
X137490000Y-68140000D01*
X97660000Y-59549989D02*
X97660000Y-66450012D01*
X121983399Y-59966365D02*
X121276293Y-60673471D01*
X114558778Y-65269666D02*
X115265885Y-64562559D01*
X123044060Y-64703980D02*
X122831928Y-64916112D01*
X130622809Y-58892282D02*
X130622190Y-58892283D01*
X123185481Y-61168446D02*
X123397613Y-61380578D01*
X119247886Y-63731826D02*
X119347084Y-63643780D01*
X100580000Y-58290000D02*
X105460000Y-58290000D01*
X122831928Y-60814893D02*
X123044060Y-61027025D01*
X113618829Y-62815502D02*
X113618829Y-62915502D01*
X92315241Y-59425143D02*
X92000000Y-59147388D01*
X106511801Y-59878199D02*
X106511801Y-59241802D01*
X119242563Y-63948611D02*
X119217809Y-64022911D01*
X116680099Y-67390986D02*
X117387205Y-66683879D01*
X117228131Y-64792668D02*
X117218751Y-64821549D01*
X115760860Y-59259258D02*
X116467967Y-59966365D01*
X116326545Y-67037432D02*
X117033652Y-66330326D01*
X118895926Y-63839231D02*
X118795259Y-63818734D01*
X115407306Y-66118194D02*
X115619438Y-66330326D01*
X119526539Y-63563116D02*
X119592564Y-63565874D01*
X119217809Y-64022911D02*
X119222479Y-64061944D01*
X119247886Y-63731826D02*
X119347084Y-63643780D01*
X106511801Y-62418199D02*
X106511801Y-61781802D01*
X118488084Y-66265003D02*
X118485962Y-66207974D01*
X101431801Y-62418199D02*
X101431801Y-61781802D01*
X105272277Y-65512467D02*
X105922277Y-65512467D01*
X117107762Y-65301038D02*
X117007095Y-65280541D01*
X117214104Y-64514573D02*
X116889978Y-64524665D01*
X92204789Y-66100000D02*
X92550000Y-66100000D01*
X118568576Y-67765250D02*
X118468576Y-67765250D01*
X121276293Y-66471747D02*
X120569186Y-65764640D01*
X101150000Y-60160000D02*
X101150000Y-58960000D01*
X117262336Y-64466342D02*
X117214104Y-64514573D01*
X119317725Y-64123953D02*
X119393989Y-64096153D01*
X119462190Y-63578767D02*
X119526539Y-63563116D01*
X116114413Y-66825300D02*
X116821520Y-66118194D01*
X104608198Y-59241802D02*
X104608198Y-59878199D01*
X101150000Y-62700000D02*
X101150000Y-61500000D01*
X119006916Y-63359742D02*
X119011770Y-63420041D01*
X116821520Y-67532407D02*
X117033652Y-67744539D01*
X117387205Y-68098093D02*
X118094312Y-67390986D01*
X117241938Y-65248239D02*
X117170832Y-65288729D01*
X121276293Y-66471747D02*
X121064161Y-66683879D01*
X118496692Y-66477920D02*
X118496718Y-66399245D01*
X118989308Y-63609655D02*
X118910451Y-63557971D01*
X107800000Y-58290000D02*
X105860000Y-58290000D01*
X92650000Y-66200000D02*
X92649936Y-66196411D01*
X119109572Y-64140267D02*
X119084728Y-64078652D01*
X113851671Y-61168446D02*
X114558778Y-61875553D01*
X120009173Y-64629520D02*
X120104361Y-64534333D01*
X118246234Y-63064997D02*
X118308229Y-63159745D01*
X123397613Y-64350427D02*
X123185481Y-64562559D01*
X122124821Y-60107786D02*
X122336953Y-60319918D01*
X117107762Y-65301038D02*
X117007095Y-65280541D01*
X119030102Y-63786431D02*
X118958996Y-63826921D01*
X113639539Y-61380578D02*
X114346646Y-62087685D01*
X117075506Y-65014863D02*
X117052842Y-65021601D01*
X119222479Y-64061944D02*
X119243531Y-64095047D01*
X120003500Y-57986466D02*
X120215632Y-58198598D01*
X131431767Y-66599226D02*
X131431767Y-66785812D01*
X116677327Y-64757702D02*
X116729758Y-64754449D01*
X123044060Y-61027025D02*
X122336953Y-61734132D01*
X119233010Y-64247224D02*
X119150680Y-64192571D01*
X117246081Y-64768158D02*
X117228131Y-64792668D01*
X116677327Y-64757702D02*
X116729758Y-64754449D01*
X117033652Y-57986466D02*
X117740759Y-58693572D01*
X117586037Y-61844543D02*
X117497483Y-61902341D01*
X117052842Y-65021601D02*
X117033503Y-65035129D01*
X117535893Y-65409823D02*
X117981128Y-65185134D01*
X117218751Y-64821549D02*
X117223606Y-64881848D01*
X118863670Y-63553056D02*
X118841006Y-63559794D01*
X117146751Y-65153051D02*
X117241938Y-65248239D01*
X100172378Y-64857983D02*
X100172277Y-64862467D01*
X92315241Y-66574858D02*
X92000000Y-66852613D01*
X114346646Y-65057533D02*
X115053753Y-64350427D01*
X119077696Y-63521266D02*
X118989308Y-63609655D01*
X131831767Y-66199226D02*
X132713851Y-66199226D01*
X119700602Y-63988685D02*
X119613232Y-64087185D01*
X123751166Y-63996873D02*
X123539034Y-64209005D01*
X118468576Y-57965755D02*
X113618829Y-62815502D01*
X116326545Y-58693572D02*
X117033652Y-59400679D01*
X120357054Y-67390986D02*
X119649947Y-66683879D01*
X118568576Y-67765250D02*
X123418324Y-62915502D01*
X115972992Y-66683879D02*
X116680099Y-65976772D01*
X117636286Y-62460606D02*
X117541099Y-62555793D01*
X117507103Y-65037466D02*
X117411916Y-64942279D01*
X119631859Y-63759962D02*
X119610682Y-63727895D01*
X92000000Y-60150000D02*
X92000000Y-65850000D01*
X117052842Y-65021601D02*
X117033503Y-65035129D01*
X114912332Y-60107786D02*
X114700200Y-60319918D01*
X105860000Y-63370000D02*
X107800000Y-63370000D01*
X115265885Y-65976772D02*
X115972992Y-65269666D01*
X116729758Y-64754449D02*
X116799996Y-64711109D01*
X92143395Y-65850000D02*
X92000000Y-65850000D01*
X115619438Y-66330326D02*
X116326545Y-65623219D01*
X114205225Y-60814893D02*
X114912332Y-61522000D01*
X119150680Y-64192571D02*
X119109572Y-64140267D01*
X120267539Y-64697511D02*
X120505508Y-64459542D01*
X101072277Y-67512467D02*
X100422277Y-67512467D01*
X105560000Y-60930000D02*
X100491400Y-60930000D01*
X119613232Y-64087185D02*
X119481107Y-64199199D01*
X120070365Y-64894685D02*
X120172352Y-64792699D01*
X118225152Y-62922414D02*
X118246234Y-63064997D01*
X122690506Y-60673471D02*
X121983399Y-61380578D01*
X101150000Y-58960000D02*
X104890000Y-58960000D01*
X118639237Y-62604488D02*
X118768337Y-62695175D01*
X104890000Y-61500000D02*
X104890000Y-62700000D01*
X118336594Y-65540600D02*
X117716707Y-65981373D01*
X119277552Y-64117419D02*
X119317725Y-64123953D01*
X119696415Y-64534333D02*
X119805200Y-64643118D01*
X95640000Y-71950000D02*
X95640000Y-69290000D01*
X119094603Y-63947430D02*
X119159465Y-63831541D01*
X119317725Y-64123953D02*
X119393989Y-64096153D01*
X108100000Y-63070000D02*
X108100000Y-58590000D01*
X118958996Y-63826921D02*
X118895926Y-63839231D01*
X118105568Y-63077824D02*
X118088639Y-62919333D01*
X92162892Y-67037488D02*
X92479153Y-66758834D01*
X117717875Y-64921882D02*
X117814231Y-65018238D01*
X119862079Y-67885961D02*
X119649947Y-68098093D01*
X104608198Y-59878199D02*
X103971801Y-59878199D01*
X123397613Y-61380578D02*
X122690506Y-62087685D01*
X118215031Y-62637392D02*
X118115729Y-62640888D01*
X119084728Y-64078652D02*
X119080244Y-64012391D01*
X115265885Y-59754233D02*
X115972992Y-60461339D01*
X92650000Y-59310104D02*
X92650000Y-59800000D01*
X117175073Y-67885961D02*
X117387205Y-68098093D01*
X118485962Y-66207974D02*
X118504959Y-66101602D01*
X92641500Y-66696428D02*
X92649669Y-66691487D01*
X133113851Y-66785812D02*
X133113851Y-66599226D01*
X117246081Y-64768158D02*
X117228131Y-64792668D01*
X117277209Y-65541875D02*
X117717875Y-64921882D01*
X119592564Y-63565874D02*
X119653696Y-63590965D01*
X102068198Y-61781802D02*
X102068198Y-62418199D01*
X118784597Y-66161068D02*
X118764300Y-66131485D01*
X143900000Y-54110000D02*
X143900000Y-56650000D01*
X118240132Y-65444138D02*
X118336594Y-65540600D01*
X104608198Y-62418199D02*
X103971801Y-62418199D01*
X117175073Y-67885961D02*
X117882180Y-67178854D01*
X118793743Y-66195815D02*
X118784597Y-66161068D01*
X122336953Y-65411087D02*
X122124821Y-65623219D01*
X105560000Y-60930000D02*
X105560000Y-63270000D01*
X119347084Y-63643780D02*
X119462190Y-63578767D01*
X118480119Y-66512128D02*
X118492121Y-66494259D01*
X121417714Y-59400679D02*
X120710607Y-60107786D01*
X120710607Y-58693572D02*
X120922739Y-58905704D01*
X100480000Y-63270000D02*
X100480000Y-58390000D01*
X118639237Y-62604488D02*
X118768337Y-62695175D01*
X92143395Y-60150000D02*
X92000000Y-60150000D01*
X117928648Y-66002939D02*
X118023835Y-66098126D01*
X116738478Y-64539950D02*
X116632569Y-64592975D01*
X117833460Y-66098126D02*
X117928648Y-66002939D01*
X117981128Y-65185134D02*
X118073979Y-65277985D01*
X117586037Y-61844543D02*
X117497483Y-61902341D01*
X100172277Y-64862467D02*
X100172277Y-68162467D01*
X117825782Y-62437565D02*
X117899327Y-62424486D01*
X102068198Y-59878199D02*
X101431801Y-59878199D01*
X122690506Y-65057533D02*
X121983399Y-64350427D01*
X130512809Y-60392282D02*
X130512809Y-59892282D01*
X118324058Y-62575128D02*
X118215031Y-62637392D01*
X113618829Y-62915502D02*
X118468576Y-67765250D01*
X120138356Y-64092391D02*
X119696415Y-64534333D01*
X115619438Y-59400679D02*
X116326545Y-60107786D01*
X114700200Y-65411087D02*
X115407306Y-64703980D01*
X120215632Y-58198598D02*
X119508526Y-58905704D01*
X114205225Y-64916112D02*
X114912332Y-64209005D01*
X118504959Y-66101602D02*
X118552784Y-66031517D01*
X117497483Y-61902341D02*
X117419140Y-61931551D01*
X117541099Y-62365419D02*
X117636286Y-62460606D01*
X117825782Y-62437565D02*
X117899327Y-62424486D01*
X119805200Y-64643118D02*
X119659976Y-64674670D01*
X122336953Y-60319918D02*
X121629846Y-61027025D01*
X100322277Y-67412467D02*
X100322277Y-65612467D01*
X118119023Y-66383689D02*
X117833460Y-66098126D01*
X117541099Y-62555793D02*
X117255536Y-62270231D01*
X92644425Y-59303590D02*
X92641500Y-59303573D01*
X120600695Y-64554730D02*
X120070365Y-65085060D01*
X117223606Y-64881848D02*
X117289532Y-64983073D01*
X118324058Y-62575128D02*
X118215031Y-62637392D01*
X121629846Y-59612811D02*
X120922739Y-60319918D01*
X115053753Y-65764640D02*
X115760860Y-65057533D01*
X118795259Y-63818734D02*
X118729455Y-63771346D01*
X120569186Y-67178854D02*
X120357054Y-67390986D01*
X118784597Y-66161068D02*
X118764300Y-66131485D01*
X115407306Y-66118194D02*
X116114413Y-65411087D01*
X115760860Y-66471747D02*
X115972992Y-66683879D01*
X118496718Y-66399245D02*
X118493080Y-66337476D01*
X117814231Y-65018238D02*
X117535893Y-65409823D01*
X92644425Y-66696411D02*
X92641500Y-66696428D01*
X119862079Y-67885961D02*
X119154972Y-67178854D01*
X118225152Y-62922414D02*
X118246234Y-63064997D01*
X119159465Y-63831541D02*
X119247886Y-63731826D01*
X123418324Y-62915502D02*
X123418324Y-62815502D01*
X121983399Y-65764640D02*
X121771267Y-65976772D01*
X92550000Y-66459272D02*
X92550000Y-66714928D01*
X120003500Y-57986466D02*
X119296394Y-58693572D01*
X100491400Y-60730000D02*
X105560000Y-60730000D01*
X118115729Y-62640888D02*
X118093372Y-62733505D01*
X92350469Y-59127785D02*
X92187578Y-59312660D01*
X123539034Y-61522000D02*
X122831928Y-62229106D01*
X100872003Y-63371000D02*
X101061106Y-63371000D01*
X92550000Y-59540729D02*
X92550000Y-59285073D01*
X104890000Y-62700000D02*
X101150000Y-62700000D01*
X117745603Y-62487271D02*
X117825782Y-62437565D01*
X118209323Y-63251214D02*
X118105568Y-63077824D01*
X106511801Y-61781802D02*
X107148198Y-61781802D01*
X114700200Y-65411087D02*
X114912332Y-65623219D01*
X120569186Y-58552151D02*
X119862079Y-59259258D01*
X119233010Y-64247224D02*
X119150680Y-64192571D01*
X119862079Y-57845044D02*
X119154972Y-58552151D01*
X123185481Y-61168446D02*
X122478374Y-61875553D01*
X117170832Y-65288729D02*
X117107762Y-65301038D01*
X113851671Y-61168446D02*
X113639539Y-61380578D01*
X93040000Y-71950000D02*
X93040000Y-70620000D01*
X117255536Y-62270231D02*
X117350724Y-62175044D01*
X116114413Y-58905704D02*
X116821520Y-59612811D01*
X118441449Y-62570773D02*
X118639237Y-62604488D01*
X130512809Y-65392282D02*
X130512809Y-65892282D01*
X116978154Y-61934632D02*
X117252243Y-61845393D01*
X121064161Y-59047126D02*
X121276293Y-59259258D01*
X121771267Y-59754233D02*
X121064161Y-60461339D01*
X116998870Y-64379653D02*
X116820394Y-64201177D01*
X118895926Y-63839231D02*
X118795259Y-63818734D01*
X93100000Y-54110000D02*
X143900000Y-54110000D01*
X119907187Y-64731507D02*
X120070365Y-64894685D01*
X119034246Y-63306351D02*
X119016296Y-63330861D01*
X102068198Y-59241802D02*
X102068198Y-59878199D01*
X116326545Y-58693572D02*
X116114413Y-58905704D01*
X117445911Y-62270231D02*
X117881054Y-61835088D01*
X104890000Y-60160000D02*
X101150000Y-60160000D01*
X113498118Y-64209005D02*
X114205225Y-63501899D01*
X104572277Y-67512467D02*
X101772277Y-67512467D01*
X120710607Y-58693572D02*
X120003500Y-59400679D01*
X107800000Y-63370000D02*
X108100000Y-63070000D01*
X116467967Y-58552151D02*
X117175073Y-59259258D01*
X119159465Y-63831541D02*
X119247886Y-63731826D01*
X107148198Y-62418199D02*
X106511801Y-62418199D01*
X120569186Y-67178854D02*
X119862079Y-66471747D01*
X120922739Y-66825300D02*
X120215632Y-66118194D01*
X117228131Y-64792668D02*
X117218751Y-64821549D01*
X119011770Y-63420041D02*
X119077696Y-63521266D01*
X101431801Y-59878199D02*
X101431801Y-59241802D01*
X122124821Y-65623219D02*
X121417714Y-64916112D01*
X119638209Y-63797879D02*
X119631859Y-63759962D01*
X118917174Y-66319841D02*
X118783210Y-66286377D01*
X94370000Y-71950000D02*
X93040000Y-71950000D01*
X113285986Y-63996873D02*
X113498118Y-64209005D01*
X117745603Y-62487271D02*
X117825782Y-62437565D01*
X117175073Y-57845044D02*
X117882180Y-58552151D01*
X118480119Y-66512128D02*
X118492121Y-66494259D01*
X122478374Y-60461339D02*
X121771267Y-61168446D01*
X116631400Y-64732888D02*
X116677327Y-64757702D01*
X119613232Y-64087185D02*
X119481107Y-64199199D01*
X118958996Y-63826921D02*
X118895926Y-63839231D01*
X117007095Y-65280541D02*
X116941290Y-65233153D01*
X104890000Y-58960000D02*
X104890000Y-60160000D01*
X119512839Y-64527534D02*
X120043169Y-63997203D01*
X145075000Y-51625000D02*
X145075000Y-74375000D01*
X118504959Y-66101602D02*
X118552784Y-66031517D01*
X115407306Y-59612811D02*
X116114413Y-60319918D01*
X113639539Y-64350427D02*
X114346646Y-63643320D01*
X105460000Y-63370000D02*
X105860000Y-63370000D01*
X118088639Y-62919333D02*
X118225152Y-62922414D01*
X119357840Y-64255463D02*
X119233010Y-64247224D01*
X119649947Y-68098093D02*
X118942840Y-67390986D01*
X119700602Y-63988685D02*
X119613232Y-64087185D01*
X118795259Y-63818734D02*
X118729455Y-63771346D01*
X120357054Y-58340019D02*
X119649947Y-59047126D01*
X92650000Y-66689897D02*
X92650000Y-66200000D01*
X119516132Y-63706223D02*
X119412677Y-63764183D01*
X107148198Y-59241802D02*
X107148198Y-59878199D01*
X123044060Y-64703980D02*
X122336953Y-63996873D01*
X130622190Y-66892280D02*
X130622809Y-66892282D01*
X116738478Y-64539950D02*
X116632569Y-64592975D01*
X115972992Y-59047126D02*
X115760860Y-59259258D01*
X118023835Y-66098126D02*
X118458978Y-65662984D01*
X104672277Y-65612467D02*
X104672277Y-67412467D01*
X118863670Y-63553056D02*
X118841006Y-63559794D01*
X92644425Y-66696411D02*
X97650000Y-66696411D01*
X95640000Y-69290000D02*
X143960000Y-69290000D01*
X123539034Y-64209005D02*
X122831928Y-63501899D01*
X120172352Y-64792699D02*
X120009173Y-64629520D01*
X117122287Y-65019778D02*
X117075506Y-65014863D01*
X101150000Y-61500000D02*
X104890000Y-61500000D01*
X114346646Y-65057533D02*
X114558778Y-65269666D01*
X122478374Y-65269666D02*
X121771267Y-64562559D01*
X113285986Y-61734132D02*
X113993093Y-62441238D01*
X118910451Y-63557971D02*
X118863670Y-63553056D01*
X119347084Y-63643780D02*
X119462190Y-63578767D01*
X119526539Y-63563116D02*
X119592564Y-63565874D01*
X134022809Y-58992282D02*
X134022807Y-58991663D01*
X100272277Y-68262467D02*
X106072277Y-68262467D01*
X123185481Y-64562559D02*
X122478374Y-63855452D01*
X116821520Y-58198598D02*
X117528627Y-58905704D01*
X119084728Y-64078652D02*
X119080244Y-64012391D01*
X103971801Y-61781802D02*
X104608198Y-61781802D01*
X118783210Y-66286377D02*
X118793743Y-66195815D01*
X119777266Y-63809406D02*
X119763761Y-63873729D01*
X117033652Y-67744539D02*
X117740759Y-67037432D01*
X118468576Y-57965755D02*
X118568576Y-57965755D01*
X118438049Y-62709517D02*
X118441449Y-62570773D01*
X92649669Y-66691487D02*
X92650000Y-66689897D01*
X132913851Y-66808200D02*
X131631767Y-66808200D01*
X92000000Y-66852613D02*
X92162892Y-67037488D01*
X92485431Y-66100000D02*
X92485431Y-59900000D01*
X117866818Y-65391657D02*
X117375052Y-65639718D01*
X119080244Y-64012391D02*
X119094603Y-63947430D01*
X113498118Y-61522000D02*
X114205225Y-62229106D01*
X120922739Y-66825300D02*
X120710607Y-67037432D01*
X119094603Y-63947430D02*
X119159465Y-63831541D01*
X119462190Y-63578767D02*
X119526539Y-63563116D01*
X119016296Y-63330861D02*
X119006916Y-63359742D01*
X105172277Y-67412467D02*
X105172277Y-65612467D01*
X100422277Y-65512467D02*
X101072277Y-65512467D01*
X119653696Y-63590965D02*
X119705445Y-63632283D01*
X101172277Y-65612467D02*
X101172277Y-67412467D01*
X130622809Y-58892282D02*
X133922809Y-58892282D01*
X137490000Y-68140000D02*
X140150000Y-68140000D01*
X118214210Y-66288501D02*
X118119023Y-66383689D01*
X101431801Y-59241802D02*
X102068198Y-59241802D01*
X119519107Y-63990936D02*
X119616368Y-63871238D01*
X113993093Y-64703980D02*
X114700200Y-63996873D01*
X92644425Y-59303590D02*
X97650000Y-59303590D01*
X113498118Y-61522000D02*
X113285986Y-61734132D01*
X97650000Y-59303590D02*
X97650000Y-66696411D01*
X106511801Y-59241802D02*
X107148198Y-59241802D01*
X119412677Y-63764183D02*
X119343074Y-63827013D01*
X119516132Y-63706223D02*
X119412677Y-63764183D01*
X121629846Y-66118194D02*
X121417714Y-66330326D01*
X103971801Y-62418199D02*
X103971801Y-61781802D01*
X119412677Y-63764183D02*
X119343074Y-63827013D01*
X91925000Y-51625000D02*
X145075000Y-51625000D01*
X118485962Y-66207974D02*
X118504959Y-66101602D01*
X120215632Y-67532407D02*
X120003500Y-67744539D01*
X92649669Y-59308514D02*
X92650000Y-59310104D01*
X116889978Y-64524665D02*
X116738478Y-64539950D01*
X92628825Y-59861536D02*
X92628825Y-66138465D01*
X118209323Y-63251214D02*
X118105568Y-63077824D01*
X119393989Y-64096153D02*
X119519107Y-63990936D01*
X119343074Y-63827013D02*
X119242563Y-63948611D01*
X119616368Y-63871238D02*
X119638209Y-63797879D01*
X143960000Y-69290000D02*
X143960000Y-71950000D01*
X113993093Y-61027025D02*
X114700200Y-61734132D01*
X134022807Y-66792900D02*
X134022809Y-66792282D01*
X118458978Y-65662984D02*
X118554165Y-65758171D01*
X123539034Y-61522000D02*
X123751166Y-61734132D01*
X119030102Y-63786431D02*
X118958996Y-63826921D01*
X117075506Y-65014863D02*
X117052842Y-65021601D01*
X116880098Y-64387727D02*
X116998870Y-64379653D01*
X130522811Y-58991663D02*
X130522809Y-58992282D01*
X107148198Y-59878199D02*
X106511801Y-59878199D01*
X118934915Y-63691244D02*
X119030102Y-63786431D01*
X122690506Y-65057533D02*
X122478374Y-65269666D01*
X101772277Y-65512467D02*
X104572277Y-65512467D01*
X117350724Y-62175044D02*
X117445911Y-62270231D01*
X123751166Y-63996873D02*
X123044060Y-63289767D01*
X119481107Y-64199199D02*
X119357840Y-64255463D01*
X121064161Y-66683879D02*
X120357054Y-65976772D01*
X102068198Y-62418199D02*
X101431801Y-62418199D01*
X119343074Y-63827013D02*
X119242563Y-63948611D01*
X119653696Y-63590965D02*
X119705445Y-63632283D01*
X118093372Y-62733505D02*
X118050075Y-62794718D01*
X122478374Y-60461339D02*
X122690506Y-60673471D01*
X120710607Y-67037432D02*
X120003500Y-66330326D01*
X119295267Y-63575659D02*
X119200080Y-63480472D01*
X116821520Y-67532407D02*
X117528627Y-66825300D01*
X113993093Y-64703980D02*
X114205225Y-64916112D01*
X114912332Y-60107786D02*
X115619438Y-60814893D01*
X115053753Y-65764640D02*
X115265885Y-65976772D01*
X114700200Y-60319918D02*
X115407306Y-61027025D01*
X106022277Y-65612467D02*
X106022277Y-67412467D01*
X104608198Y-61781802D02*
X104608198Y-62418199D01*
X119519107Y-63990936D02*
X119616368Y-63871238D01*
X92162892Y-58962513D02*
X92479153Y-59241167D01*
X117223606Y-64881848D02*
X117289532Y-64983073D01*
X101601170Y-63371000D02*
X101635124Y-63371000D01*
X117419140Y-61931551D02*
X117019692Y-62061584D01*
X120003500Y-67744539D02*
X119296394Y-67037432D01*
X143960000Y-71950000D02*
X95640000Y-71950000D01*
X92649936Y-59803590D02*
X97660000Y-59803590D01*
X123751166Y-61734132D02*
X123044060Y-62441238D01*
X119616368Y-63871238D02*
X119638209Y-63797879D01*
X121064161Y-59047126D02*
X120357054Y-59754233D01*
X92649936Y-66196411D02*
X97660000Y-66196411D01*
X125292588Y-66112050D02*
X125292588Y-59812050D01*
X119772241Y-63743974D02*
X119777266Y-63809406D01*
X118793743Y-66195815D02*
X118784597Y-66161068D01*
X117201144Y-65071462D02*
X117122287Y-65019778D01*
X118496718Y-66399245D02*
X118493080Y-66337476D01*
X92641500Y-59303573D02*
X92649669Y-59308514D01*
X92350469Y-66872216D02*
X92187578Y-66687341D01*
X117494461Y-61611674D02*
G75*
G03*
X117350192Y-61618048I-69021J-73655D01*
G01*
X117260423Y-61517443D02*
G75*
G03*
X117252243Y-61845393I155517J-167956D01*
G01*
X118220265Y-62488546D02*
G75*
G03*
X118210491Y-62327705I-81904J75740D01*
G01*
X131831767Y-66199226D02*
G75*
G03*
X131431767Y-66599226I-1J-399999D01*
G01*
X119295586Y-63222424D02*
G75*
G03*
X118940015Y-63210208I-183652J-164639D01*
G01*
X101772277Y-65512467D02*
G75*
G03*
X101672277Y-65612467I-1J-99999D01*
G01*
X92649936Y-66196411D02*
G75*
G03*
X92550001Y-66100000I-99936J-3589D01*
G01*
X118917174Y-66319841D02*
G75*
G03*
X118862993Y-66039802I-229140J100928D01*
G01*
X117845252Y-62696769D02*
G75*
G03*
X117961688Y-62692732I56324J56650D01*
G01*
X117507103Y-65037466D02*
G75*
G03*
X117507421Y-64684231I-169331J176770D01*
G01*
X118940014Y-63210207D02*
G75*
G03*
X118902513Y-63444032I131856J-141067D01*
G01*
X118668688Y-63155177D02*
G75*
G03*
X118673574Y-62790787I-167591J184475D01*
G01*
X118308229Y-63159745D02*
G75*
G03*
X118668688Y-63155177I178020J176644D01*
G01*
X117963706Y-62214776D02*
G75*
G03*
X117899327Y-62424485I158925J-163525D01*
G01*
X118579873Y-66602747D02*
G75*
G03*
X118632355Y-66282977I-286038J211137D01*
G01*
X100272277Y-64762467D02*
G75*
G03*
X100172277Y-64862467I-1J-99999D01*
G01*
X117745603Y-62487271D02*
G75*
G03*
X117747727Y-62789619I144282J-150168D01*
G01*
X105460000Y-63370000D02*
G75*
G03*
X105560000Y-63270000I1J99999D01*
G01*
X104572277Y-67512467D02*
G75*
G03*
X104672277Y-67412467I1J99999D01*
G01*
X118052413Y-62316444D02*
G75*
G03*
X118059744Y-62476116I80880J-76291D01*
G01*
X118764088Y-63250152D02*
G75*
G03*
X118768337Y-62695175I-254874J279456D01*
G01*
X131431767Y-66785812D02*
G75*
G03*
X131631767Y-66808200I150624J441051D01*
G01*
X118304723Y-62231561D02*
G75*
G03*
X117963706Y-62214776I-178068J-145194D01*
G01*
X92143395Y-65850000D02*
G75*
G03*
X92348182Y-66100000I229889J-20562D01*
G01*
X100172277Y-68162467D02*
G75*
G03*
X100272277Y-68262467I99999J-1D01*
G01*
X119610682Y-63727895D02*
G75*
G03*
X119516132Y-63706224I-64731J-65325D01*
G01*
X118402460Y-66503948D02*
G75*
G03*
X118480119Y-66512128I42941J34944D01*
G01*
X105559999Y-58390000D02*
G75*
G03*
X105460000Y-58290001I-99999J0D01*
G01*
X119200079Y-63480471D02*
G75*
G03*
X119195193Y-63312407I-88347J81534D01*
G01*
X117407028Y-64774214D02*
G75*
G03*
X117246082Y-64768158I-83362J-73758D01*
G01*
X118825279Y-63676796D02*
G75*
G03*
X118934915Y-63691244I64505J66287D01*
G01*
X134022807Y-58991663D02*
G75*
G03*
X133923428Y-58892284I-99997J-618D01*
G01*
X130622190Y-58892283D02*
G75*
G03*
X130522810Y-58991663I620J-100000D01*
G01*
X117037115Y-65138603D02*
G75*
G03*
X117146751Y-65153051I64505J66287D01*
G01*
X118209323Y-63251214D02*
G75*
G03*
X118764087Y-63250151I276869J268400D01*
G01*
X105922277Y-67512467D02*
G75*
G03*
X106022277Y-67412467I1J99999D01*
G01*
X118673574Y-62790787D02*
G75*
G03*
X118438049Y-62709517I-203315J-207300D01*
G01*
X105172277Y-67412467D02*
G75*
G03*
X105272277Y-67512467I99999J-1D01*
G01*
X125292588Y-66112050D02*
G75*
G03*
X129392588Y-66112050I2050000J0D01*
G01*
X132913851Y-66808200D02*
G75*
G03*
X133113851Y-66785812I51402J445339D01*
G01*
X117151850Y-64672014D02*
G75*
G03*
X117114349Y-64905839I131856J-141067D01*
G01*
X130522811Y-66792900D02*
G75*
G03*
X130622189Y-66892280I99998J618D01*
G01*
X118324058Y-62575128D02*
G75*
G03*
X118304722Y-62231562I-156633J163512D01*
G01*
X117587843Y-61514681D02*
G75*
G03*
X117260423Y-61517442I-162357J-161813D01*
G01*
X116880098Y-64387727D02*
G75*
G03*
X116530688Y-64504480I-22649J-513440D01*
G01*
X119295267Y-63575659D02*
G75*
G03*
X119295586Y-63222425I-169330J176770D01*
G01*
X118306210Y-66598073D02*
G75*
G03*
X118579874Y-66602748I139125J131873D01*
G01*
X118821667Y-63573322D02*
G75*
G03*
X118825280Y-63676796I49925J-50057D01*
G01*
X92204789Y-59900001D02*
G75*
G03*
X92000001Y-60150000I25101J-229438D01*
G01*
X101072277Y-67512467D02*
G75*
G03*
X101172277Y-67412467I1J99999D01*
G01*
X118380576Y-66373278D02*
G75*
G03*
X118402461Y-66503948I127063J-45887D01*
G01*
X101672277Y-67412467D02*
G75*
G03*
X101772277Y-67512467I99999J-1D01*
G01*
X129392588Y-59812050D02*
G75*
G03*
X125292588Y-59812050I-2050000J0D01*
G01*
X118862992Y-66039804D02*
G75*
G03*
X118552785Y-66031517I-158956J-140091D01*
G01*
X100580000Y-58290000D02*
G75*
G03*
X100480000Y-58390000I-1J-99999D01*
G01*
X92645785Y-66450012D02*
G75*
G03*
X92315241Y-66574858I1J-500002D01*
G01*
X116530688Y-64504480D02*
G75*
G03*
X116530794Y-64822658I156067J-159037D01*
G01*
X116932260Y-64945997D02*
G75*
G03*
X116941290Y-65233154I145154J-139156D01*
G01*
X129817588Y-59812050D02*
G75*
G03*
X124867588Y-59812050I-2475000J0D01*
G01*
X118210492Y-62327705D02*
G75*
G03*
X118052413Y-62316443I-84119J-65668D01*
G01*
X104672277Y-65612467D02*
G75*
G03*
X104572277Y-65512467I-99999J1D01*
G01*
X118653496Y-66121180D02*
G75*
G03*
X118632355Y-66282977I182928J-106182D01*
G01*
X118902513Y-63444033D02*
G75*
G03*
X118720425Y-63484190I-59658J-162393D01*
G01*
X100480000Y-63270000D02*
G75*
G03*
X100580000Y-63370000I99999J-1D01*
G01*
X133923428Y-66892280D02*
G75*
G03*
X134022807Y-66792901I-618J99997D01*
G01*
X100322277Y-67412467D02*
G75*
G03*
X100422277Y-67512467I99999J-1D01*
G01*
X117411915Y-64942278D02*
G75*
G03*
X117407029Y-64774214I-88347J81534D01*
G01*
X117965830Y-62572579D02*
G75*
G03*
X117845359Y-62577891I-57756J-58880D01*
G01*
X118244275Y-66367222D02*
G75*
G03*
X118306211Y-66598073I253957J-55599D01*
G01*
X117486175Y-61754030D02*
G75*
G03*
X117494461Y-61611674I-66643J75298D01*
G01*
X117747728Y-62789619D02*
G75*
G03*
X118050076Y-62794718I153550J138328D01*
G01*
X117114349Y-64905840D02*
G75*
G03*
X116932261Y-64945997I-59658J-162393D01*
G01*
X133113851Y-66599226D02*
G75*
G03*
X132713851Y-66199226I-399999J1D01*
G01*
X117845359Y-62577891D02*
G75*
G03*
X117845253Y-62696769I54050J-59487D01*
G01*
X92315241Y-59425143D02*
G75*
G03*
X92645785Y-59549989I330545J375156D01*
G01*
X117350193Y-61618048D02*
G75*
G03*
X117345200Y-61761573I65501J-74128D01*
G01*
X92348183Y-59900001D02*
G75*
G03*
X92143395Y-60150000I25101J-229438D01*
G01*
X117961687Y-62692732D02*
G75*
G03*
X117965831Y-62572579I-55435J62060D01*
G01*
X118764300Y-66131485D02*
G75*
G03*
X118653497Y-66121180I-60610J-50852D01*
G01*
X119195192Y-63312406D02*
G75*
G03*
X119034245Y-63306351I-83362J-73761D01*
G01*
X92479153Y-59241167D02*
G75*
G03*
X92641500Y-59303573I165268J187566D01*
G01*
X124867588Y-66112050D02*
G75*
G03*
X129817588Y-66112050I2475000J0D01*
G01*
X117586037Y-61844543D02*
G75*
G03*
X117587843Y-61514680I-163779J165833D01*
G01*
X106022277Y-65612467D02*
G75*
G03*
X105922277Y-65512467I-99999J1D01*
G01*
X105272277Y-65512467D02*
G75*
G03*
X105172277Y-65612467I-1J-99999D01*
G01*
X117033503Y-65035129D02*
G75*
G03*
X117037116Y-65138603I49925J-50057D01*
G01*
X116530794Y-64822657D02*
G75*
G03*
X116895184Y-64806297I174515J179234D01*
G01*
X118720425Y-63484190D02*
G75*
G03*
X118729455Y-63771345I145151J-139155D01*
G01*
X100422277Y-65512467D02*
G75*
G03*
X100322277Y-65612467I-1J-99999D01*
G01*
X118059743Y-62476116D02*
G75*
G03*
X118220265Y-62488546I86397J73027D01*
G01*
X116632569Y-64592975D02*
G75*
G03*
X116631400Y-64732887I64281J-70498D01*
G01*
X92550000Y-59900001D02*
G75*
G03*
X92649937Y-59803590I1J100000D01*
G01*
X92000000Y-65850000D02*
G75*
G03*
X92204788Y-66100001I229889J-20563D01*
G01*
X106072277Y-68262467D02*
G75*
G03*
X106172277Y-68162467I1J99999D01*
G01*
X117345201Y-61761572D02*
G75*
G03*
X117486174Y-61754029I66820J72283D01*
G01*
X117507421Y-64684232D02*
G75*
G03*
X117151851Y-64672014I-183652J-164638D01*
G01*
X92641500Y-66696428D02*
G75*
G03*
X92479153Y-66758834I2929J-249992D01*
G01*
X106172277Y-64862467D02*
G75*
G03*
X106072277Y-64762467I-99999J1D01*
G01*
X132698685Y-59840855D02*
G75*
G03*
X132698685Y-59840855I-425876J0D01*
G01*
X122768576Y-62865502D02*
G75*
G03*
X122768576Y-62865502I-250000J0D01*
G01*
D15*
X138665060Y-61976380D02*
X139173060Y-61976380D01*
X139173060Y-61976380D02*
X139173060Y-61468380D01*
X139173060Y-61468380D02*
X138665060Y-61468380D01*
X138665060Y-61468380D02*
X138665060Y-61976380D01*
G36*
X139173060Y-61976380D02*
G01*
X138665060Y-61976380D01*
X138665060Y-61468380D01*
X139173060Y-61468380D01*
X139173060Y-61976380D01*
G37*
X139173060Y-61976380D02*
X138665060Y-61976380D01*
X138665060Y-61468380D01*
X139173060Y-61468380D01*
X139173060Y-61976380D01*
X138665060Y-59436380D02*
X139173060Y-59436380D01*
X139173060Y-59436380D02*
X139173060Y-58928380D01*
X139173060Y-58928380D02*
X138665060Y-58928380D01*
X138665060Y-58928380D02*
X138665060Y-59436380D01*
G36*
X139173060Y-59436380D02*
G01*
X138665060Y-59436380D01*
X138665060Y-58928380D01*
X139173060Y-58928380D01*
X139173060Y-59436380D01*
G37*
X139173060Y-59436380D02*
X138665060Y-59436380D01*
X138665060Y-58928380D01*
X139173060Y-58928380D01*
X139173060Y-59436380D01*
X138665060Y-64516380D02*
X139173060Y-64516380D01*
X139173060Y-64516380D02*
X139173060Y-64008380D01*
X139173060Y-64008380D02*
X138665060Y-64008380D01*
X138665060Y-64008380D02*
X138665060Y-64516380D01*
G36*
X139173060Y-64516380D02*
G01*
X138665060Y-64516380D01*
X138665060Y-64008380D01*
X139173060Y-64008380D01*
X139173060Y-64516380D01*
G37*
X139173060Y-64516380D02*
X138665060Y-64516380D01*
X138665060Y-64008380D01*
X139173060Y-64008380D01*
X139173060Y-64516380D01*
X138665060Y-67056380D02*
X139173060Y-67056380D01*
X139173060Y-67056380D02*
X139173060Y-66548380D01*
X139173060Y-66548380D02*
X138665060Y-66548380D01*
X138665060Y-66548380D02*
X138665060Y-67056380D01*
G36*
X139173060Y-67056380D02*
G01*
X138665060Y-67056380D01*
X138665060Y-66548380D01*
X139173060Y-66548380D01*
X139173060Y-67056380D01*
G37*
X139173060Y-67056380D02*
X138665060Y-67056380D01*
X138665060Y-66548380D01*
X139173060Y-66548380D01*
X139173060Y-67056380D01*
D11*
%TO.C,F8*%
X148663923Y-185835188D02*
X148663923Y-188995188D01*
X171383923Y-192495188D02*
X171383923Y-195655188D01*
X171383923Y-185835188D02*
X171383923Y-188995188D01*
X171383923Y-195655188D02*
X148663923Y-195655188D01*
X171383923Y-185835188D02*
X148663923Y-185835188D01*
X148663923Y-192495188D02*
X148663923Y-195655188D01*
%TO.C,F6*%
X136383923Y-136335188D02*
X136383923Y-139495188D01*
X113663923Y-136335188D02*
X113663923Y-139495188D01*
X113663923Y-142995188D02*
X113663923Y-146155188D01*
X136383923Y-146155188D02*
X113663923Y-146155188D01*
X136383923Y-142995188D02*
X136383923Y-146155188D01*
X136383923Y-136335188D02*
X113663923Y-136335188D01*
%TO.C,J3*%
X53920000Y-58330000D02*
X52590000Y-58330000D01*
X52590000Y-58330000D02*
X52590000Y-57000000D01*
X62870000Y-58330000D02*
X62870000Y-55670000D01*
X55190000Y-58330000D02*
X55190000Y-55670000D01*
X55190000Y-55670000D02*
X62870000Y-55670000D01*
X55190000Y-58330000D02*
X62870000Y-58330000D01*
%TO.C,J2*%
X61870000Y-86330000D02*
X61870000Y-83670000D01*
X58000000Y-86330000D02*
X56670000Y-86330000D01*
X56670000Y-86330000D02*
X56670000Y-85000000D01*
X59270000Y-83670000D02*
X61870000Y-83670000D01*
X59270000Y-86330000D02*
X61870000Y-86330000D01*
X59270000Y-86330000D02*
X59270000Y-83670000D01*
%TO.C,R12*%
X144314564Y-86592500D02*
X143860436Y-86592500D01*
X144314564Y-88062500D02*
X143860436Y-88062500D01*
%TD*%
M02*
