%TF.GenerationSoftware,KiCad,Pcbnew,(6.0.2)*%
%TF.CreationDate,2022-03-14T17:26:10-03:00*%
%TF.ProjectId,painel1,7061696e-656c-4312-9e6b-696361645f70,rev?*%
%TF.SameCoordinates,Original*%
%TF.FileFunction,Profile,NP*%
%FSLAX46Y46*%
G04 Gerber Fmt 4.6, Leading zero omitted, Abs format (unit mm)*
G04 Created by KiCad (PCBNEW (6.0.2)) date 2022-03-14 17:26:10*
%MOMM*%
%LPD*%
G01*
G04 APERTURE LIST*
%TA.AperFunction,Profile*%
%ADD10C,0.100000*%
%TD*%
G04 APERTURE END LIST*
D10*
X230000000Y-46000000D02*
X189000000Y-46000000D01*
X194000000Y-125000000D02*
G75*
G03*
X194000000Y-125000000I-2000000J0D01*
G01*
X189000000Y-143000000D02*
X230000000Y-143000000D01*
X230000000Y-143000000D02*
X230000000Y-46000000D01*
X229000000Y-125000000D02*
G75*
G03*
X229000000Y-125000000I-2000000J0D01*
G01*
X194000000Y-63000000D02*
G75*
G03*
X194000000Y-63000000I-2000000J0D01*
G01*
X189000000Y-46000000D02*
X189000000Y-143000000D01*
X229000000Y-63000000D02*
G75*
G03*
X229000000Y-63000000I-2000000J0D01*
G01*
X30000000Y-112040000D02*
X189000000Y-112040000D01*
X189000000Y-112040000D02*
X189000000Y-221040000D01*
X189000000Y-221040000D02*
X30000000Y-221040000D01*
X30000000Y-221040000D02*
X30000000Y-112040000D01*
X30000000Y-46000000D02*
X230000000Y-46000000D01*
X230000000Y-46000000D02*
X230000000Y-246000000D01*
X230000000Y-246000000D02*
X30000000Y-246000000D01*
X30000000Y-246000000D02*
X30000000Y-46000000D01*
X30000000Y-46000000D02*
X186000000Y-46000000D01*
X186000000Y-46000000D02*
X186000000Y-112000000D01*
X186000000Y-112000000D02*
X30000000Y-112000000D01*
X30000000Y-112000000D02*
X30000000Y-46000000D01*
M02*
