%TF.GenerationSoftware,KiCad,Pcbnew,(6.0.2)*%
%TF.CreationDate,2022-03-17T16:38:25-03:00*%
%TF.ProjectId,painel1,7061696e-656c-4312-9e6b-696361645f70,rev?*%
%TF.SameCoordinates,Original*%
%TF.FileFunction,Soldermask,Bot*%
%TF.FilePolarity,Negative*%
%FSLAX46Y46*%
G04 Gerber Fmt 4.6, Leading zero omitted, Abs format (unit mm)*
G04 Created by KiCad (PCBNEW (6.0.2)) date 2022-03-17 16:38:25*
%MOMM*%
%LPD*%
G01*
G04 APERTURE LIST*
%ADD10R,1.700000X1.700000*%
%ADD11O,1.700000X1.700000*%
%ADD12C,2.700000*%
%ADD13C,3.000000*%
%ADD14R,1.308000X1.308000*%
%ADD15R,3.000000X3.000000*%
%ADD16C,1.600000*%
%ADD17O,1.600000X1.600000*%
%ADD18R,2.200000X2.200000*%
%ADD19O,2.200000X2.200000*%
%ADD20R,2.400000X1.600000*%
%ADD21O,2.400000X1.600000*%
%ADD22R,1.800000X1.800000*%
%ADD23C,1.800000*%
%ADD24C,2.850000*%
%ADD25R,2.625000X2.625000*%
%ADD26C,2.625000*%
%ADD27C,1.524000*%
%ADD28C,1.700000*%
G04 APERTURE END LIST*
D10*
%TO.C,J6*%
X93950000Y-79000000D03*
D11*
X96490000Y-79000000D03*
X99030000Y-79000000D03*
X101570000Y-79000000D03*
%TD*%
D12*
%TO.C,F14*%
X87273923Y-207245188D03*
D13*
X76023923Y-207245188D03*
X98523923Y-207245188D03*
%TD*%
D12*
%TO.C,F11*%
X87273923Y-141245188D03*
D13*
X76023923Y-141245188D03*
X98523923Y-141245188D03*
%TD*%
D14*
%TO.C,U2*%
X64500000Y-85130000D03*
X64500000Y-86530000D03*
X64500000Y-98200000D03*
X64500000Y-99600000D03*
X83500000Y-85130000D03*
X83500000Y-86530000D03*
X83500000Y-98200000D03*
X83500000Y-99600000D03*
%TD*%
D12*
%TO.C,F2*%
X210250000Y-127875000D03*
D13*
X221500000Y-127875000D03*
X199000000Y-127875000D03*
%TD*%
D10*
%TO.C,J5*%
X106475000Y-79000000D03*
D11*
X109015000Y-79000000D03*
X111555000Y-79000000D03*
%TD*%
D12*
%TO.C,F15*%
X87273923Y-190745188D03*
D13*
X76023923Y-190745188D03*
X98523923Y-190745188D03*
%TD*%
D12*
%TO.C,F3*%
X210250000Y-116750000D03*
D13*
X221500000Y-116750000D03*
X199000000Y-116750000D03*
%TD*%
D12*
%TO.C,F7*%
X160023923Y-207245188D03*
D13*
X171273923Y-207245188D03*
X148773923Y-207245188D03*
%TD*%
D15*
%TO.C,J9*%
X178823923Y-160785188D03*
D13*
X178823923Y-155705188D03*
%TD*%
D16*
%TO.C,R16*%
X83080000Y-70000000D03*
D17*
X72920000Y-70000000D03*
%TD*%
D15*
%TO.C,J7*%
X178823923Y-123045188D03*
D13*
X178823923Y-117965188D03*
%TD*%
D15*
%TO.C,J5*%
X82483923Y-217245188D03*
D13*
X87563923Y-217245188D03*
%TD*%
D12*
%TO.C,F7*%
X210250000Y-72250000D03*
D13*
X221500000Y-72250000D03*
X199000000Y-72250000D03*
%TD*%
D12*
%TO.C,F16*%
X160023923Y-124745188D03*
D13*
X148773923Y-124745188D03*
X171273923Y-124745188D03*
%TD*%
D18*
%TO.C,D1*%
X59000000Y-99080000D03*
D19*
X59000000Y-88920000D03*
%TD*%
D15*
%TO.C,J4*%
X93943923Y-217245188D03*
D13*
X99023923Y-217245188D03*
X104103923Y-217245188D03*
%TD*%
D12*
%TO.C,F8*%
X210250000Y-61125000D03*
D13*
X221500000Y-61125000D03*
X199000000Y-61125000D03*
%TD*%
D12*
%TO.C,F2*%
X125023923Y-207245188D03*
D13*
X136273923Y-207245188D03*
X113773923Y-207245188D03*
%TD*%
D20*
%TO.C,U3*%
X158000000Y-97540000D03*
D21*
X158000000Y-95000000D03*
X158000000Y-92460000D03*
X158000000Y-89920000D03*
X158000000Y-87380000D03*
X158000000Y-84840000D03*
X158000000Y-82300000D03*
X150380000Y-82300000D03*
X150380000Y-84840000D03*
X150380000Y-87380000D03*
X150380000Y-89920000D03*
X150380000Y-92460000D03*
X150380000Y-95000000D03*
X150380000Y-97540000D03*
%TD*%
D15*
%TO.C,J6*%
X147023923Y-217245188D03*
D13*
X152103923Y-217245188D03*
%TD*%
D16*
%TO.C,R4*%
X83080000Y-61000000D03*
D17*
X72920000Y-61000000D03*
%TD*%
D12*
%TO.C,F9*%
X87273923Y-174245188D03*
D13*
X76023923Y-174245188D03*
X98523923Y-174245188D03*
%TD*%
D12*
%TO.C,F9*%
X210250000Y-50000000D03*
D13*
X221500000Y-50000000D03*
X199000000Y-50000000D03*
%TD*%
D12*
%TO.C,F6*%
X210250000Y-83375000D03*
D13*
X221500000Y-83375000D03*
X199000000Y-83375000D03*
%TD*%
D12*
%TO.C,F13*%
X125023923Y-124745188D03*
D13*
X136273923Y-124745188D03*
X113773923Y-124745188D03*
%TD*%
D12*
%TO.C,F5*%
X125023923Y-157745188D03*
D13*
X136273923Y-157745188D03*
X113773923Y-157745188D03*
%TD*%
D16*
%TO.C,R2*%
X83080000Y-55000000D03*
D17*
X72920000Y-55000000D03*
%TD*%
D20*
%TO.C,U4*%
X171775000Y-69175000D03*
D21*
X171775000Y-66635000D03*
X171775000Y-64095000D03*
X171775000Y-61555000D03*
X171775000Y-59015000D03*
X171775000Y-56475000D03*
X171775000Y-53935000D03*
X164155000Y-53935000D03*
X164155000Y-56475000D03*
X164155000Y-59015000D03*
X164155000Y-61555000D03*
X164155000Y-64095000D03*
X164155000Y-66635000D03*
X164155000Y-69175000D03*
%TD*%
D16*
%TO.C,R17*%
X72920000Y-73000000D03*
D17*
X83080000Y-73000000D03*
%TD*%
D12*
%TO.C,F4*%
X210250000Y-105625000D03*
D13*
X221500000Y-105625000D03*
X199000000Y-105625000D03*
%TD*%
D10*
%TO.C,J2*%
X193000000Y-84850000D03*
D11*
X193000000Y-87390000D03*
X193000000Y-89930000D03*
X193000000Y-92470000D03*
X193000000Y-95010000D03*
X193000000Y-97550000D03*
X193000000Y-100090000D03*
X193000000Y-102630000D03*
X193000000Y-105170000D03*
%TD*%
D12*
%TO.C,F10*%
X87273923Y-157745188D03*
D13*
X76023923Y-157745188D03*
X98523923Y-157745188D03*
%TD*%
D10*
%TO.C,J1*%
X226000000Y-105150000D03*
D11*
X226000000Y-102610000D03*
X226000000Y-100070000D03*
X226000000Y-97530000D03*
X226000000Y-94990000D03*
X226000000Y-92450000D03*
X226000000Y-89910000D03*
X226000000Y-87370000D03*
X226000000Y-84830000D03*
%TD*%
D12*
%TO.C,F4*%
X125023923Y-174245188D03*
D13*
X136273923Y-174245188D03*
X113773923Y-174245188D03*
%TD*%
D22*
%TO.C,D2*%
X91000000Y-97000000D03*
D23*
X91000000Y-99540000D03*
%TD*%
D16*
%TO.C,R5*%
X72920000Y-58000000D03*
D17*
X83080000Y-58000000D03*
%TD*%
D16*
%TO.C,R3*%
X72920000Y-52000000D03*
D17*
X83080000Y-52000000D03*
%TD*%
D24*
%TO.C,J1*%
X40500000Y-58500000D03*
X40500000Y-99500000D03*
D25*
X45000000Y-65000000D03*
D26*
X45000000Y-69000000D03*
X45000000Y-73000000D03*
X45000000Y-77000000D03*
X45000000Y-81000000D03*
X45000000Y-85000000D03*
X45000000Y-89000000D03*
X45000000Y-93000000D03*
X41000000Y-67000000D03*
X41000000Y-71000000D03*
X41000000Y-75000000D03*
X41000000Y-79000000D03*
X41000000Y-83000000D03*
X41000000Y-87000000D03*
X41000000Y-91000000D03*
X37000000Y-65000000D03*
X37000000Y-69000000D03*
X37000000Y-73000000D03*
X37000000Y-77000000D03*
X37000000Y-81000000D03*
X37000000Y-85000000D03*
X37000000Y-89000000D03*
X37000000Y-93000000D03*
%TD*%
D16*
%TO.C,R11*%
X72920000Y-64000000D03*
D17*
X83080000Y-64000000D03*
%TD*%
D12*
%TO.C,F1*%
X210250000Y-139000000D03*
D13*
X221500000Y-139000000D03*
X199000000Y-139000000D03*
%TD*%
D12*
%TO.C,F12*%
X87273923Y-124745188D03*
D13*
X76023923Y-124745188D03*
X98523923Y-124745188D03*
%TD*%
D24*
%TO.C,J1*%
X43023923Y-186745188D03*
X43023923Y-145745188D03*
D25*
X47523923Y-152245188D03*
D26*
X47523923Y-156245188D03*
X47523923Y-160245188D03*
X47523923Y-164245188D03*
X47523923Y-168245188D03*
X47523923Y-172245188D03*
X47523923Y-176245188D03*
X47523923Y-180245188D03*
X43523923Y-154245188D03*
X43523923Y-158245188D03*
X43523923Y-162245188D03*
X43523923Y-166245188D03*
X43523923Y-170245188D03*
X43523923Y-174245188D03*
X43523923Y-178245188D03*
X39523923Y-152245188D03*
X39523923Y-156245188D03*
X39523923Y-160245188D03*
X39523923Y-164245188D03*
X39523923Y-168245188D03*
X39523923Y-172245188D03*
X39523923Y-176245188D03*
X39523923Y-180245188D03*
%TD*%
D12*
%TO.C,F1*%
X160023923Y-174245188D03*
D13*
X171273923Y-174245188D03*
X148773923Y-174245188D03*
%TD*%
D12*
%TO.C,F5*%
X210250000Y-94500000D03*
D13*
X221500000Y-94500000D03*
X199000000Y-94500000D03*
%TD*%
D10*
%TO.C,J4*%
X116920000Y-79000000D03*
D11*
X119460000Y-79000000D03*
X122000000Y-79000000D03*
X124540000Y-79000000D03*
%TD*%
D27*
%TO.C,U5*%
X121430000Y-92222500D03*
X121430000Y-89682500D03*
X121430000Y-87142500D03*
X121430000Y-84602500D03*
X101745000Y-89682500D03*
X101745000Y-87142500D03*
%TD*%
D12*
%TO.C,F18*%
X160023923Y-157745188D03*
D13*
X148773923Y-157745188D03*
X171273923Y-157745188D03*
%TD*%
D15*
%TO.C,J10*%
X178823923Y-143365188D03*
D13*
X178823923Y-138285188D03*
%TD*%
D12*
%TO.C,F19*%
X160023923Y-141245188D03*
D13*
X148773923Y-141245188D03*
X171273923Y-141245188D03*
%TD*%
D12*
%TO.C,F3*%
X125023923Y-190745188D03*
D13*
X136273923Y-190745188D03*
X113773923Y-190745188D03*
%TD*%
D16*
%TO.C,R10*%
X83080000Y-67000000D03*
D17*
X72920000Y-67000000D03*
%TD*%
D10*
%TO.C,U1*%
X94370000Y-70620000D03*
D28*
X96910000Y-70620000D03*
X99450000Y-70620000D03*
X101990000Y-70620000D03*
X104530000Y-70620000D03*
X107070000Y-70620000D03*
X109610000Y-70620000D03*
X112150000Y-70620000D03*
X114690000Y-70620000D03*
X117230000Y-70620000D03*
X119770000Y-70620000D03*
X122310000Y-70620000D03*
X124850000Y-70620000D03*
X127390000Y-70620000D03*
X129930000Y-70620000D03*
X132470000Y-70620000D03*
X135010000Y-70620000D03*
X137550000Y-70620000D03*
X140090000Y-70620000D03*
X142630000Y-70620000D03*
X142630000Y-55380000D03*
X140090000Y-55380000D03*
X137550000Y-55380000D03*
X135010000Y-55380000D03*
X132470000Y-55380000D03*
X129930000Y-55380000D03*
X127390000Y-55380000D03*
X124850000Y-55380000D03*
X122310000Y-55380000D03*
X119770000Y-55380000D03*
X117230000Y-55380000D03*
X114690000Y-55380000D03*
X112150000Y-55380000D03*
X109610000Y-55380000D03*
X107070000Y-55380000D03*
X104530000Y-55380000D03*
X101990000Y-55380000D03*
X99450000Y-55380000D03*
X96910000Y-55380000D03*
X94370000Y-55380000D03*
%TD*%
D12*
%TO.C,F8*%
X160023923Y-190745188D03*
D13*
X171273923Y-190745188D03*
X148773923Y-190745188D03*
%TD*%
D12*
%TO.C,F6*%
X125023923Y-141245188D03*
D13*
X136273923Y-141245188D03*
X113773923Y-141245188D03*
%TD*%
D10*
%TO.C,J3*%
X53920000Y-57000000D03*
D11*
X56460000Y-57000000D03*
X59000000Y-57000000D03*
X61540000Y-57000000D03*
%TD*%
D10*
%TO.C,J2*%
X58000000Y-85000000D03*
D11*
X60540000Y-85000000D03*
%TD*%
M02*
