M48
; DRILL file {KiCad (6.0.2)} date Thu Mar 17 16:38:28 2022
; FORMAT={-:-/ absolute / inch / decimal}
; #@! TF.CreationDate,2022-03-17T16:38:28-03:00
; #@! TF.GenerationSoftware,Kicad,Pcbnew,(6.0.2)
; #@! TF.FileFunction,NonPlated,1,2,NPTH
FMAT,2
INCH
; #@! TA.AperFunction,NonPlated,NPTH,ComponentDrill
T1C0.1063
; #@! TA.AperFunction,NonPlated,NPTH,ComponentDrill
T2C0.1122
%
G90
G05
T1
X3.436Y-4.9112
X3.436Y-5.5608
X3.436Y-6.2104
X3.436Y-6.86
X3.436Y-7.5097
X3.436Y-8.1593
X4.9222Y-4.9112
X4.9222Y-5.5608
X4.9222Y-6.2104
X4.9222Y-6.86
X4.9222Y-7.5097
X4.9222Y-8.1593
X6.3002Y-4.9112
X6.3002Y-5.5608
X6.3002Y-6.2104
X6.3002Y-6.86
X6.3002Y-7.5097
X6.3002Y-8.1593
X8.2776Y-1.9685
X8.2776Y-2.4065
X8.2776Y-2.8445
X8.2776Y-3.2825
X8.2776Y-3.7205
X8.2776Y-4.1585
X8.2776Y-4.5965
X8.2776Y-5.0344
X8.2776Y-5.4724
T2
X1.5945Y-2.3031
X1.5945Y-3.9173
X1.6939Y-5.738
X1.6939Y-7.3522
T0
M30
