%TF.GenerationSoftware,KiCad,Pcbnew,(6.0.2)*%
%TF.CreationDate,2022-03-14T17:26:10-03:00*%
%TF.ProjectId,painel1,7061696e-656c-4312-9e6b-696361645f70,rev?*%
%TF.SameCoordinates,Original*%
%TF.FileFunction,Soldermask,Bot*%
%TF.FilePolarity,Negative*%
%FSLAX46Y46*%
G04 Gerber Fmt 4.6, Leading zero omitted, Abs format (unit mm)*
G04 Created by KiCad (PCBNEW (6.0.2)) date 2022-03-14 17:26:10*
%MOMM*%
%LPD*%
G01*
G04 APERTURE LIST*
%ADD10R,1.700000X1.700000*%
%ADD11O,1.700000X1.700000*%
%ADD12C,2.700000*%
%ADD13C,3.000000*%
%ADD14R,3.000000X3.000000*%
%ADD15C,2.850000*%
%ADD16R,2.625000X2.625000*%
%ADD17C,2.625000*%
%ADD18C,1.600000*%
%ADD19O,1.600000X1.600000*%
%ADD20R,1.308000X1.308000*%
%ADD21C,1.700000*%
%ADD22C,1.524000*%
%ADD23R,1.800000X1.800000*%
%ADD24C,1.800000*%
%ADD25R,2.400000X1.600000*%
%ADD26O,2.400000X1.600000*%
%ADD27R,2.200000X2.200000*%
%ADD28O,2.200000X2.200000*%
G04 APERTURE END LIST*
D10*
%TO.C,J2*%
X193000000Y-84850000D03*
D11*
X193000000Y-87390000D03*
X193000000Y-89930000D03*
X193000000Y-92470000D03*
X193000000Y-95010000D03*
X193000000Y-97550000D03*
X193000000Y-100090000D03*
X193000000Y-102630000D03*
X193000000Y-105170000D03*
%TD*%
D10*
%TO.C,J1*%
X226000000Y-105150000D03*
D11*
X226000000Y-102610000D03*
X226000000Y-100070000D03*
X226000000Y-97530000D03*
X226000000Y-94990000D03*
X226000000Y-92450000D03*
X226000000Y-89910000D03*
X226000000Y-87370000D03*
X226000000Y-84830000D03*
%TD*%
D12*
%TO.C,F5*%
X210250000Y-94500000D03*
D13*
X221500000Y-94500000D03*
X199000000Y-94500000D03*
%TD*%
D12*
%TO.C,F4*%
X210250000Y-105625000D03*
D13*
X221500000Y-105625000D03*
X199000000Y-105625000D03*
%TD*%
D12*
%TO.C,F8*%
X210250000Y-61125000D03*
D13*
X221500000Y-61125000D03*
X199000000Y-61125000D03*
%TD*%
D12*
%TO.C,F9*%
X210250000Y-50000000D03*
D13*
X221500000Y-50000000D03*
X199000000Y-50000000D03*
%TD*%
D12*
%TO.C,F6*%
X210250000Y-83375000D03*
D13*
X221500000Y-83375000D03*
X199000000Y-83375000D03*
%TD*%
D12*
%TO.C,F1*%
X210250000Y-139000000D03*
D13*
X221500000Y-139000000D03*
X199000000Y-139000000D03*
%TD*%
D12*
%TO.C,F2*%
X210250000Y-127875000D03*
D13*
X221500000Y-127875000D03*
X199000000Y-127875000D03*
%TD*%
D12*
%TO.C,F7*%
X210250000Y-72250000D03*
D13*
X221500000Y-72250000D03*
X199000000Y-72250000D03*
%TD*%
D12*
%TO.C,F3*%
X210250000Y-116750000D03*
D13*
X221500000Y-116750000D03*
X199000000Y-116750000D03*
%TD*%
D12*
%TO.C,F8*%
X160000000Y-190000000D03*
D13*
X171250000Y-190000000D03*
X148750000Y-190000000D03*
%TD*%
D12*
%TO.C,F18*%
X160000000Y-157000000D03*
D13*
X148750000Y-157000000D03*
X171250000Y-157000000D03*
%TD*%
D12*
%TO.C,F3*%
X125000000Y-190000000D03*
D13*
X136250000Y-190000000D03*
X113750000Y-190000000D03*
%TD*%
D14*
%TO.C,J4*%
X93920000Y-216500000D03*
D13*
X99000000Y-216500000D03*
X104080000Y-216500000D03*
%TD*%
D12*
%TO.C,F9*%
X87250000Y-173500000D03*
D13*
X76000000Y-173500000D03*
X98500000Y-173500000D03*
%TD*%
D12*
%TO.C,F4*%
X125000000Y-173500000D03*
D13*
X136250000Y-173500000D03*
X113750000Y-173500000D03*
%TD*%
D12*
%TO.C,F19*%
X160000000Y-140500000D03*
D13*
X148750000Y-140500000D03*
X171250000Y-140500000D03*
%TD*%
D12*
%TO.C,F15*%
X87250000Y-190000000D03*
D13*
X76000000Y-190000000D03*
X98500000Y-190000000D03*
%TD*%
D14*
%TO.C,J6*%
X147000000Y-216500000D03*
D13*
X152080000Y-216500000D03*
%TD*%
D12*
%TO.C,F16*%
X160000000Y-124000000D03*
D13*
X148750000Y-124000000D03*
X171250000Y-124000000D03*
%TD*%
D12*
%TO.C,F2*%
X125000000Y-206500000D03*
D13*
X136250000Y-206500000D03*
X113750000Y-206500000D03*
%TD*%
D12*
%TO.C,F6*%
X125000000Y-140500000D03*
D13*
X136250000Y-140500000D03*
X113750000Y-140500000D03*
%TD*%
D14*
%TO.C,J9*%
X185000000Y-160040000D03*
D13*
X185000000Y-154960000D03*
%TD*%
D15*
%TO.C,J1*%
X43000000Y-186000000D03*
X43000000Y-145000000D03*
D16*
X47500000Y-151500000D03*
D17*
X47500000Y-155500000D03*
X47500000Y-159500000D03*
X47500000Y-163500000D03*
X47500000Y-167500000D03*
X47500000Y-171500000D03*
X47500000Y-175500000D03*
X47500000Y-179500000D03*
X43500000Y-153500000D03*
X43500000Y-157500000D03*
X43500000Y-161500000D03*
X43500000Y-165500000D03*
X43500000Y-169500000D03*
X43500000Y-173500000D03*
X43500000Y-177500000D03*
X39500000Y-151500000D03*
X39500000Y-155500000D03*
X39500000Y-159500000D03*
X39500000Y-163500000D03*
X39500000Y-167500000D03*
X39500000Y-171500000D03*
X39500000Y-175500000D03*
X39500000Y-179500000D03*
%TD*%
D14*
%TO.C,J7*%
X185000000Y-126580000D03*
D13*
X185000000Y-121500000D03*
%TD*%
D12*
%TO.C,F12*%
X87250000Y-124000000D03*
D13*
X76000000Y-124000000D03*
X98500000Y-124000000D03*
%TD*%
D12*
%TO.C,F13*%
X125000000Y-124000000D03*
D13*
X136250000Y-124000000D03*
X113750000Y-124000000D03*
%TD*%
D12*
%TO.C,F5*%
X125000000Y-157000000D03*
D13*
X136250000Y-157000000D03*
X113750000Y-157000000D03*
%TD*%
D12*
%TO.C,F14*%
X87250000Y-206500000D03*
D13*
X76000000Y-206500000D03*
X98500000Y-206500000D03*
%TD*%
D14*
%TO.C,J5*%
X82460000Y-216500000D03*
D13*
X87540000Y-216500000D03*
%TD*%
D14*
%TO.C,J10*%
X185000000Y-142580000D03*
D13*
X185000000Y-137500000D03*
%TD*%
D12*
%TO.C,F11*%
X87250000Y-140500000D03*
D13*
X76000000Y-140500000D03*
X98500000Y-140500000D03*
%TD*%
D12*
%TO.C,F10*%
X87250000Y-157000000D03*
D13*
X76000000Y-157000000D03*
X98500000Y-157000000D03*
%TD*%
D12*
%TO.C,F1*%
X160000000Y-173500000D03*
D13*
X171250000Y-173500000D03*
X148750000Y-173500000D03*
%TD*%
D12*
%TO.C,F7*%
X160000000Y-206500000D03*
D13*
X171250000Y-206500000D03*
X148750000Y-206500000D03*
%TD*%
D10*
%TO.C,J4*%
X116920000Y-79000000D03*
D11*
X119460000Y-79000000D03*
X122000000Y-79000000D03*
X124540000Y-79000000D03*
%TD*%
D18*
%TO.C,R17*%
X72920000Y-73000000D03*
D19*
X83080000Y-73000000D03*
%TD*%
D20*
%TO.C,U2*%
X64500000Y-85130000D03*
X64500000Y-86530000D03*
X64500000Y-98200000D03*
X64500000Y-99600000D03*
X83500000Y-85130000D03*
X83500000Y-86530000D03*
X83500000Y-98200000D03*
X83500000Y-99600000D03*
%TD*%
D18*
%TO.C,R4*%
X83080000Y-61000000D03*
D19*
X72920000Y-61000000D03*
%TD*%
D10*
%TO.C,U1*%
X94370000Y-70620000D03*
D21*
X96910000Y-70620000D03*
X99450000Y-70620000D03*
X101990000Y-70620000D03*
X104530000Y-70620000D03*
X107070000Y-70620000D03*
X109610000Y-70620000D03*
X112150000Y-70620000D03*
X114690000Y-70620000D03*
X117230000Y-70620000D03*
X119770000Y-70620000D03*
X122310000Y-70620000D03*
X124850000Y-70620000D03*
X127390000Y-70620000D03*
X129930000Y-70620000D03*
X132470000Y-70620000D03*
X135010000Y-70620000D03*
X137550000Y-70620000D03*
X140090000Y-70620000D03*
X142630000Y-70620000D03*
X142630000Y-55380000D03*
X140090000Y-55380000D03*
X137550000Y-55380000D03*
X135010000Y-55380000D03*
X132470000Y-55380000D03*
X129930000Y-55380000D03*
X127390000Y-55380000D03*
X124850000Y-55380000D03*
X122310000Y-55380000D03*
X119770000Y-55380000D03*
X117230000Y-55380000D03*
X114690000Y-55380000D03*
X112150000Y-55380000D03*
X109610000Y-55380000D03*
X107070000Y-55380000D03*
X104530000Y-55380000D03*
X101990000Y-55380000D03*
X99450000Y-55380000D03*
X96910000Y-55380000D03*
X94370000Y-55380000D03*
%TD*%
D18*
%TO.C,R16*%
X83080000Y-70000000D03*
D19*
X72920000Y-70000000D03*
%TD*%
D18*
%TO.C,R5*%
X72920000Y-58000000D03*
D19*
X83080000Y-58000000D03*
%TD*%
D10*
%TO.C,J2*%
X58000000Y-85000000D03*
D11*
X60540000Y-85000000D03*
%TD*%
D22*
%TO.C,U5*%
X121430000Y-92222500D03*
X121430000Y-89682500D03*
X121430000Y-87142500D03*
X121430000Y-84602500D03*
X101745000Y-89682500D03*
X101745000Y-87142500D03*
%TD*%
D15*
%TO.C,J1*%
X40500000Y-58500000D03*
X40500000Y-99500000D03*
D16*
X45000000Y-65000000D03*
D17*
X45000000Y-69000000D03*
X45000000Y-73000000D03*
X45000000Y-77000000D03*
X45000000Y-81000000D03*
X45000000Y-85000000D03*
X45000000Y-89000000D03*
X45000000Y-93000000D03*
X41000000Y-67000000D03*
X41000000Y-71000000D03*
X41000000Y-75000000D03*
X41000000Y-79000000D03*
X41000000Y-83000000D03*
X41000000Y-87000000D03*
X41000000Y-91000000D03*
X37000000Y-65000000D03*
X37000000Y-69000000D03*
X37000000Y-73000000D03*
X37000000Y-77000000D03*
X37000000Y-81000000D03*
X37000000Y-85000000D03*
X37000000Y-89000000D03*
X37000000Y-93000000D03*
%TD*%
D23*
%TO.C,D2*%
X91000000Y-97000000D03*
D24*
X91000000Y-99540000D03*
%TD*%
D10*
%TO.C,J3*%
X53920000Y-57000000D03*
D11*
X56460000Y-57000000D03*
X59000000Y-57000000D03*
X61540000Y-57000000D03*
%TD*%
D18*
%TO.C,R3*%
X72920000Y-52000000D03*
D19*
X83080000Y-52000000D03*
%TD*%
D18*
%TO.C,R10*%
X83080000Y-67000000D03*
D19*
X72920000Y-67000000D03*
%TD*%
D25*
%TO.C,U3*%
X158000000Y-97540000D03*
D26*
X158000000Y-95000000D03*
X158000000Y-92460000D03*
X158000000Y-89920000D03*
X158000000Y-87380000D03*
X158000000Y-84840000D03*
X158000000Y-82300000D03*
X150380000Y-82300000D03*
X150380000Y-84840000D03*
X150380000Y-87380000D03*
X150380000Y-89920000D03*
X150380000Y-92460000D03*
X150380000Y-95000000D03*
X150380000Y-97540000D03*
%TD*%
D27*
%TO.C,D1*%
X59000000Y-99080000D03*
D28*
X59000000Y-88920000D03*
%TD*%
D25*
%TO.C,U4*%
X171775000Y-69175000D03*
D26*
X171775000Y-66635000D03*
X171775000Y-64095000D03*
X171775000Y-61555000D03*
X171775000Y-59015000D03*
X171775000Y-56475000D03*
X171775000Y-53935000D03*
X164155000Y-53935000D03*
X164155000Y-56475000D03*
X164155000Y-59015000D03*
X164155000Y-61555000D03*
X164155000Y-64095000D03*
X164155000Y-66635000D03*
X164155000Y-69175000D03*
%TD*%
D10*
%TO.C,J5*%
X106475000Y-79000000D03*
D11*
X109015000Y-79000000D03*
X111555000Y-79000000D03*
%TD*%
D10*
%TO.C,J6*%
X93950000Y-79000000D03*
D11*
X96490000Y-79000000D03*
X99030000Y-79000000D03*
X101570000Y-79000000D03*
%TD*%
D18*
%TO.C,R2*%
X83080000Y-55000000D03*
D19*
X72920000Y-55000000D03*
%TD*%
D18*
%TO.C,R11*%
X72920000Y-64000000D03*
D19*
X83080000Y-64000000D03*
%TD*%
M02*
