M48
; DRILL file {KiCad 6.0.4+dfsg-1+b1} date qui 05 mai 2022 09:09:45
; FORMAT={-:-/ absolute / inch / decimal}
; #@! TF.CreationDate,2022-05-05T09:09:45-03:00
; #@! TF.GenerationSoftware,Kicad,Pcbnew,6.0.4+dfsg-1+b1
; #@! TF.FileFunction,Plated,1,2,PTH
FMAT,2
INCH
; #@! TA.AperFunction,Plated,PTH,ViaDrill
T1C0.0157
; #@! TA.AperFunction,Plated,PTH,ComponentDrill
T2C0.0300
; #@! TA.AperFunction,Plated,PTH,ComponentDrill
T3C0.0315
; #@! TA.AperFunction,Plated,PTH,ViaDrill
T4C0.0394
; #@! TA.AperFunction,Plated,PTH,ComponentDrill
T5C0.0394
; #@! TA.AperFunction,Plated,PTH,ComponentDrill
T6C0.0512
; #@! TA.AperFunction,Plated,PTH,ComponentDrill
T7C0.0598
; #@! TA.AperFunction,Plated,PTH,ComponentDrill
T8C0.0689
%
G90
G05
T1
X1.7788Y-4.2788
X1.8576Y-4.3182
X2.33Y-2.2316
T2
X1.3682Y-2.3803
X1.3682Y-2.4803
X1.3682Y-2.5803
X1.3682Y-2.6803
X2.1432Y-2.4803
X2.1432Y-2.5803
T3
X2.345Y-2.9115
X2.345Y-3.3115
X2.345Y-3.4202
X2.345Y-3.8202
X2.4227Y-7.0829
X2.4227Y-7.831
X2.4631Y-2.9115
X2.4631Y-3.3115
X2.4631Y-3.4202
X2.4631Y-3.8202
X2.4778Y-7.0829
X2.4778Y-7.831
X2.5812Y-2.9115
X2.5812Y-3.3115
X2.5812Y-3.4202
X2.5812Y-3.8202
X2.8258Y-2.2921
X2.8258Y-2.3472
X2.8258Y-2.8067
X2.8258Y-2.8618
X2.8338Y-3.1156
X2.8338Y-3.5156
X2.8338Y-3.6306
X2.8338Y-4.0306
X2.8338Y-4.2605
X2.8338Y-4.6605
X2.8338Y-4.7692
X2.8338Y-5.1692
X2.9373Y-7.0829
X2.9373Y-7.831
X2.9519Y-3.0401
X2.9519Y-3.4401
X2.9519Y-3.5519
X2.9519Y-3.9519
X2.9519Y-4.1393
X2.9519Y-4.5393
X2.9519Y-4.6542
X2.9519Y-5.0542
X2.9924Y-7.0829
X2.9924Y-7.831
X3.1174Y-3.2127
X3.1174Y-3.3127
X3.1174Y-3.4127
X3.1174Y-3.5127
X3.1174Y-3.6127
X3.1174Y-3.7127
X3.1174Y-3.8127
X3.1174Y-4.3544
X3.1174Y-4.4544
X3.1174Y-4.5544
X3.1174Y-4.6544
X3.1174Y-4.7544
X3.1174Y-4.8544
X3.1174Y-4.9544
X3.2078Y-3.9849
X3.2078Y-4.1424
X3.3062Y-3.9849
X3.3062Y-4.1424
X3.4174Y-3.2127
X3.4174Y-3.3127
X3.4174Y-3.4127
X3.4174Y-3.5127
X3.4174Y-3.6127
X3.4174Y-3.7127
X3.4174Y-3.8127
X3.4174Y-4.3544
X3.4174Y-4.4544
X3.4174Y-4.5544
X3.4174Y-4.6544
X3.4174Y-4.7544
X3.4174Y-4.8544
X3.4174Y-4.9544
X3.5738Y-2.2921
X3.5738Y-2.3472
X3.5738Y-2.8067
X3.5738Y-2.8618
X3.5818Y-3.0401
X3.5818Y-3.4401
X3.5818Y-3.5519
X3.5818Y-3.9519
X3.5818Y-4.1393
X3.5818Y-4.5393
X3.5818Y-4.6542
X3.5818Y-5.0542
X3.6999Y-3.1251
X3.6999Y-3.5251
X3.6999Y-3.6338
X3.6999Y-4.0338
X3.6999Y-4.2999
X3.6999Y-4.6999
X3.6999Y-4.8086
X3.6999Y-5.2086
T4
X1.8969Y-2.9009
X2.2119Y-2.1135
X2.2119Y-2.8221
X2.7429Y-3.4914
X2.8025Y-2.6647
X2.8025Y-3.8064
X2.9206Y-2.6647
X2.9599Y-2.8221
X2.9599Y-4.2788
X3.1962Y-2.6253
X3.3404Y-2.3487
X3.3536Y-2.6253
X3.393Y-2.8615
X3.393Y-4.2591
X3.3942Y-1.6792
X3.5284Y-3.3166
X3.6644Y-3.4526
X4.9016Y-2.3327
X4.9016Y-3.0315
X4.9016Y-3.8189
X5.9252Y-4.5669
X6.2402Y-4.252
X6.5157Y-2.4803
X6.6732Y-2.9528
X7.185Y-2.9921
X7.185Y-3.7402
T5
X1.3143Y-2.9009
X1.3642Y-7.5197
X1.4143Y-2.9009
X1.4544Y-3.1883
X1.4544Y-3.2883
X1.4544Y-3.3883
X1.4544Y-3.4883
X1.4544Y-3.5883
X1.4544Y-3.6883
X1.4544Y-3.7883
X1.4544Y-3.8883
X1.4544Y-3.9883
X1.4544Y-4.0883
X1.4544Y-4.1883
X1.4544Y-4.2883
X1.4544Y-4.3883
X1.4544Y-4.4883
X1.4544Y-4.5883
X1.4544Y-4.6883
X1.4544Y-4.7883
X1.4544Y-4.8883
X1.4544Y-4.9883
X1.4544Y-5.0883
X1.4642Y-7.5197
X1.5143Y-2.9009
X1.5642Y-7.5197
X1.6143Y-2.9009
X1.6642Y-7.5197
X1.7642Y-7.5197
X1.8642Y-7.5197
X2.0544Y-3.1883
X2.0544Y-3.2883
X2.0544Y-3.3883
X2.0544Y-3.4883
X2.0544Y-3.5883
X2.0544Y-3.6883
X2.0544Y-3.7883
X2.0544Y-3.8883
X2.0544Y-3.9883
X2.0544Y-4.0883
X2.0544Y-4.1883
X2.0544Y-4.2883
X2.0544Y-4.3883
X2.0544Y-4.4883
X2.0544Y-4.5883
X2.0544Y-4.6883
X2.0544Y-4.7883
X2.0544Y-4.8883
X2.0544Y-4.9883
X2.0544Y-5.0883
X2.1063Y-7.8346
X2.2063Y-7.8346
X2.2244Y-7.1545
X2.2244Y-7.2545
X2.6705Y-5.4921
X2.6713Y-6.7913
X2.7705Y-5.4921
X2.7713Y-6.7913
X2.8705Y-5.4921
X2.8713Y-6.7913
X2.9705Y-5.4921
X2.9713Y-6.7913
X3.0705Y-5.4921
X3.0713Y-6.7913
X3.1705Y-5.4921
X3.1713Y-6.7913
X3.2705Y-5.4921
X3.2713Y-6.7913
X3.3705Y-5.4921
X3.3713Y-6.7913
X3.4705Y-5.4921
X3.4713Y-6.7913
T6
X1.3386Y-5.7283
X1.3386Y-6.6142
X1.7766Y-5.7283
X1.7766Y-6.6142
X2.2146Y-5.7283
X2.2146Y-6.6142
X2.6526Y-5.7283
X2.6526Y-6.6142
X3.0906Y-5.7283
X3.0906Y-6.6142
X3.5285Y-5.7283
X3.5285Y-6.6142
X3.9665Y-5.7283
X3.9665Y-6.6142
X4.0748Y-2.3524
X4.0748Y-3.2382
X4.0748Y-3.5728
X4.0748Y-4.4587
X4.4045Y-5.7283
X4.4045Y-6.6142
X4.626Y-2.3524
X4.626Y-3.2382
X4.626Y-3.5728
X4.626Y-4.4587
X4.8425Y-5.7283
X4.8425Y-6.6142
X4.9705Y-4.8425
X5.1772Y-2.3524
X5.1772Y-3.2382
X5.1772Y-3.5728
X5.1772Y-4.4587
X5.7283Y-2.3524
X5.7283Y-3.2382
X5.7283Y-3.5728
X5.7283Y-4.4587
X5.8563Y-4.8425
X6.2795Y-2.3524
X6.2795Y-3.2382
X6.2795Y-3.5728
X6.2795Y-4.4587
X6.8307Y-2.3524
X6.8307Y-3.2382
X6.8307Y-3.5728
X6.8307Y-4.4587
X7.3819Y-2.3524
X7.3819Y-3.2382
X7.3819Y-3.5728
X7.3819Y-4.4587
T7
X4.0535Y-4.9606
X4.2535Y-4.9606
X4.526Y-4.9606
X4.726Y-4.9606
X6.1157Y-4.9606
X6.3157Y-4.9606
X6.5157Y-4.9606
X6.7882Y-4.9606
X6.9882Y-4.9606
X7.1882Y-4.9606
T8
X1.8307Y-8.2874
X1.8307Y-8.6024
X1.8448Y-1.6242
X1.8448Y-1.9392
X1.9094Y-8.4449
X1.9235Y-1.7817
X1.9882Y-8.2874
X1.9882Y-8.6024
X2.0023Y-1.6242
X2.0023Y-1.9392
X2.0669Y-8.4449
X2.081Y-1.7817
X2.1457Y-8.2874
X2.1457Y-8.6024
X2.1597Y-1.6242
X2.1597Y-1.9392
X2.2244Y-8.4449
X2.2385Y-1.7817
X2.3031Y-8.2874
X2.3031Y-8.6024
X2.3172Y-1.6242
X2.3172Y-1.9392
X2.3819Y-8.4449
X2.396Y-1.7817
X2.4606Y-8.2874
X2.4606Y-8.6024
X2.4747Y-1.6242
X2.4747Y-1.9392
X2.5534Y-1.7817
X2.6322Y-1.6242
X2.6322Y-1.9392
X2.7109Y-1.7817
X2.7897Y-1.6242
X2.7897Y-1.9392
X2.8684Y-1.7817
X2.9471Y-1.6242
X2.9471Y-1.9392
X5.2165Y-1.5979
X5.2165Y-1.9129
X5.2953Y-1.7554
X5.374Y-1.5979
X5.374Y-1.9129
X5.4528Y-1.7554
X5.5315Y-1.5979
X5.5315Y-1.9129
X5.6102Y-1.7554
X5.689Y-1.5979
X5.689Y-1.9129
X5.7677Y-1.7554
X5.8465Y-1.5979
X5.8465Y-1.9129
X5.9252Y-1.7554
X6.0039Y-1.5979
X6.0039Y-1.9129
X6.0827Y-1.7554
X6.1614Y-1.5979
X6.1614Y-1.9129
X6.2402Y-1.7554
X6.3189Y-1.5979
X6.3189Y-1.9129
T0
M30
