M48
; DRILL file {KiCad 6.0.4+dfsg-1+b1} date qui 05 mai 2022 09:09:45
; FORMAT={-:-/ absolute / inch / decimal}
; #@! TF.CreationDate,2022-05-05T09:09:45-03:00
; #@! TF.GenerationSoftware,Kicad,Pcbnew,6.0.4+dfsg-1+b1
; #@! TF.FileFunction,NonPlated,1,2,NPTH
FMAT,2
INCH
; #@! TA.AperFunction,NonPlated,NPTH,ComponentDrill
T1C0.1063
; #@! TA.AperFunction,NonPlated,NPTH,ComponentDrill
T2C0.1122
%
G90
G05
T1
X1.3386Y-6.1713
X1.7766Y-6.1713
X2.2146Y-6.1713
X2.6526Y-6.1713
X3.0906Y-6.1713
X3.5285Y-6.1713
X3.9665Y-6.1713
X4.0748Y-2.7953
X4.0748Y-4.0157
X4.4045Y-6.1713
X4.626Y-2.7953
X4.626Y-4.0157
X4.8425Y-6.1713
X5.1772Y-2.7953
X5.1772Y-4.0157
X5.4134Y-4.8425
X5.7283Y-2.7953
X5.7283Y-4.0157
X6.2795Y-2.7953
X6.2795Y-4.0157
X6.8307Y-2.7953
X6.8307Y-4.0157
X7.3819Y-2.7953
X7.3819Y-4.0157
T2
X1.5748Y-8.4646
X1.5889Y-1.762
X2.7165Y-8.4646
X3.2031Y-1.762
X4.9606Y-1.7357
X6.5748Y-1.7357
T0
M30
