%TF.GenerationSoftware,KiCad,Pcbnew,6.0.4+dfsg-1+b1*%
%TF.CreationDate,2022-05-05T09:12:17-03:00*%
%TF.ProjectId,painel1,7061696e-656c-4312-9e6b-696361645f70,rev?*%
%TF.SameCoordinates,Original*%
%TF.FileFunction,Soldermask,Bot*%
%TF.FilePolarity,Negative*%
%FSLAX46Y46*%
G04 Gerber Fmt 4.6, Leading zero omitted, Abs format (unit mm)*
G04 Created by KiCad (PCBNEW 6.0.4+dfsg-1+b1) date 2022-05-05 09:12:17*
%MOMM*%
%LPD*%
G01*
G04 APERTURE LIST*
%ADD10C,1.600000*%
%ADD11O,1.600000X1.600000*%
%ADD12C,2.700000*%
%ADD13C,3.000000*%
%ADD14C,2.850000*%
%ADD15R,2.625000X2.625000*%
%ADD16C,2.625000*%
%ADD17R,1.700000X1.700000*%
%ADD18C,1.700000*%
%ADD19R,3.000000X3.000000*%
%ADD20C,1.524000*%
%ADD21O,1.700000X1.700000*%
%ADD22R,1.308000X1.308000*%
%ADD23R,2.400000X1.600000*%
%ADD24O,2.400000X1.600000*%
G04 APERTURE END LIST*
D10*
%TO.C,R5*%
X93977500Y-109217500D03*
D11*
X93977500Y-119377500D03*
%TD*%
D10*
%TO.C,R3*%
X74977500Y-77217500D03*
D11*
X74977500Y-87377500D03*
%TD*%
D12*
%TO.C,F3*%
X187500000Y-102000000D03*
D13*
X187500000Y-113250000D03*
X187500000Y-90750000D03*
%TD*%
D12*
%TO.C,F4*%
X67375000Y-156750000D03*
D13*
X67375000Y-168000000D03*
X67375000Y-145500000D03*
%TD*%
D14*
%TO.C,J1*%
X40000000Y-215000000D03*
X69000000Y-215000000D03*
D15*
X46500000Y-210500000D03*
D16*
X50500000Y-210500000D03*
X54500000Y-210500000D03*
X58500000Y-210500000D03*
X62500000Y-210500000D03*
X48500000Y-214500000D03*
X52500000Y-214500000D03*
X56500000Y-214500000D03*
X60500000Y-214500000D03*
X46500000Y-218500000D03*
X50500000Y-218500000D03*
X54500000Y-218500000D03*
X58500000Y-218500000D03*
X62500000Y-218500000D03*
%TD*%
D14*
%TO.C,J1*%
X40357500Y-44755000D03*
X81357500Y-44755000D03*
D15*
X74857500Y-49255000D03*
D16*
X70857500Y-49255000D03*
X66857500Y-49255000D03*
X62857500Y-49255000D03*
X58857500Y-49255000D03*
X54857500Y-49255000D03*
X50857500Y-49255000D03*
X46857500Y-49255000D03*
X72857500Y-45255000D03*
X68857500Y-45255000D03*
X64857500Y-45255000D03*
X60857500Y-45255000D03*
X56857500Y-45255000D03*
X52857500Y-45255000D03*
X48857500Y-45255000D03*
X74857500Y-41255000D03*
X70857500Y-41255000D03*
X66857500Y-41255000D03*
X62857500Y-41255000D03*
X58857500Y-41255000D03*
X54857500Y-41255000D03*
X50857500Y-41255000D03*
X46857500Y-41255000D03*
%TD*%
D12*
%TO.C,F9*%
X131500000Y-71000000D03*
D13*
X131500000Y-59750000D03*
X131500000Y-82250000D03*
%TD*%
D14*
%TO.C,J1*%
X167000000Y-44087500D03*
X126000000Y-44087500D03*
D15*
X160500000Y-48587500D03*
D16*
X156500000Y-48587500D03*
X152500000Y-48587500D03*
X148500000Y-48587500D03*
X144500000Y-48587500D03*
X140500000Y-48587500D03*
X136500000Y-48587500D03*
X132500000Y-48587500D03*
X158500000Y-44587500D03*
X154500000Y-44587500D03*
X150500000Y-44587500D03*
X146500000Y-44587500D03*
X142500000Y-44587500D03*
X138500000Y-44587500D03*
X134500000Y-44587500D03*
X160500000Y-40587500D03*
X156500000Y-40587500D03*
X152500000Y-40587500D03*
X148500000Y-40587500D03*
X144500000Y-40587500D03*
X140500000Y-40587500D03*
X136500000Y-40587500D03*
X132500000Y-40587500D03*
%TD*%
D10*
%TO.C,R1*%
X93977500Y-79377500D03*
D11*
X93977500Y-89537500D03*
%TD*%
D10*
%TO.C,R19*%
X59562500Y-97032500D03*
D11*
X59562500Y-86872500D03*
%TD*%
D12*
%TO.C,F8*%
X111875000Y-156750000D03*
D13*
X111875000Y-168000000D03*
X111875000Y-145500000D03*
%TD*%
D12*
%TO.C,F9*%
X123000000Y-156750000D03*
D13*
X123000000Y-168000000D03*
X123000000Y-145500000D03*
%TD*%
D10*
%TO.C,R4*%
X74977500Y-90217500D03*
D11*
X74977500Y-100377500D03*
%TD*%
D12*
%TO.C,F10*%
X145500000Y-71000000D03*
D13*
X145500000Y-59750000D03*
X145500000Y-82250000D03*
%TD*%
D17*
%TO.C,U1*%
X36942500Y-80982500D03*
D18*
X36942500Y-83522500D03*
X36942500Y-86062500D03*
X36942500Y-88602500D03*
X36942500Y-91142500D03*
X36942500Y-93682500D03*
X36942500Y-96222500D03*
X36942500Y-98762500D03*
X36942500Y-101302500D03*
X36942500Y-103842500D03*
X36942500Y-106382500D03*
X36942500Y-108922500D03*
X36942500Y-111462500D03*
X36942500Y-114002500D03*
X36942500Y-116542500D03*
X36942500Y-119082500D03*
X36942500Y-121622500D03*
X36942500Y-124162500D03*
X36942500Y-126702500D03*
X36942500Y-129242500D03*
X52182500Y-129242500D03*
X52182500Y-126702500D03*
X52182500Y-124162500D03*
X52182500Y-121622500D03*
X52182500Y-119082500D03*
X52182500Y-116542500D03*
X52182500Y-114002500D03*
X52182500Y-111462500D03*
X52182500Y-108922500D03*
X52182500Y-106382500D03*
X52182500Y-103842500D03*
X52182500Y-101302500D03*
X52182500Y-98762500D03*
X52182500Y-96222500D03*
X52182500Y-93682500D03*
X52182500Y-91142500D03*
X52182500Y-88602500D03*
X52182500Y-86062500D03*
X52182500Y-83522500D03*
X52182500Y-80982500D03*
%TD*%
D19*
%TO.C,J3*%
X114960000Y-126000000D03*
D13*
X120040000Y-126000000D03*
%TD*%
D12*
%TO.C,F2*%
X45125000Y-156750000D03*
D13*
X45125000Y-168000000D03*
X45125000Y-145500000D03*
%TD*%
D10*
%TO.C,R6*%
X93977500Y-122137500D03*
D11*
X93977500Y-132297500D03*
%TD*%
D12*
%TO.C,F4*%
X173500000Y-102000000D03*
D13*
X173500000Y-113250000D03*
X173500000Y-90750000D03*
%TD*%
D12*
%TO.C,F3*%
X56250000Y-156750000D03*
D13*
X56250000Y-168000000D03*
X56250000Y-145500000D03*
%TD*%
D10*
%TO.C,R2*%
X93977500Y-92297500D03*
D11*
X93977500Y-102457500D03*
%TD*%
D10*
%TO.C,R15*%
X74977500Y-105137500D03*
D11*
X74977500Y-115297500D03*
%TD*%
D12*
%TO.C,F8*%
X137500000Y-123000000D03*
D13*
X148750000Y-123000000D03*
X126250000Y-123000000D03*
%TD*%
D20*
%TO.C,U3*%
X34752500Y-60460000D03*
X34752500Y-63000000D03*
X34752500Y-65540000D03*
X34752500Y-68080000D03*
X54437500Y-63000000D03*
X54437500Y-65540000D03*
%TD*%
D10*
%TO.C,R20*%
X59562500Y-84112500D03*
D11*
X59562500Y-73952500D03*
%TD*%
D10*
%TO.C,R7*%
X71977500Y-108217500D03*
D11*
X71977500Y-118377500D03*
%TD*%
D10*
%TO.C,C1*%
X83977500Y-101217500D03*
X81477500Y-101217500D03*
%TD*%
D17*
%TO.C,J1*%
X67850000Y-172500000D03*
D21*
X70390000Y-172500000D03*
X72930000Y-172500000D03*
X75470000Y-172500000D03*
X78010000Y-172500000D03*
X80550000Y-172500000D03*
X83090000Y-172500000D03*
X85630000Y-172500000D03*
X88170000Y-172500000D03*
%TD*%
D10*
%TO.C,R12*%
X71977500Y-92217500D03*
D11*
X71977500Y-102377500D03*
%TD*%
D10*
%TO.C,R21*%
X65562500Y-97032500D03*
D11*
X65562500Y-86872500D03*
%TD*%
D12*
%TO.C,F5*%
X78500000Y-156750000D03*
D13*
X78500000Y-168000000D03*
X78500000Y-145500000D03*
%TD*%
D12*
%TO.C,F1*%
X34000000Y-156750000D03*
D13*
X34000000Y-168000000D03*
X34000000Y-145500000D03*
%TD*%
D10*
%TO.C,R22*%
X65562500Y-84112500D03*
D11*
X65562500Y-73952500D03*
%TD*%
D10*
%TO.C,R13*%
X90977500Y-105137500D03*
D11*
X90977500Y-115297500D03*
%TD*%
D17*
%TO.C,J2*%
X88150000Y-139500000D03*
D21*
X85610000Y-139500000D03*
X83070000Y-139500000D03*
X80530000Y-139500000D03*
X77990000Y-139500000D03*
X75450000Y-139500000D03*
X72910000Y-139500000D03*
X70370000Y-139500000D03*
X67830000Y-139500000D03*
%TD*%
D22*
%TO.C,U1*%
X61536750Y-198906750D03*
X62936750Y-198906750D03*
X74606750Y-198906750D03*
X76006750Y-198906750D03*
X61536750Y-179906750D03*
X62936750Y-179906750D03*
X74606750Y-179906750D03*
X76006750Y-179906750D03*
%TD*%
%TO.C,U2*%
X71775750Y-58219250D03*
X71775750Y-59619250D03*
X71775750Y-71289250D03*
X71775750Y-72689250D03*
X90775750Y-58219250D03*
X90775750Y-59619250D03*
X90775750Y-71289250D03*
X90775750Y-72689250D03*
%TD*%
D10*
%TO.C,R16*%
X74977500Y-118217500D03*
D11*
X74977500Y-128377500D03*
%TD*%
D12*
%TO.C,F6*%
X145500000Y-102000000D03*
D13*
X145500000Y-113250000D03*
X145500000Y-90750000D03*
%TD*%
D12*
%TO.C,F11*%
X159500000Y-71000000D03*
D13*
X159500000Y-59750000D03*
X159500000Y-82250000D03*
%TD*%
D10*
%TO.C,R11*%
X71977500Y-79137500D03*
D11*
X71977500Y-89297500D03*
%TD*%
D12*
%TO.C,F7*%
X100750000Y-156750000D03*
D13*
X100750000Y-168000000D03*
X100750000Y-145500000D03*
%TD*%
D10*
%TO.C,R10*%
X90977500Y-90217500D03*
D11*
X90977500Y-100377500D03*
%TD*%
D10*
%TO.C,R8*%
X71977500Y-121137500D03*
D11*
X71977500Y-131297500D03*
%TD*%
D10*
%TO.C,R18*%
X62562500Y-84112500D03*
D11*
X62562500Y-73952500D03*
%TD*%
D12*
%TO.C,F6*%
X89625000Y-156750000D03*
D13*
X89625000Y-168000000D03*
X89625000Y-145500000D03*
%TD*%
D12*
%TO.C,F13*%
X187500000Y-71000000D03*
D13*
X187500000Y-59750000D03*
X187500000Y-82250000D03*
%TD*%
D12*
%TO.C,F14*%
X103500000Y-102000000D03*
D13*
X103500000Y-90750000D03*
X103500000Y-113250000D03*
%TD*%
D12*
%TO.C,F7*%
X103500000Y-71000000D03*
D13*
X103500000Y-59750000D03*
X103500000Y-82250000D03*
%TD*%
D19*
%TO.C,J2*%
X172420000Y-126000000D03*
D13*
X177500000Y-126000000D03*
X182580000Y-126000000D03*
%TD*%
D12*
%TO.C,F1*%
X117500000Y-102000000D03*
D13*
X117500000Y-113250000D03*
X117500000Y-90750000D03*
%TD*%
D10*
%TO.C,R14*%
X90977500Y-118217500D03*
D11*
X90977500Y-128377500D03*
%TD*%
D23*
%TO.C,U5*%
X86802500Y-125842500D03*
D24*
X86802500Y-123302500D03*
X86802500Y-120762500D03*
X86802500Y-118222500D03*
X86802500Y-115682500D03*
X86802500Y-113142500D03*
X86802500Y-110602500D03*
X79182500Y-110602500D03*
X79182500Y-113142500D03*
X79182500Y-115682500D03*
X79182500Y-118222500D03*
X79182500Y-120762500D03*
X79182500Y-123302500D03*
X79182500Y-125842500D03*
%TD*%
D10*
%TO.C,R9*%
X90977500Y-77217500D03*
D11*
X90977500Y-87377500D03*
%TD*%
D19*
%TO.C,J4*%
X155340000Y-126000000D03*
D13*
X160420000Y-126000000D03*
X165500000Y-126000000D03*
%TD*%
D17*
%TO.C,J2*%
X47350000Y-191000000D03*
D21*
X44810000Y-191000000D03*
X42270000Y-191000000D03*
X39730000Y-191000000D03*
X37190000Y-191000000D03*
X34650000Y-191000000D03*
%TD*%
D17*
%TO.C,J3*%
X56040000Y-199000000D03*
D21*
X53500000Y-199000000D03*
%TD*%
D12*
%TO.C,F12*%
X173500000Y-71000000D03*
D13*
X173500000Y-59750000D03*
X173500000Y-82250000D03*
%TD*%
D10*
%TO.C,R17*%
X62562500Y-97032500D03*
D11*
X62562500Y-86872500D03*
%TD*%
D17*
%TO.C,J2*%
X33382500Y-73682500D03*
D21*
X35922500Y-73682500D03*
X38462500Y-73682500D03*
X41002500Y-73682500D03*
%TD*%
D12*
%TO.C,F2*%
X131500000Y-102000000D03*
D13*
X131500000Y-113250000D03*
X131500000Y-90750000D03*
%TD*%
D12*
%TO.C,F5*%
X159500000Y-102000000D03*
D13*
X159500000Y-113250000D03*
X159500000Y-90750000D03*
%TD*%
D19*
%TO.C,J5*%
X102960000Y-126000000D03*
D13*
X108040000Y-126000000D03*
%TD*%
D10*
%TO.C,C2*%
X83977500Y-105217500D03*
X81477500Y-105217500D03*
%TD*%
D17*
%TO.C,J4*%
X56500000Y-181725000D03*
D21*
X56500000Y-184265000D03*
%TD*%
D12*
%TO.C,F15*%
X117500000Y-71000000D03*
D13*
X117500000Y-59750000D03*
X117500000Y-82250000D03*
%TD*%
D23*
%TO.C,U4*%
X86802500Y-96842500D03*
D24*
X86802500Y-94302500D03*
X86802500Y-91762500D03*
X86802500Y-89222500D03*
X86802500Y-86682500D03*
X86802500Y-84142500D03*
X86802500Y-81602500D03*
X79182500Y-81602500D03*
X79182500Y-84142500D03*
X79182500Y-86682500D03*
X79182500Y-89222500D03*
X79182500Y-91762500D03*
X79182500Y-94302500D03*
X79182500Y-96842500D03*
%TD*%
M02*
